%TF.GenerationSoftware,KiCad,Pcbnew,4.0.7*%
%TF.CreationDate,2017-12-02T01:49:37+08:00*%
%TF.ProjectId,design1,64657369676E312E6B696361645F7063,rev?*%
%TF.FileFunction,Legend,Bot*%
%FSLAX46Y46*%
G04 Gerber Fmt 4.6, Leading zero omitted, Abs format (unit mm)*
G04 Created by KiCad (PCBNEW 4.0.7) date 12/02/17 01:49:37*
%MOMM*%
%LPD*%
G01*
G04 APERTURE LIST*
%ADD10C,0.100000*%
G04 APERTURE END LIST*
D10*
G36*
X40357940Y-6147061D02*
X40369902Y-5943791D01*
X40384121Y-5767116D01*
X40400597Y-5617038D01*
X40143279Y-5722710D01*
X39902213Y-5786113D01*
X39677398Y-5807248D01*
X39435655Y-5766639D01*
X39269075Y-5649093D01*
X39214224Y-5478117D01*
X39238601Y-5347750D01*
X39360489Y-5183186D01*
X39459579Y-5087962D01*
X39599750Y-4959018D01*
X39781001Y-4796354D01*
X39902889Y-4684687D01*
X39980084Y-4610419D01*
X40087751Y-4495011D01*
X40166979Y-4392427D01*
X40260429Y-4197941D01*
X40288873Y-3992772D01*
X40262465Y-3798288D01*
X40183238Y-3616627D01*
X40049669Y-3459009D01*
X39864299Y-3340930D01*
X39709908Y-3285127D01*
X39531139Y-3251646D01*
X39327993Y-3240485D01*
X39126202Y-3248796D01*
X38908159Y-3273730D01*
X38673864Y-3315285D01*
X38658630Y-3553582D01*
X38633236Y-3823937D01*
X38839091Y-3752697D01*
X39034110Y-3709953D01*
X39218296Y-3695705D01*
X39399604Y-3719748D01*
X39545360Y-3791874D01*
X39639823Y-3893927D01*
X39671311Y-4012005D01*
X39663215Y-4084666D01*
X39638838Y-4157327D01*
X39581959Y-4249228D01*
X39460072Y-4381733D01*
X39321932Y-4503553D01*
X39039560Y-4742918D01*
X38868917Y-4905344D01*
X38740935Y-5057085D01*
X38655611Y-5196002D01*
X38610925Y-5332782D01*
X38594674Y-5478110D01*
X38614480Y-5652826D01*
X38673901Y-5817924D01*
X38770396Y-5962185D01*
X38901426Y-6078661D01*
X39056832Y-6165217D01*
X39226458Y-6219716D01*
X39408274Y-6250172D01*
X39600247Y-6260324D01*
X39740926Y-6254447D01*
X39902934Y-6236816D01*
X40103033Y-6202622D01*
X40357981Y-6147054D01*
X40357940Y-6147061D01*
X40357940Y-6147061D01*
G37*
G36*
X36918681Y-5762367D02*
X36950169Y-5930136D01*
X36995880Y-6198354D01*
X37148239Y-6231481D01*
X37264033Y-6249647D01*
X37446864Y-6260331D01*
X37589573Y-6252850D01*
X37717047Y-6230407D01*
X37912068Y-6125684D01*
X38017703Y-5948297D01*
X38044109Y-5736715D01*
X38042110Y-5661915D01*
X38037048Y-5562538D01*
X38025859Y-5358435D01*
X37979134Y-4469365D01*
X38271664Y-4469365D01*
X38262017Y-4302131D01*
X38253384Y-4056889D01*
X37946632Y-4056889D01*
X37934441Y-3889653D01*
X37922255Y-3635861D01*
X37682544Y-3586708D01*
X37572335Y-3561594D01*
X37392045Y-3516175D01*
X37400168Y-3704486D01*
X37405585Y-3884722D01*
X37408297Y-4056884D01*
X36892304Y-4056884D01*
X36902971Y-4304263D01*
X36906526Y-4469361D01*
X37424548Y-4469361D01*
X37443210Y-4858463D01*
X37456541Y-5155933D01*
X37464539Y-5361771D01*
X37467205Y-5475977D01*
X37440799Y-5681147D01*
X37351417Y-5785869D01*
X37221403Y-5817922D01*
X37115768Y-5809427D01*
X36918716Y-5762402D01*
X36918681Y-5762367D01*
X36918681Y-5762367D01*
G37*
G36*
X34545937Y-6209039D02*
X34703882Y-6205816D01*
X34820184Y-6204742D01*
X34948166Y-6205816D01*
X35092399Y-6209039D01*
X35088302Y-5854267D01*
X35187848Y-5999595D01*
X35299580Y-6106454D01*
X35449908Y-6189810D01*
X35636802Y-6238963D01*
X35858231Y-6260342D01*
X36071025Y-6243246D01*
X36254364Y-6191958D01*
X36405707Y-6103797D01*
X36522516Y-5980376D01*
X36595647Y-5808868D01*
X36620024Y-5576449D01*
X36620024Y-5531573D01*
X36587522Y-4980178D01*
X36557048Y-4253534D01*
X36555049Y-4035541D01*
X36382884Y-4038764D01*
X36252361Y-4039839D01*
X36124381Y-4038764D01*
X35972022Y-4035541D01*
X36039066Y-5010099D01*
X36049221Y-5202446D01*
X36051220Y-5313579D01*
X36040555Y-5454634D01*
X36008563Y-5570042D01*
X35856203Y-5723919D01*
X35622586Y-5777351D01*
X35399125Y-5730336D01*
X35236607Y-5610654D01*
X35120814Y-5403346D01*
X35090346Y-5291142D01*
X35068002Y-5142608D01*
X35054295Y-4982854D01*
X35041597Y-4738680D01*
X35031892Y-4506676D01*
X35024446Y-4272298D01*
X35019258Y-4035545D01*
X34842015Y-4038768D01*
X34712509Y-4039843D01*
X34585035Y-4038768D01*
X34442324Y-4035545D01*
X34458801Y-4256388D01*
X34475729Y-4511426D01*
X34493107Y-4800659D01*
X34508907Y-5087992D01*
X34521097Y-5340181D01*
X34529678Y-5557224D01*
X34535997Y-5761681D01*
X34541414Y-5978962D01*
X34545929Y-6209066D01*
X34545937Y-6209039D01*
X34545937Y-6209039D01*
G37*
G36*
X31941609Y-6209039D02*
X32203666Y-6204742D01*
X32544957Y-5426846D01*
X32499758Y-5267625D01*
X32469787Y-5063524D01*
X32460536Y-4918670D01*
X32451734Y-4706375D01*
X32443381Y-4426641D01*
X32443391Y-4426638D01*
X32592703Y-4394578D01*
X32735921Y-4383891D01*
X32892851Y-4395647D01*
X33042672Y-4430916D01*
X33180811Y-4494496D01*
X33302698Y-4591205D01*
X33401731Y-4720505D01*
X33475371Y-4881863D01*
X33521074Y-5056043D01*
X33536309Y-5223812D01*
X33522596Y-5381430D01*
X33481458Y-5525156D01*
X33409342Y-5647510D01*
X33306752Y-5741012D01*
X33181310Y-5800320D01*
X33040631Y-5820090D01*
X32837486Y-5779482D01*
X32670907Y-5651250D01*
X32544957Y-5426846D01*
X32203666Y-6204742D01*
X32324538Y-6205816D01*
X32484008Y-6209039D01*
X32465728Y-5837169D01*
X32620119Y-6025241D01*
X32778573Y-6149198D01*
X32981718Y-6232554D01*
X33209241Y-6260339D01*
X33398167Y-6241639D01*
X33574903Y-6185539D01*
X33732850Y-6095778D01*
X33865403Y-5976096D01*
X33969515Y-5827027D01*
X34042139Y-5653380D01*
X34084799Y-5461567D01*
X34099019Y-5262274D01*
X34087733Y-5077288D01*
X34053875Y-4895627D01*
X33997445Y-4717290D01*
X33877081Y-4475789D01*
X33719136Y-4285579D01*
X33530718Y-4145059D01*
X33318939Y-4052625D01*
X33087352Y-4001337D01*
X32839515Y-3984241D01*
X32642463Y-3993324D01*
X32421034Y-4020572D01*
X32413138Y-3832262D01*
X32408401Y-3637778D01*
X32406821Y-3437119D01*
X32406821Y-3291791D01*
X32238210Y-3295014D01*
X32114292Y-3296089D01*
X31974120Y-3295014D01*
X31817698Y-3291791D01*
X31832481Y-3483663D01*
X31847039Y-3697382D01*
X31861372Y-3932947D01*
X31875480Y-4190359D01*
X31889364Y-4469619D01*
X31903022Y-4770725D01*
X31914817Y-5070110D01*
X31924466Y-5345629D01*
X31931972Y-5597283D01*
X31937333Y-5825072D01*
X31940550Y-6028995D01*
X31941622Y-6209053D01*
X31941609Y-6209039D01*
X31941609Y-6209039D01*
G37*
G36*
X31695802Y-7192147D02*
X31728817Y-6916449D01*
X31754720Y-6730513D01*
X31565288Y-6802647D01*
X31387028Y-6826692D01*
X31279359Y-6811740D01*
X31177786Y-6773270D01*
X31116849Y-6724116D01*
X31029505Y-6606570D01*
X30934026Y-6437733D01*
X30866982Y-6260346D01*
X31289526Y-4958799D01*
X31598307Y-4035532D01*
X31414968Y-4038755D01*
X31291558Y-4039830D01*
X31167131Y-4038755D01*
X31009184Y-4035532D01*
X30968049Y-4201165D01*
X30929957Y-4343288D01*
X30736969Y-5014366D01*
X30660282Y-5285788D01*
X30608987Y-5480273D01*
X30582578Y-5599422D01*
X30552107Y-5751696D01*
X30495230Y-5575378D01*
X30446472Y-5435391D01*
X30386656Y-5270590D01*
X30312847Y-5072544D01*
X30225044Y-4841253D01*
X30027992Y-4330465D01*
X29974669Y-4188342D01*
X29920324Y-4035532D01*
X29759332Y-4038755D01*
X29642016Y-4039830D01*
X29525207Y-4038755D01*
X29349486Y-4035532D01*
X30131597Y-5879927D01*
X30470850Y-6694196D01*
X30540427Y-6834716D01*
X30606957Y-6939973D01*
X30722750Y-7068203D01*
X30852763Y-7153687D01*
X31041690Y-7222071D01*
X31275306Y-7247717D01*
X31462201Y-7234894D01*
X31695818Y-7192147D01*
X31695802Y-7192147D01*
X31695802Y-7192147D01*
G37*
G36*
X22988973Y-6209039D02*
X22944277Y-5584981D01*
X22899591Y-4655303D01*
X22871146Y-3740587D01*
X23013348Y-3740587D01*
X23145393Y-3742785D01*
X23271343Y-3744984D01*
X23740610Y-3759946D01*
X23727914Y-3489057D01*
X23722330Y-3291902D01*
X23486112Y-3293449D01*
X23245506Y-3294652D01*
X23000512Y-3295512D01*
X22751130Y-3296028D01*
X22497360Y-3296200D01*
X21768068Y-3294001D01*
X21378028Y-3291802D01*
X21393267Y-3558416D01*
X21398347Y-3755572D01*
X21640091Y-3744888D01*
X21875063Y-3738478D01*
X22103264Y-3736342D01*
X22259686Y-3736342D01*
X22284063Y-4127447D01*
X22342972Y-5632028D01*
X22347070Y-5884217D01*
X22348569Y-6043437D01*
X22349068Y-6209069D01*
X22657851Y-6204772D01*
X22766029Y-6205846D01*
X22988978Y-6209069D01*
X22988973Y-6209039D01*
X22988973Y-6209039D01*
G37*
G36*
X21550702Y-6209039D02*
X21463268Y-6044305D01*
X20224164Y-4727968D01*
X19446116Y-4727968D01*
X19765054Y-3740587D01*
X19929603Y-4099634D01*
X20224164Y-4727968D01*
X21463268Y-6044305D01*
X21369983Y-5864696D01*
X21270848Y-5670212D01*
X21165862Y-5460853D01*
X21055026Y-5236619D01*
X20520752Y-4157338D01*
X20401150Y-3915702D01*
X20292213Y-3690897D01*
X20193941Y-3482922D01*
X20106334Y-3291777D01*
X19880843Y-3295000D01*
X19732547Y-3296075D01*
X19541590Y-3295000D01*
X19354696Y-3291777D01*
X19064197Y-4165888D01*
X18432413Y-5973949D01*
X18345060Y-6209039D01*
X18649778Y-6204742D01*
X18791473Y-6205816D01*
X19005284Y-6209039D01*
X19044107Y-6067510D01*
X19095570Y-5896535D01*
X19159674Y-5696114D01*
X19225358Y-5494506D01*
X19284271Y-5319969D01*
X19336412Y-5172503D01*
X20404964Y-5172503D01*
X20499548Y-5376733D01*
X20593158Y-5582501D01*
X20685792Y-5789809D01*
X20777452Y-5998655D01*
X20868136Y-6209039D01*
X21199264Y-6204742D01*
X21333849Y-6205816D01*
X21550706Y-6209039D01*
X21550702Y-6209039D01*
X21550702Y-6209039D01*
G37*
G36*
X18050500Y-6209039D02*
X18031034Y-5991462D01*
X18013260Y-5763317D01*
X17997179Y-5524605D01*
X17982790Y-5275326D01*
X17970093Y-5015479D01*
X17959089Y-4745065D01*
X17949778Y-4474948D01*
X17942159Y-4215992D01*
X17936234Y-3968197D01*
X17932001Y-3731563D01*
X17929462Y-3506089D01*
X17928615Y-3291777D01*
X17704648Y-3295000D01*
X17520293Y-3296075D01*
X17345587Y-3294451D01*
X17174945Y-3289578D01*
X16999732Y-3284706D01*
X16815376Y-3283082D01*
X16592424Y-3290028D01*
X16394865Y-3310867D01*
X16218637Y-3356817D01*
X16063738Y-3439098D01*
X15938295Y-3550231D01*
X15850434Y-3682738D01*
X15797108Y-3837684D01*
X15779332Y-4016139D01*
X15805738Y-4244818D01*
X15884966Y-4447852D01*
X16006854Y-4614552D01*
X16149056Y-4727824D01*
X16307509Y-4798356D01*
X16547222Y-4871017D01*
X16409083Y-5153127D01*
X16351071Y-5266635D01*
X16266427Y-5427637D01*
X16155151Y-5636132D01*
X15949973Y-6014413D01*
X15852465Y-6208898D01*
X16058150Y-6205675D01*
X16179530Y-6204601D01*
X16314113Y-6205675D01*
X16522845Y-6208898D01*
X16748339Y-5640406D01*
X16813349Y-5498283D01*
X16890541Y-5332650D01*
X17136347Y-4813314D01*
X17237921Y-4595321D01*
X16990082Y-4620968D01*
X16822995Y-4606008D01*
X16671143Y-4561130D01*
X16543670Y-4485261D01*
X16449714Y-4377332D01*
X16391815Y-4245894D01*
X16372516Y-4103772D01*
X16407047Y-3937071D01*
X16518778Y-3806701D01*
X16707703Y-3738318D01*
X16927101Y-3723366D01*
X17093680Y-3725565D01*
X17353706Y-3727763D01*
X17390277Y-4606148D01*
X17428876Y-6209039D01*
X17743752Y-6204742D01*
X17858024Y-6205816D01*
X18050500Y-6209039D01*
X18050500Y-6209039D01*
G37*
M02*
