%TF.GenerationSoftware,KiCad,Pcbnew,4.0.7*%
%TF.CreationDate,2017-12-02T01:49:37+08:00*%
%TF.ProjectId,design1,64657369676E312E6B696361645F7063,rev?*%
%TF.FileFunction,Soldermask,Top*%
%FSLAX46Y46*%
G04 Gerber Fmt 4.6, Leading zero omitted, Abs format (unit mm)*
G04 Created by KiCad (PCBNEW 4.0.7) date 12/02/17 01:49:37*
%MOMM*%
%LPD*%
G01*
G04 APERTURE LIST*
%ADD10C,0.100000*%
%ADD11C,0.074671*%
%ADD12C,1.900000*%
G04 APERTURE END LIST*
D10*
D11*
G36*
X7825843Y-6164452D02*
X7726761Y-6270374D01*
X6517272Y-6270374D01*
X6418190Y-6150792D01*
X6419684Y-5956681D01*
X6424168Y-5719438D01*
X6431641Y-5439060D01*
X6442102Y-5115550D01*
X6454059Y-4792035D01*
X6462600Y-4511657D01*
X6467724Y-4274414D01*
X6469432Y-4080307D01*
X6438685Y-3974395D01*
X6408345Y-4023186D01*
X6347393Y-4153155D01*
X6255827Y-4364303D01*
X6133647Y-4656628D01*
X5980855Y-5030132D01*
X5882456Y-5273261D01*
X5784057Y-5516116D01*
X5685658Y-5758696D01*
X5587258Y-6001002D01*
X5488859Y-6243034D01*
X5403442Y-6335258D01*
X5266777Y-6339109D01*
X5054945Y-6270759D01*
X4976499Y-6106759D01*
X4888760Y-5915426D01*
X4791727Y-5696760D01*
X4685401Y-5450761D01*
X4569782Y-5177430D01*
X4447740Y-4890845D01*
X4338545Y-4637879D01*
X4242196Y-4418532D01*
X4158693Y-4232803D01*
X4088037Y-4080693D01*
X4057289Y-4043149D01*
X4033377Y-4142226D01*
X4034445Y-4330570D01*
X4037648Y-4560767D01*
X4042988Y-4832817D01*
X4050464Y-5146721D01*
X4057935Y-5460624D01*
X4063272Y-5732674D01*
X4066474Y-5962871D01*
X4067542Y-6151215D01*
X3971872Y-6270798D01*
X2830716Y-6270798D01*
X2745299Y-6250293D01*
X2731629Y-6171739D01*
X2733764Y-5962259D01*
X2740170Y-5706225D01*
X2750847Y-5403638D01*
X2765794Y-5054497D01*
X2782236Y-4703866D01*
X2793981Y-4400214D01*
X2801027Y-4143541D01*
X2803376Y-3933847D01*
X2802427Y-3782471D01*
X2799580Y-3592563D01*
X2794835Y-3364122D01*
X2788192Y-3097149D01*
X2779651Y-2791643D01*
X2769211Y-2447606D01*
X2764297Y-2227802D01*
X2754048Y-1946501D01*
X2738464Y-1603703D01*
X2735094Y-1545654D01*
X2878592Y-1477305D01*
X3113486Y-1474754D01*
X3442338Y-1467101D01*
X3771189Y-1456848D01*
X4006083Y-1453431D01*
X4111998Y-1596936D01*
X5109656Y-3786993D01*
X5207030Y-3953558D01*
X5287321Y-4009080D01*
X5346258Y-3945017D01*
X5447904Y-3752828D01*
X5528680Y-3584400D01*
X5617639Y-3398003D01*
X5714781Y-3193638D01*
X5820106Y-2971304D01*
X5933614Y-2731001D01*
X6055306Y-2472729D01*
X6185180Y-2196488D01*
X6323237Y-1902279D01*
X6469478Y-1590101D01*
X6595893Y-1456848D01*
X6719746Y-1459399D01*
X6893141Y-1467053D01*
X7069951Y-1474706D01*
X7197221Y-1477257D01*
X7456886Y-1460218D01*
X7719966Y-1443178D01*
X7822465Y-1525198D01*
X7821235Y-1702450D01*
X7817546Y-1911683D01*
X7811396Y-2152896D01*
X7802787Y-2426090D01*
X7791718Y-2731265D01*
X7781879Y-3035210D01*
X7774226Y-3307448D01*
X7768760Y-3547980D01*
X7765481Y-3756805D01*
X7764388Y-3933924D01*
X7766309Y-4143405D01*
X7772074Y-4399439D01*
X7781683Y-4702026D01*
X7795135Y-5051166D01*
X7808587Y-5400089D01*
X7818196Y-5702033D01*
X7823961Y-5956997D01*
X7825883Y-6164981D01*
X7825843Y-6164452D01*
X7825843Y-6164452D01*
G37*
X7825843Y-6164452D02*
X7726761Y-6270374D01*
X6517272Y-6270374D01*
X6418190Y-6150792D01*
X6419684Y-5956681D01*
X6424168Y-5719438D01*
X6431641Y-5439060D01*
X6442102Y-5115550D01*
X6454059Y-4792035D01*
X6462600Y-4511657D01*
X6467724Y-4274414D01*
X6469432Y-4080307D01*
X6438685Y-3974395D01*
X6408345Y-4023186D01*
X6347393Y-4153155D01*
X6255827Y-4364303D01*
X6133647Y-4656628D01*
X5980855Y-5030132D01*
X5882456Y-5273261D01*
X5784057Y-5516116D01*
X5685658Y-5758696D01*
X5587258Y-6001002D01*
X5488859Y-6243034D01*
X5403442Y-6335258D01*
X5266777Y-6339109D01*
X5054945Y-6270759D01*
X4976499Y-6106759D01*
X4888760Y-5915426D01*
X4791727Y-5696760D01*
X4685401Y-5450761D01*
X4569782Y-5177430D01*
X4447740Y-4890845D01*
X4338545Y-4637879D01*
X4242196Y-4418532D01*
X4158693Y-4232803D01*
X4088037Y-4080693D01*
X4057289Y-4043149D01*
X4033377Y-4142226D01*
X4034445Y-4330570D01*
X4037648Y-4560767D01*
X4042988Y-4832817D01*
X4050464Y-5146721D01*
X4057935Y-5460624D01*
X4063272Y-5732674D01*
X4066474Y-5962871D01*
X4067542Y-6151215D01*
X3971872Y-6270798D01*
X2830716Y-6270798D01*
X2745299Y-6250293D01*
X2731629Y-6171739D01*
X2733764Y-5962259D01*
X2740170Y-5706225D01*
X2750847Y-5403638D01*
X2765794Y-5054497D01*
X2782236Y-4703866D01*
X2793981Y-4400214D01*
X2801027Y-4143541D01*
X2803376Y-3933847D01*
X2802427Y-3782471D01*
X2799580Y-3592563D01*
X2794835Y-3364122D01*
X2788192Y-3097149D01*
X2779651Y-2791643D01*
X2769211Y-2447606D01*
X2764297Y-2227802D01*
X2754048Y-1946501D01*
X2738464Y-1603703D01*
X2735094Y-1545654D01*
X2878592Y-1477305D01*
X3113486Y-1474754D01*
X3442338Y-1467101D01*
X3771189Y-1456848D01*
X4006083Y-1453431D01*
X4111998Y-1596936D01*
X5109656Y-3786993D01*
X5207030Y-3953558D01*
X5287321Y-4009080D01*
X5346258Y-3945017D01*
X5447904Y-3752828D01*
X5528680Y-3584400D01*
X5617639Y-3398003D01*
X5714781Y-3193638D01*
X5820106Y-2971304D01*
X5933614Y-2731001D01*
X6055306Y-2472729D01*
X6185180Y-2196488D01*
X6323237Y-1902279D01*
X6469478Y-1590101D01*
X6595893Y-1456848D01*
X6719746Y-1459399D01*
X6893141Y-1467053D01*
X7069951Y-1474706D01*
X7197221Y-1477257D01*
X7456886Y-1460218D01*
X7719966Y-1443178D01*
X7822465Y-1525198D01*
X7821235Y-1702450D01*
X7817546Y-1911683D01*
X7811396Y-2152896D01*
X7802787Y-2426090D01*
X7791718Y-2731265D01*
X7781879Y-3035210D01*
X7774226Y-3307448D01*
X7768760Y-3547980D01*
X7765481Y-3756805D01*
X7764388Y-3933924D01*
X7766309Y-4143405D01*
X7772074Y-4399439D01*
X7781683Y-4702026D01*
X7795135Y-5051166D01*
X7808587Y-5400089D01*
X7818196Y-5702033D01*
X7823961Y-5956997D01*
X7825883Y-6164981D01*
X7825843Y-6164452D01*
G36*
X9786989Y-2163571D02*
X9698077Y-3024589D01*
X9780096Y-3092939D01*
X9773357Y-3157823D01*
X9750384Y-3385790D01*
X9731588Y-3625526D01*
X9716969Y-3877028D01*
X9706527Y-4140299D01*
X9700262Y-4415337D01*
X9698173Y-4702142D01*
X9698135Y-4702132D01*
X9699268Y-4895744D01*
X9702670Y-5144022D01*
X9708339Y-5446967D01*
X9714008Y-5747628D01*
X9717409Y-5993625D01*
X9718543Y-6184957D01*
X9633155Y-6270345D01*
X9444388Y-6285724D01*
X9110417Y-6290850D01*
X8773875Y-6285724D01*
X8584250Y-6270345D01*
X8491998Y-6225966D01*
X8485163Y-6123462D01*
X8486302Y-5940102D01*
X8489720Y-5704355D01*
X8495415Y-5416219D01*
X8501111Y-5125805D01*
X8504529Y-4887779D01*
X8505668Y-4702142D01*
X8503580Y-4389711D01*
X8497316Y-4099298D01*
X8486877Y-3830902D01*
X8472261Y-3584525D01*
X8453470Y-3360165D01*
X8430503Y-3157823D01*
X8423668Y-3086104D01*
X8515920Y-3017755D01*
X8636359Y-3022881D01*
X8806335Y-3038259D01*
X8979727Y-3053638D01*
X9103582Y-3058764D01*
X9227432Y-3054480D01*
X9400825Y-3041629D01*
X9574220Y-3028849D01*
X9698077Y-3024589D01*
X9786989Y-2163571D01*
X9760202Y-2377589D01*
X9679843Y-2544047D01*
X9545911Y-2662946D01*
X9358406Y-2734286D01*
X9117329Y-2758066D01*
X8855105Y-2720483D01*
X8642419Y-2607736D01*
X8488671Y-2414694D01*
X8437422Y-2163571D01*
X8490380Y-1920991D01*
X8649253Y-1726241D01*
X8863646Y-1608367D01*
X9117329Y-1569076D01*
X9365894Y-1609222D01*
X9578581Y-1729658D01*
X9734887Y-1923554D01*
X9786989Y-2163571D01*
X9786989Y-2163571D01*
G37*
X9786989Y-2163571D02*
X9698077Y-3024589D01*
X9780096Y-3092939D01*
X9773357Y-3157823D01*
X9750384Y-3385790D01*
X9731588Y-3625526D01*
X9716969Y-3877028D01*
X9706527Y-4140299D01*
X9700262Y-4415337D01*
X9698173Y-4702142D01*
X9698135Y-4702132D01*
X9699268Y-4895744D01*
X9702670Y-5144022D01*
X9708339Y-5446967D01*
X9714008Y-5747628D01*
X9717409Y-5993625D01*
X9718543Y-6184957D01*
X9633155Y-6270345D01*
X9444388Y-6285724D01*
X9110417Y-6290850D01*
X8773875Y-6285724D01*
X8584250Y-6270345D01*
X8491998Y-6225966D01*
X8485163Y-6123462D01*
X8486302Y-5940102D01*
X8489720Y-5704355D01*
X8495415Y-5416219D01*
X8501111Y-5125805D01*
X8504529Y-4887779D01*
X8505668Y-4702142D01*
X8503580Y-4389711D01*
X8497316Y-4099298D01*
X8486877Y-3830902D01*
X8472261Y-3584525D01*
X8453470Y-3360165D01*
X8430503Y-3157823D01*
X8423668Y-3086104D01*
X8515920Y-3017755D01*
X8636359Y-3022881D01*
X8806335Y-3038259D01*
X8979727Y-3053638D01*
X9103582Y-3058764D01*
X9227432Y-3054480D01*
X9400825Y-3041629D01*
X9574220Y-3028849D01*
X9698077Y-3024589D01*
X9786989Y-2163571D01*
X9760202Y-2377589D01*
X9679843Y-2544047D01*
X9545911Y-2662946D01*
X9358406Y-2734286D01*
X9117329Y-2758066D01*
X8855105Y-2720483D01*
X8642419Y-2607736D01*
X8488671Y-2414694D01*
X8437422Y-2163571D01*
X8490380Y-1920991D01*
X8649253Y-1726241D01*
X8863646Y-1608367D01*
X9117329Y-1569076D01*
X9365894Y-1609222D01*
X9578581Y-1729658D01*
X9734887Y-1923554D01*
X9786989Y-2163571D01*
G36*
X12622803Y-4022230D02*
X12414385Y-3967550D01*
X12231594Y-3926541D01*
X12086385Y-3912871D01*
X11813058Y-3958997D01*
X11601230Y-4097376D01*
X11465415Y-4309203D01*
X11420143Y-4582531D01*
X11442161Y-4777279D01*
X11508216Y-4942418D01*
X11618308Y-5077948D01*
X11763705Y-5176648D01*
X11935676Y-5235868D01*
X12134220Y-5255608D01*
X12293948Y-5236812D01*
X12472473Y-5180424D01*
X12650133Y-5101870D01*
X12716740Y-5210348D01*
X12800463Y-5535782D01*
X12859378Y-5865489D01*
X12879016Y-6061947D01*
X12773101Y-6182384D01*
X12455356Y-6284025D01*
X12158961Y-6337814D01*
X11925774Y-6355743D01*
X11682529Y-6341697D01*
X11453900Y-6299558D01*
X11239886Y-6229326D01*
X11040489Y-6131001D01*
X10855707Y-6004584D01*
X10685542Y-5850074D01*
X10536253Y-5674592D01*
X10414107Y-5485254D01*
X10319105Y-5282060D01*
X10251247Y-5065009D01*
X10210531Y-4834101D01*
X10196960Y-4589337D01*
X10210531Y-4346566D01*
X10251247Y-4117082D01*
X10319105Y-3900886D01*
X10414107Y-3697976D01*
X10536253Y-3508353D01*
X10685542Y-3332017D01*
X10856657Y-3175421D01*
X11042008Y-3047298D01*
X11241595Y-2947646D01*
X11455418Y-2876466D01*
X11683478Y-2833758D01*
X11925774Y-2819522D01*
X12172630Y-2833188D01*
X12404109Y-2874187D01*
X12620212Y-2942518D01*
X12820939Y-3038182D01*
X12909793Y-3130406D01*
X12884167Y-3253386D01*
X12807288Y-3533571D01*
X12727839Y-3810316D01*
X12680871Y-3950396D01*
X12622822Y-4022114D01*
X12622803Y-4022230D01*
X12622803Y-4022230D01*
G37*
X12622803Y-4022230D02*
X12414385Y-3967550D01*
X12231594Y-3926541D01*
X12086385Y-3912871D01*
X11813058Y-3958997D01*
X11601230Y-4097376D01*
X11465415Y-4309203D01*
X11420143Y-4582531D01*
X11442161Y-4777279D01*
X11508216Y-4942418D01*
X11618308Y-5077948D01*
X11763705Y-5176648D01*
X11935676Y-5235868D01*
X12134220Y-5255608D01*
X12293948Y-5236812D01*
X12472473Y-5180424D01*
X12650133Y-5101870D01*
X12716740Y-5210348D01*
X12800463Y-5535782D01*
X12859378Y-5865489D01*
X12879016Y-6061947D01*
X12773101Y-6182384D01*
X12455356Y-6284025D01*
X12158961Y-6337814D01*
X11925774Y-6355743D01*
X11682529Y-6341697D01*
X11453900Y-6299558D01*
X11239886Y-6229326D01*
X11040489Y-6131001D01*
X10855707Y-6004584D01*
X10685542Y-5850074D01*
X10536253Y-5674592D01*
X10414107Y-5485254D01*
X10319105Y-5282060D01*
X10251247Y-5065009D01*
X10210531Y-4834101D01*
X10196960Y-4589337D01*
X10210531Y-4346566D01*
X10251247Y-4117082D01*
X10319105Y-3900886D01*
X10414107Y-3697976D01*
X10536253Y-3508353D01*
X10685542Y-3332017D01*
X10856657Y-3175421D01*
X11042008Y-3047298D01*
X11241595Y-2947646D01*
X11455418Y-2876466D01*
X11683478Y-2833758D01*
X11925774Y-2819522D01*
X12172630Y-2833188D01*
X12404109Y-2874187D01*
X12620212Y-2942518D01*
X12820939Y-3038182D01*
X12909793Y-3130406D01*
X12884167Y-3253386D01*
X12807288Y-3533571D01*
X12727839Y-3810316D01*
X12680871Y-3950396D01*
X12622822Y-4022114D01*
X12622803Y-4022230D01*
G36*
X15537189Y-4141803D02*
X15390277Y-4275055D01*
X15198947Y-4268316D01*
X15014442Y-4258112D01*
X14776136Y-4280326D01*
X14628365Y-4346966D01*
X14551493Y-4481080D01*
X14525869Y-4705713D01*
X14526832Y-4891070D01*
X14529720Y-5153296D01*
X14534774Y-5412958D01*
X14536459Y-5597461D01*
X14539876Y-5721310D01*
X14550129Y-5894703D01*
X14560381Y-6064681D01*
X14563799Y-6185120D01*
X14451051Y-6277344D01*
X14243488Y-6287596D01*
X13948799Y-6291014D01*
X13656680Y-6285888D01*
X13429469Y-6270509D01*
X13316722Y-6157761D01*
X13317149Y-5945550D01*
X13318433Y-5673356D01*
X13320572Y-5341179D01*
X13322712Y-5007109D01*
X13323995Y-4733780D01*
X13324423Y-4521190D01*
X13318546Y-4211368D01*
X13300917Y-3924233D01*
X13271534Y-3659785D01*
X13230399Y-3418023D01*
X13177510Y-3198948D01*
X13170772Y-3147734D01*
X13221986Y-3079384D01*
X13453461Y-3050336D01*
X13772063Y-3004200D01*
X14073864Y-2945360D01*
X14259502Y-2910056D01*
X14328975Y-2898288D01*
X14407529Y-3113530D01*
X14469043Y-3328782D01*
X14515162Y-3284367D01*
X14749208Y-3151122D01*
X14965217Y-3050518D01*
X15175909Y-2990156D01*
X15381285Y-2970035D01*
X15572615Y-3052054D01*
X15552111Y-3332219D01*
X15528140Y-3612384D01*
X15531991Y-3875462D01*
X15538730Y-4141957D01*
X15537189Y-4141803D01*
X15537189Y-4141803D01*
G37*
X15537189Y-4141803D02*
X15390277Y-4275055D01*
X15198947Y-4268316D01*
X15014442Y-4258112D01*
X14776136Y-4280326D01*
X14628365Y-4346966D01*
X14551493Y-4481080D01*
X14525869Y-4705713D01*
X14526832Y-4891070D01*
X14529720Y-5153296D01*
X14534774Y-5412958D01*
X14536459Y-5597461D01*
X14539876Y-5721310D01*
X14550129Y-5894703D01*
X14560381Y-6064681D01*
X14563799Y-6185120D01*
X14451051Y-6277344D01*
X14243488Y-6287596D01*
X13948799Y-6291014D01*
X13656680Y-6285888D01*
X13429469Y-6270509D01*
X13316722Y-6157761D01*
X13317149Y-5945550D01*
X13318433Y-5673356D01*
X13320572Y-5341179D01*
X13322712Y-5007109D01*
X13323995Y-4733780D01*
X13324423Y-4521190D01*
X13318546Y-4211368D01*
X13300917Y-3924233D01*
X13271534Y-3659785D01*
X13230399Y-3418023D01*
X13177510Y-3198948D01*
X13170772Y-3147734D01*
X13221986Y-3079384D01*
X13453461Y-3050336D01*
X13772063Y-3004200D01*
X14073864Y-2945360D01*
X14259502Y-2910056D01*
X14328975Y-2898288D01*
X14407529Y-3113530D01*
X14469043Y-3328782D01*
X14515162Y-3284367D01*
X14749208Y-3151122D01*
X14965217Y-3050518D01*
X15175909Y-2990156D01*
X15381285Y-2970035D01*
X15572615Y-3052054D01*
X15552111Y-3332219D01*
X15528140Y-3612384D01*
X15531991Y-3875462D01*
X15538730Y-4141957D01*
X15537189Y-4141803D01*
G36*
X19223741Y-4589385D02*
X18103081Y-4589385D01*
X18061229Y-4335701D01*
X17935673Y-4114473D01*
X17743487Y-3958160D01*
X17501761Y-3906055D01*
X17255759Y-3959014D01*
X17057596Y-4117890D01*
X16934596Y-4334846D01*
X16893596Y-4589385D01*
X16934596Y-4846487D01*
X17057596Y-5064297D01*
X17255759Y-5223173D01*
X17501761Y-5276132D01*
X17745195Y-5223173D01*
X17942508Y-5064297D01*
X18062938Y-4846487D01*
X18103081Y-4589385D01*
X19223741Y-4589385D01*
X19210454Y-4840889D01*
X19170593Y-5076068D01*
X19104158Y-5294923D01*
X19011150Y-5497453D01*
X18891567Y-5683659D01*
X18745411Y-5853539D01*
X18578755Y-6001784D01*
X18395396Y-6123075D01*
X18195333Y-6217413D01*
X17978568Y-6284797D01*
X17745098Y-6325227D01*
X17494926Y-6338704D01*
X17251775Y-6325417D01*
X17023430Y-6285556D01*
X16809890Y-6219122D01*
X16611155Y-6126113D01*
X16427226Y-6006531D01*
X16258101Y-5860374D01*
X16109857Y-5693339D01*
X15988566Y-5511118D01*
X15894228Y-5313712D01*
X15826844Y-5101121D01*
X15786414Y-4873346D01*
X15772937Y-4630385D01*
X15785844Y-4374517D01*
X15824567Y-4135353D01*
X15889104Y-3912893D01*
X15979457Y-3707136D01*
X16095624Y-3518084D01*
X16237606Y-3345735D01*
X16401604Y-3194358D01*
X16583824Y-3070503D01*
X16784266Y-2974172D01*
X17002931Y-2905364D01*
X17239817Y-2864079D01*
X17494926Y-2850318D01*
X17744149Y-2863795D01*
X17977049Y-2904225D01*
X18193625Y-2971609D01*
X18393877Y-3065947D01*
X18577806Y-3187238D01*
X18745411Y-3335483D01*
X18891567Y-3504132D01*
X19011150Y-3688915D01*
X19104158Y-3889832D01*
X19170593Y-4106882D01*
X19210454Y-4340067D01*
X19223741Y-4589385D01*
X19223741Y-4589385D01*
G37*
X19223741Y-4589385D02*
X18103081Y-4589385D01*
X18061229Y-4335701D01*
X17935673Y-4114473D01*
X17743487Y-3958160D01*
X17501761Y-3906055D01*
X17255759Y-3959014D01*
X17057596Y-4117890D01*
X16934596Y-4334846D01*
X16893596Y-4589385D01*
X16934596Y-4846487D01*
X17057596Y-5064297D01*
X17255759Y-5223173D01*
X17501761Y-5276132D01*
X17745195Y-5223173D01*
X17942508Y-5064297D01*
X18062938Y-4846487D01*
X18103081Y-4589385D01*
X19223741Y-4589385D01*
X19210454Y-4840889D01*
X19170593Y-5076068D01*
X19104158Y-5294923D01*
X19011150Y-5497453D01*
X18891567Y-5683659D01*
X18745411Y-5853539D01*
X18578755Y-6001784D01*
X18395396Y-6123075D01*
X18195333Y-6217413D01*
X17978568Y-6284797D01*
X17745098Y-6325227D01*
X17494926Y-6338704D01*
X17251775Y-6325417D01*
X17023430Y-6285556D01*
X16809890Y-6219122D01*
X16611155Y-6126113D01*
X16427226Y-6006531D01*
X16258101Y-5860374D01*
X16109857Y-5693339D01*
X15988566Y-5511118D01*
X15894228Y-5313712D01*
X15826844Y-5101121D01*
X15786414Y-4873346D01*
X15772937Y-4630385D01*
X15785844Y-4374517D01*
X15824567Y-4135353D01*
X15889104Y-3912893D01*
X15979457Y-3707136D01*
X16095624Y-3518084D01*
X16237606Y-3345735D01*
X16401604Y-3194358D01*
X16583824Y-3070503D01*
X16784266Y-2974172D01*
X17002931Y-2905364D01*
X17239817Y-2864079D01*
X17494926Y-2850318D01*
X17744149Y-2863795D01*
X17977049Y-2904225D01*
X18193625Y-2971609D01*
X18393877Y-3065947D01*
X18577806Y-3187238D01*
X18745411Y-3335483D01*
X18891567Y-3504132D01*
X19011150Y-3688915D01*
X19104158Y-3889832D01*
X19170593Y-4106882D01*
X19210454Y-4340067D01*
X19223741Y-4589385D01*
G36*
X22770214Y-4415142D02*
X21574419Y-4206744D01*
X21536836Y-4007722D01*
X21424088Y-3834327D01*
X21259232Y-3713890D01*
X21065341Y-3673744D01*
X20868883Y-3719016D01*
X20710011Y-3854832D01*
X20612635Y-4036768D01*
X20580176Y-4247744D01*
X20675865Y-4339968D01*
X20875546Y-4331239D01*
X21137488Y-4305055D01*
X21461690Y-4261414D01*
X21574438Y-4206734D01*
X21574419Y-4206744D01*
X22770214Y-4415142D01*
X22745538Y-4612167D01*
X22671509Y-4743138D01*
X22548127Y-4808055D01*
X22452858Y-4819403D01*
X22217111Y-4844465D01*
X21840885Y-4883239D01*
X21663766Y-4901677D01*
X21454940Y-4921487D01*
X21214408Y-4942669D01*
X20942170Y-4965224D01*
X20638225Y-4989151D01*
X20734752Y-5184753D01*
X20928642Y-5327404D01*
X21140475Y-5399170D01*
X21379642Y-5423093D01*
X21582740Y-5404870D01*
X21786598Y-5350204D01*
X21991215Y-5259093D01*
X22121050Y-5177083D01*
X22250884Y-5095093D01*
X22346535Y-5199306D01*
X22490049Y-5443597D01*
X22618168Y-5700699D01*
X22660874Y-5843345D01*
X22609661Y-5921898D01*
X22457903Y-6058657D01*
X22280522Y-6170550D01*
X22077515Y-6257578D01*
X21848884Y-6319741D01*
X21594629Y-6357038D01*
X21314749Y-6369471D01*
X21052429Y-6356279D01*
X20807571Y-6316703D01*
X20580176Y-6250743D01*
X20370244Y-6158399D01*
X20177775Y-6039671D01*
X20002769Y-5894559D01*
X19846170Y-5724960D01*
X19718044Y-5537330D01*
X19618391Y-5331668D01*
X19547209Y-5107974D01*
X19504501Y-4866249D01*
X19490264Y-4606491D01*
X19502982Y-4352427D01*
X19541135Y-4114116D01*
X19604723Y-3891560D01*
X19693747Y-3684757D01*
X19808205Y-3493709D01*
X19948099Y-3318415D01*
X20113806Y-3159730D01*
X20296595Y-3029898D01*
X20496468Y-2928917D01*
X20713423Y-2856788D01*
X20947462Y-2813511D01*
X21198584Y-2799085D01*
X21453057Y-2818218D01*
X21691676Y-2875618D01*
X21914440Y-2971284D01*
X22121351Y-3105216D01*
X22312408Y-3277415D01*
X22477229Y-3475990D01*
X22605423Y-3689052D01*
X22696990Y-3916602D01*
X22751930Y-4158638D01*
X22770243Y-4415161D01*
X22770214Y-4415142D01*
X22770214Y-4415142D01*
G37*
X22770214Y-4415142D02*
X21574419Y-4206744D01*
X21536836Y-4007722D01*
X21424088Y-3834327D01*
X21259232Y-3713890D01*
X21065341Y-3673744D01*
X20868883Y-3719016D01*
X20710011Y-3854832D01*
X20612635Y-4036768D01*
X20580176Y-4247744D01*
X20675865Y-4339968D01*
X20875546Y-4331239D01*
X21137488Y-4305055D01*
X21461690Y-4261414D01*
X21574438Y-4206734D01*
X21574419Y-4206744D01*
X22770214Y-4415142D01*
X22745538Y-4612167D01*
X22671509Y-4743138D01*
X22548127Y-4808055D01*
X22452858Y-4819403D01*
X22217111Y-4844465D01*
X21840885Y-4883239D01*
X21663766Y-4901677D01*
X21454940Y-4921487D01*
X21214408Y-4942669D01*
X20942170Y-4965224D01*
X20638225Y-4989151D01*
X20734752Y-5184753D01*
X20928642Y-5327404D01*
X21140475Y-5399170D01*
X21379642Y-5423093D01*
X21582740Y-5404870D01*
X21786598Y-5350204D01*
X21991215Y-5259093D01*
X22121050Y-5177083D01*
X22250884Y-5095093D01*
X22346535Y-5199306D01*
X22490049Y-5443597D01*
X22618168Y-5700699D01*
X22660874Y-5843345D01*
X22609661Y-5921898D01*
X22457903Y-6058657D01*
X22280522Y-6170550D01*
X22077515Y-6257578D01*
X21848884Y-6319741D01*
X21594629Y-6357038D01*
X21314749Y-6369471D01*
X21052429Y-6356279D01*
X20807571Y-6316703D01*
X20580176Y-6250743D01*
X20370244Y-6158399D01*
X20177775Y-6039671D01*
X20002769Y-5894559D01*
X19846170Y-5724960D01*
X19718044Y-5537330D01*
X19618391Y-5331668D01*
X19547209Y-5107974D01*
X19504501Y-4866249D01*
X19490264Y-4606491D01*
X19502982Y-4352427D01*
X19541135Y-4114116D01*
X19604723Y-3891560D01*
X19693747Y-3684757D01*
X19808205Y-3493709D01*
X19948099Y-3318415D01*
X20113806Y-3159730D01*
X20296595Y-3029898D01*
X20496468Y-2928917D01*
X20713423Y-2856788D01*
X20947462Y-2813511D01*
X21198584Y-2799085D01*
X21453057Y-2818218D01*
X21691676Y-2875618D01*
X21914440Y-2971284D01*
X22121351Y-3105216D01*
X22312408Y-3277415D01*
X22477229Y-3475990D01*
X22605423Y-3689052D01*
X22696990Y-3916602D01*
X22751930Y-4158638D01*
X22770243Y-4415161D01*
X22770214Y-4415142D01*
G36*
X24396534Y-4213560D02*
X24396721Y-4512419D01*
X24397282Y-4787173D01*
X24398218Y-5037821D01*
X24399529Y-5264364D01*
X24401213Y-5466801D01*
X24403272Y-5645132D01*
X24413477Y-5915044D01*
X24423681Y-6184957D01*
X24338292Y-6270345D01*
X24123045Y-6290850D01*
X23784797Y-6297685D01*
X23449111Y-6290850D01*
X23262050Y-6270345D01*
X23176662Y-6178122D01*
X23176662Y-6031209D01*
X23177083Y-5860375D01*
X23178346Y-5651959D01*
X23180452Y-5405963D01*
X23183400Y-5122385D01*
X23186349Y-4837521D01*
X23188454Y-4591096D01*
X23189718Y-4383109D01*
X23190139Y-4213560D01*
X23190246Y-3778602D01*
X23190567Y-3430390D01*
X23191102Y-3168922D01*
X23191850Y-2994199D01*
X23192813Y-2906221D01*
X23193990Y-2904988D01*
X23187309Y-2611294D01*
X23175429Y-2334273D01*
X23158352Y-2073925D01*
X23136076Y-1830251D01*
X23108601Y-1603251D01*
X23101862Y-1545202D01*
X23190717Y-1470018D01*
X24410454Y-1470018D01*
X24489007Y-1541736D01*
X24485157Y-1603251D01*
X24468274Y-1895030D01*
X24453169Y-2179977D01*
X24439841Y-2458090D01*
X24428290Y-2729370D01*
X24418516Y-2993818D01*
X24410519Y-3251432D01*
X24404299Y-3502214D01*
X24399857Y-3746162D01*
X24397191Y-3983277D01*
X24396303Y-4213560D01*
X24396534Y-4213560D01*
X24396534Y-4213560D01*
G37*
X24396534Y-4213560D02*
X24396721Y-4512419D01*
X24397282Y-4787173D01*
X24398218Y-5037821D01*
X24399529Y-5264364D01*
X24401213Y-5466801D01*
X24403272Y-5645132D01*
X24413477Y-5915044D01*
X24423681Y-6184957D01*
X24338292Y-6270345D01*
X24123045Y-6290850D01*
X23784797Y-6297685D01*
X23449111Y-6290850D01*
X23262050Y-6270345D01*
X23176662Y-6178122D01*
X23176662Y-6031209D01*
X23177083Y-5860375D01*
X23178346Y-5651959D01*
X23180452Y-5405963D01*
X23183400Y-5122385D01*
X23186349Y-4837521D01*
X23188454Y-4591096D01*
X23189718Y-4383109D01*
X23190139Y-4213560D01*
X23190246Y-3778602D01*
X23190567Y-3430390D01*
X23191102Y-3168922D01*
X23191850Y-2994199D01*
X23192813Y-2906221D01*
X23193990Y-2904988D01*
X23187309Y-2611294D01*
X23175429Y-2334273D01*
X23158352Y-2073925D01*
X23136076Y-1830251D01*
X23108601Y-1603251D01*
X23101862Y-1545202D01*
X23190717Y-1470018D01*
X24410454Y-1470018D01*
X24489007Y-1541736D01*
X24485157Y-1603251D01*
X24468274Y-1895030D01*
X24453169Y-2179977D01*
X24439841Y-2458090D01*
X24428290Y-2729370D01*
X24418516Y-2993818D01*
X24410519Y-3251432D01*
X24404299Y-3502214D01*
X24399857Y-3746162D01*
X24397191Y-3983277D01*
X24396303Y-4213560D01*
X24396534Y-4213560D01*
G36*
X28154832Y-4415142D02*
X26959046Y-4206744D01*
X26921464Y-4007722D01*
X26808716Y-3834327D01*
X26643865Y-3713890D01*
X26449969Y-3673744D01*
X26253510Y-3719016D01*
X26094639Y-3854832D01*
X25997263Y-4036768D01*
X25964804Y-4247744D01*
X26060493Y-4339968D01*
X26260174Y-4331239D01*
X26522116Y-4305055D01*
X26846318Y-4261414D01*
X26959066Y-4206734D01*
X26959046Y-4206744D01*
X28154832Y-4415142D01*
X28130156Y-4612167D01*
X28056127Y-4743138D01*
X27932745Y-4808055D01*
X27837477Y-4819403D01*
X27601729Y-4844465D01*
X27225503Y-4883239D01*
X27048384Y-4901677D01*
X26839560Y-4921487D01*
X26599030Y-4942669D01*
X26326794Y-4965224D01*
X26022853Y-4989151D01*
X26119377Y-5184753D01*
X26313261Y-5327404D01*
X26525093Y-5399170D01*
X26764260Y-5423093D01*
X26967358Y-5404870D01*
X27171216Y-5350204D01*
X27375833Y-5259093D01*
X27505668Y-5177083D01*
X27635503Y-5095093D01*
X27731153Y-5199306D01*
X27874668Y-5443597D01*
X28002794Y-5700699D01*
X28045502Y-5843345D01*
X27994289Y-5921898D01*
X27842532Y-6058657D01*
X27665151Y-6170550D01*
X27462146Y-6257578D01*
X27233517Y-6319741D01*
X26979263Y-6357038D01*
X26699386Y-6369471D01*
X26437063Y-6356279D01*
X26192203Y-6316703D01*
X25964807Y-6250743D01*
X25754873Y-6158399D01*
X25562403Y-6039671D01*
X25387397Y-5894559D01*
X25230801Y-5724960D01*
X25102677Y-5537330D01*
X25003026Y-5331668D01*
X24931846Y-5107974D01*
X24889138Y-4866249D01*
X24874902Y-4606491D01*
X24887619Y-4352427D01*
X24925771Y-4114116D01*
X24989358Y-3891560D01*
X25078380Y-3684757D01*
X25192836Y-3493709D01*
X25332727Y-3318415D01*
X25498433Y-3159730D01*
X25681223Y-3029898D01*
X25881096Y-2928917D01*
X26098051Y-2856788D01*
X26332090Y-2813511D01*
X26583212Y-2799085D01*
X26837685Y-2818218D01*
X27076303Y-2875618D01*
X27299068Y-2971284D01*
X27505979Y-3105216D01*
X27697036Y-3277415D01*
X27861857Y-3475990D01*
X27990050Y-3689052D01*
X28081617Y-3916602D01*
X28136558Y-4158638D01*
X28154871Y-4415161D01*
X28154832Y-4415142D01*
X28154832Y-4415142D01*
G37*
X28154832Y-4415142D02*
X26959046Y-4206744D01*
X26921464Y-4007722D01*
X26808716Y-3834327D01*
X26643865Y-3713890D01*
X26449969Y-3673744D01*
X26253510Y-3719016D01*
X26094639Y-3854832D01*
X25997263Y-4036768D01*
X25964804Y-4247744D01*
X26060493Y-4339968D01*
X26260174Y-4331239D01*
X26522116Y-4305055D01*
X26846318Y-4261414D01*
X26959066Y-4206734D01*
X26959046Y-4206744D01*
X28154832Y-4415142D01*
X28130156Y-4612167D01*
X28056127Y-4743138D01*
X27932745Y-4808055D01*
X27837477Y-4819403D01*
X27601729Y-4844465D01*
X27225503Y-4883239D01*
X27048384Y-4901677D01*
X26839560Y-4921487D01*
X26599030Y-4942669D01*
X26326794Y-4965224D01*
X26022853Y-4989151D01*
X26119377Y-5184753D01*
X26313261Y-5327404D01*
X26525093Y-5399170D01*
X26764260Y-5423093D01*
X26967358Y-5404870D01*
X27171216Y-5350204D01*
X27375833Y-5259093D01*
X27505668Y-5177083D01*
X27635503Y-5095093D01*
X27731153Y-5199306D01*
X27874668Y-5443597D01*
X28002794Y-5700699D01*
X28045502Y-5843345D01*
X27994289Y-5921898D01*
X27842532Y-6058657D01*
X27665151Y-6170550D01*
X27462146Y-6257578D01*
X27233517Y-6319741D01*
X26979263Y-6357038D01*
X26699386Y-6369471D01*
X26437063Y-6356279D01*
X26192203Y-6316703D01*
X25964807Y-6250743D01*
X25754873Y-6158399D01*
X25562403Y-6039671D01*
X25387397Y-5894559D01*
X25230801Y-5724960D01*
X25102677Y-5537330D01*
X25003026Y-5331668D01*
X24931846Y-5107974D01*
X24889138Y-4866249D01*
X24874902Y-4606491D01*
X24887619Y-4352427D01*
X24925771Y-4114116D01*
X24989358Y-3891560D01*
X25078380Y-3684757D01*
X25192836Y-3493709D01*
X25332727Y-3318415D01*
X25498433Y-3159730D01*
X25681223Y-3029898D01*
X25881096Y-2928917D01*
X26098051Y-2856788D01*
X26332090Y-2813511D01*
X26583212Y-2799085D01*
X26837685Y-2818218D01*
X27076303Y-2875618D01*
X27299068Y-2971284D01*
X27505979Y-3105216D01*
X27697036Y-3277415D01*
X27861857Y-3475990D01*
X27990050Y-3689052D01*
X28081617Y-3916602D01*
X28136558Y-4158638D01*
X28154871Y-4415161D01*
X28154832Y-4415142D01*
G36*
X30799307Y-4022230D02*
X30590889Y-3967550D01*
X30408098Y-3926541D01*
X30262890Y-3912871D01*
X29989562Y-3958997D01*
X29777734Y-4097376D01*
X29641919Y-4309203D01*
X29596647Y-4582531D01*
X29618665Y-4777279D01*
X29684720Y-4942418D01*
X29794812Y-5077948D01*
X29940209Y-5176648D01*
X30112180Y-5235868D01*
X30310724Y-5255608D01*
X30470452Y-5236812D01*
X30648977Y-5180424D01*
X30826637Y-5101870D01*
X30893244Y-5210348D01*
X30976967Y-5535782D01*
X31035882Y-5865489D01*
X31055520Y-6061947D01*
X30949605Y-6182384D01*
X30631860Y-6284025D01*
X30335465Y-6337814D01*
X30102278Y-6355743D01*
X29859033Y-6341697D01*
X29630404Y-6299558D01*
X29416390Y-6229326D01*
X29216993Y-6131001D01*
X29032211Y-6004584D01*
X28862046Y-5850074D01*
X28712757Y-5674592D01*
X28590611Y-5485254D01*
X28495609Y-5282060D01*
X28427751Y-5065009D01*
X28387035Y-4834101D01*
X28373464Y-4589337D01*
X28387035Y-4346566D01*
X28427751Y-4117082D01*
X28495609Y-3900886D01*
X28590611Y-3697976D01*
X28712757Y-3508353D01*
X28862046Y-3332017D01*
X29033161Y-3175421D01*
X29218512Y-3047298D01*
X29418099Y-2947646D01*
X29631922Y-2876466D01*
X29859982Y-2833758D01*
X30102278Y-2819522D01*
X30349134Y-2833188D01*
X30580613Y-2874187D01*
X30796716Y-2942518D01*
X30997443Y-3038182D01*
X31086297Y-3130406D01*
X31060671Y-3253386D01*
X30983792Y-3533571D01*
X30904343Y-3810316D01*
X30857375Y-3950396D01*
X30799326Y-4022114D01*
X30799307Y-4022230D01*
X30799307Y-4022230D01*
G37*
X30799307Y-4022230D02*
X30590889Y-3967550D01*
X30408098Y-3926541D01*
X30262890Y-3912871D01*
X29989562Y-3958997D01*
X29777734Y-4097376D01*
X29641919Y-4309203D01*
X29596647Y-4582531D01*
X29618665Y-4777279D01*
X29684720Y-4942418D01*
X29794812Y-5077948D01*
X29940209Y-5176648D01*
X30112180Y-5235868D01*
X30310724Y-5255608D01*
X30470452Y-5236812D01*
X30648977Y-5180424D01*
X30826637Y-5101870D01*
X30893244Y-5210348D01*
X30976967Y-5535782D01*
X31035882Y-5865489D01*
X31055520Y-6061947D01*
X30949605Y-6182384D01*
X30631860Y-6284025D01*
X30335465Y-6337814D01*
X30102278Y-6355743D01*
X29859033Y-6341697D01*
X29630404Y-6299558D01*
X29416390Y-6229326D01*
X29216993Y-6131001D01*
X29032211Y-6004584D01*
X28862046Y-5850074D01*
X28712757Y-5674592D01*
X28590611Y-5485254D01*
X28495609Y-5282060D01*
X28427751Y-5065009D01*
X28387035Y-4834101D01*
X28373464Y-4589337D01*
X28387035Y-4346566D01*
X28427751Y-4117082D01*
X28495609Y-3900886D01*
X28590611Y-3697976D01*
X28712757Y-3508353D01*
X28862046Y-3332017D01*
X29033161Y-3175421D01*
X29218512Y-3047298D01*
X29418099Y-2947646D01*
X29631922Y-2876466D01*
X29859982Y-2833758D01*
X30102278Y-2819522D01*
X30349134Y-2833188D01*
X30580613Y-2874187D01*
X30796716Y-2942518D01*
X30997443Y-3038182D01*
X31086297Y-3130406D01*
X31060671Y-3253386D01*
X30983792Y-3533571D01*
X30904343Y-3810316D01*
X30857375Y-3950396D01*
X30799326Y-4022114D01*
X30799307Y-4022230D01*
G36*
X33734198Y-5269297D02*
X33727363Y-5398273D01*
X33706858Y-5580210D01*
X33688881Y-5761292D01*
X33682888Y-5887705D01*
X33662383Y-6010704D01*
X33549636Y-6089258D01*
X33323283Y-6195388D01*
X33084971Y-6271195D01*
X32834700Y-6316679D01*
X32572471Y-6331840D01*
X32310506Y-6316431D01*
X32088843Y-6270201D01*
X31907483Y-6193153D01*
X31766425Y-6085285D01*
X31665669Y-5946597D01*
X31605215Y-5777090D01*
X31585064Y-5576763D01*
X31586957Y-5401377D01*
X31592637Y-5175879D01*
X31602103Y-4900268D01*
X31611569Y-4622765D01*
X31617249Y-4396131D01*
X31619142Y-4220366D01*
X31575582Y-4107611D01*
X31444900Y-4070026D01*
X31400521Y-4070026D01*
X31356142Y-4073877D01*
X31226307Y-3981653D01*
X31233046Y-3814236D01*
X31243250Y-3646819D01*
X31233046Y-3428159D01*
X31226307Y-3209489D01*
X31280974Y-3156518D01*
X31444977Y-3134305D01*
X31578219Y-3065955D01*
X31591889Y-2898538D01*
X31591889Y-2655955D01*
X31581637Y-2330521D01*
X31578219Y-2235713D01*
X31597016Y-1938466D01*
X31653404Y-1839383D01*
X31916491Y-1880393D01*
X32186403Y-1931607D01*
X32405071Y-1959813D01*
X32712568Y-1996490D01*
X32797957Y-2054539D01*
X32791964Y-2226228D01*
X32773986Y-2467956D01*
X32758608Y-2710536D01*
X32753481Y-2884781D01*
X32852559Y-3052199D01*
X33002892Y-3049648D01*
X33214724Y-3041994D01*
X33427411Y-3034341D01*
X33580306Y-3031790D01*
X33655491Y-3083004D01*
X33638355Y-3318751D01*
X33621316Y-3554499D01*
X33625167Y-3793664D01*
X33629017Y-4032829D01*
X33529930Y-4104547D01*
X33301017Y-4100697D01*
X33072105Y-4093958D01*
X32815853Y-4093958D01*
X32764639Y-4244288D01*
X32764639Y-4486870D01*
X32768489Y-4729453D01*
X32784710Y-4972030D01*
X32833373Y-5125783D01*
X32970026Y-5235967D01*
X33195538Y-5272695D01*
X33438111Y-5235151D01*
X33663615Y-5194142D01*
X33735334Y-5269326D01*
X33734198Y-5269297D01*
X33734198Y-5269297D01*
G37*
X33734198Y-5269297D02*
X33727363Y-5398273D01*
X33706858Y-5580210D01*
X33688881Y-5761292D01*
X33682888Y-5887705D01*
X33662383Y-6010704D01*
X33549636Y-6089258D01*
X33323283Y-6195388D01*
X33084971Y-6271195D01*
X32834700Y-6316679D01*
X32572471Y-6331840D01*
X32310506Y-6316431D01*
X32088843Y-6270201D01*
X31907483Y-6193153D01*
X31766425Y-6085285D01*
X31665669Y-5946597D01*
X31605215Y-5777090D01*
X31585064Y-5576763D01*
X31586957Y-5401377D01*
X31592637Y-5175879D01*
X31602103Y-4900268D01*
X31611569Y-4622765D01*
X31617249Y-4396131D01*
X31619142Y-4220366D01*
X31575582Y-4107611D01*
X31444900Y-4070026D01*
X31400521Y-4070026D01*
X31356142Y-4073877D01*
X31226307Y-3981653D01*
X31233046Y-3814236D01*
X31243250Y-3646819D01*
X31233046Y-3428159D01*
X31226307Y-3209489D01*
X31280974Y-3156518D01*
X31444977Y-3134305D01*
X31578219Y-3065955D01*
X31591889Y-2898538D01*
X31591889Y-2655955D01*
X31581637Y-2330521D01*
X31578219Y-2235713D01*
X31597016Y-1938466D01*
X31653404Y-1839383D01*
X31916491Y-1880393D01*
X32186403Y-1931607D01*
X32405071Y-1959813D01*
X32712568Y-1996490D01*
X32797957Y-2054539D01*
X32791964Y-2226228D01*
X32773986Y-2467956D01*
X32758608Y-2710536D01*
X32753481Y-2884781D01*
X32852559Y-3052199D01*
X33002892Y-3049648D01*
X33214724Y-3041994D01*
X33427411Y-3034341D01*
X33580306Y-3031790D01*
X33655491Y-3083004D01*
X33638355Y-3318751D01*
X33621316Y-3554499D01*
X33625167Y-3793664D01*
X33629017Y-4032829D01*
X33529930Y-4104547D01*
X33301017Y-4100697D01*
X33072105Y-4093958D01*
X32815853Y-4093958D01*
X32764639Y-4244288D01*
X32764639Y-4486870D01*
X32768489Y-4729453D01*
X32784710Y-4972030D01*
X32833373Y-5125783D01*
X32970026Y-5235967D01*
X33195538Y-5272695D01*
X33438111Y-5235151D01*
X33663615Y-5194142D01*
X33735334Y-5269326D01*
X33734198Y-5269297D01*
G36*
X36365002Y-4141803D02*
X36218090Y-4275055D01*
X36026760Y-4268316D01*
X35842265Y-4258112D01*
X35603952Y-4280326D01*
X35456178Y-4346966D01*
X35379306Y-4481080D01*
X35353683Y-4705713D01*
X35354645Y-4891070D01*
X35357533Y-5153296D01*
X35362587Y-5412958D01*
X35364272Y-5597461D01*
X35367689Y-5721310D01*
X35377942Y-5894703D01*
X35388194Y-6064681D01*
X35391612Y-6185120D01*
X35278864Y-6277344D01*
X35071301Y-6287596D01*
X34776612Y-6291014D01*
X34484496Y-6285888D01*
X34257292Y-6270509D01*
X34144535Y-6157761D01*
X34144963Y-5945550D01*
X34146246Y-5673356D01*
X34148385Y-5341179D01*
X34150525Y-5007109D01*
X34151808Y-4733780D01*
X34152236Y-4521190D01*
X34146360Y-4211368D01*
X34128730Y-3924233D01*
X34099348Y-3659785D01*
X34058212Y-3418023D01*
X34005324Y-3198948D01*
X33998585Y-3147734D01*
X34049799Y-3079384D01*
X34281274Y-3050336D01*
X34599876Y-3004200D01*
X34901677Y-2945360D01*
X35087315Y-2910056D01*
X35156788Y-2898288D01*
X35235342Y-3113530D01*
X35296856Y-3328782D01*
X35342975Y-3284367D01*
X35577021Y-3151122D01*
X35793030Y-3050518D01*
X36003722Y-2990156D01*
X36209099Y-2970035D01*
X36400438Y-3052054D01*
X36379933Y-3332219D01*
X36356059Y-3612384D01*
X36359910Y-3875462D01*
X36366649Y-4141957D01*
X36365002Y-4141803D01*
X36365002Y-4141803D01*
G37*
X36365002Y-4141803D02*
X36218090Y-4275055D01*
X36026760Y-4268316D01*
X35842265Y-4258112D01*
X35603952Y-4280326D01*
X35456178Y-4346966D01*
X35379306Y-4481080D01*
X35353683Y-4705713D01*
X35354645Y-4891070D01*
X35357533Y-5153296D01*
X35362587Y-5412958D01*
X35364272Y-5597461D01*
X35367689Y-5721310D01*
X35377942Y-5894703D01*
X35388194Y-6064681D01*
X35391612Y-6185120D01*
X35278864Y-6277344D01*
X35071301Y-6287596D01*
X34776612Y-6291014D01*
X34484496Y-6285888D01*
X34257292Y-6270509D01*
X34144535Y-6157761D01*
X34144963Y-5945550D01*
X34146246Y-5673356D01*
X34148385Y-5341179D01*
X34150525Y-5007109D01*
X34151808Y-4733780D01*
X34152236Y-4521190D01*
X34146360Y-4211368D01*
X34128730Y-3924233D01*
X34099348Y-3659785D01*
X34058212Y-3418023D01*
X34005324Y-3198948D01*
X33998585Y-3147734D01*
X34049799Y-3079384D01*
X34281274Y-3050336D01*
X34599876Y-3004200D01*
X34901677Y-2945360D01*
X35087315Y-2910056D01*
X35156788Y-2898288D01*
X35235342Y-3113530D01*
X35296856Y-3328782D01*
X35342975Y-3284367D01*
X35577021Y-3151122D01*
X35793030Y-3050518D01*
X36003722Y-2990156D01*
X36209099Y-2970035D01*
X36400438Y-3052054D01*
X36379933Y-3332219D01*
X36356059Y-3612384D01*
X36359910Y-3875462D01*
X36366649Y-4141957D01*
X36365002Y-4141803D01*
G36*
X40051554Y-4589385D02*
X38930894Y-4589385D01*
X38889042Y-4335701D01*
X38763486Y-4114473D01*
X38571300Y-3958160D01*
X38329574Y-3906055D01*
X38083572Y-3959014D01*
X37885409Y-4117890D01*
X37762409Y-4334846D01*
X37721409Y-4589385D01*
X37762409Y-4846487D01*
X37885409Y-5064297D01*
X38083572Y-5223173D01*
X38329574Y-5276132D01*
X38573008Y-5223173D01*
X38770321Y-5064297D01*
X38890751Y-4846487D01*
X38930894Y-4589385D01*
X40051554Y-4589385D01*
X40038267Y-4840889D01*
X39998406Y-5076068D01*
X39931971Y-5294923D01*
X39838963Y-5497453D01*
X39719380Y-5683659D01*
X39573224Y-5853539D01*
X39406568Y-6001784D01*
X39223209Y-6123075D01*
X39023147Y-6217413D01*
X38806381Y-6284797D01*
X38572912Y-6325227D01*
X38322739Y-6338704D01*
X38079589Y-6325417D01*
X37851243Y-6285556D01*
X37637703Y-6219122D01*
X37438968Y-6126113D01*
X37255039Y-6006531D01*
X37085915Y-5860374D01*
X36937670Y-5693339D01*
X36816379Y-5511118D01*
X36722041Y-5313712D01*
X36654657Y-5101121D01*
X36614227Y-4873346D01*
X36600750Y-4630385D01*
X36613657Y-4374517D01*
X36652380Y-4135353D01*
X36716917Y-3912893D01*
X36807270Y-3707136D01*
X36923437Y-3518084D01*
X37065419Y-3345735D01*
X37229417Y-3194358D01*
X37411637Y-3070503D01*
X37612079Y-2974172D01*
X37830744Y-2905364D01*
X38067630Y-2864079D01*
X38322739Y-2850318D01*
X38571962Y-2863795D01*
X38804862Y-2904225D01*
X39021438Y-2971609D01*
X39221690Y-3065947D01*
X39405619Y-3187238D01*
X39573224Y-3335483D01*
X39719380Y-3504132D01*
X39838963Y-3688915D01*
X39931971Y-3889832D01*
X39998406Y-4106882D01*
X40038267Y-4340067D01*
X40051554Y-4589385D01*
X40051554Y-4589385D01*
G37*
X40051554Y-4589385D02*
X38930894Y-4589385D01*
X38889042Y-4335701D01*
X38763486Y-4114473D01*
X38571300Y-3958160D01*
X38329574Y-3906055D01*
X38083572Y-3959014D01*
X37885409Y-4117890D01*
X37762409Y-4334846D01*
X37721409Y-4589385D01*
X37762409Y-4846487D01*
X37885409Y-5064297D01*
X38083572Y-5223173D01*
X38329574Y-5276132D01*
X38573008Y-5223173D01*
X38770321Y-5064297D01*
X38890751Y-4846487D01*
X38930894Y-4589385D01*
X40051554Y-4589385D01*
X40038267Y-4840889D01*
X39998406Y-5076068D01*
X39931971Y-5294923D01*
X39838963Y-5497453D01*
X39719380Y-5683659D01*
X39573224Y-5853539D01*
X39406568Y-6001784D01*
X39223209Y-6123075D01*
X39023147Y-6217413D01*
X38806381Y-6284797D01*
X38572912Y-6325227D01*
X38322739Y-6338704D01*
X38079589Y-6325417D01*
X37851243Y-6285556D01*
X37637703Y-6219122D01*
X37438968Y-6126113D01*
X37255039Y-6006531D01*
X37085915Y-5860374D01*
X36937670Y-5693339D01*
X36816379Y-5511118D01*
X36722041Y-5313712D01*
X36654657Y-5101121D01*
X36614227Y-4873346D01*
X36600750Y-4630385D01*
X36613657Y-4374517D01*
X36652380Y-4135353D01*
X36716917Y-3912893D01*
X36807270Y-3707136D01*
X36923437Y-3518084D01*
X37065419Y-3345735D01*
X37229417Y-3194358D01*
X37411637Y-3070503D01*
X37612079Y-2974172D01*
X37830744Y-2905364D01*
X38067630Y-2864079D01*
X38322739Y-2850318D01*
X38571962Y-2863795D01*
X38804862Y-2904225D01*
X39021438Y-2971609D01*
X39221690Y-3065947D01*
X39405619Y-3187238D01*
X39573224Y-3335483D01*
X39719380Y-3504132D01*
X39838963Y-3688915D01*
X39931971Y-3889832D01*
X39998406Y-4106882D01*
X40038267Y-4340067D01*
X40051554Y-4589385D01*
G36*
X43864522Y-6171287D02*
X43768833Y-6277209D01*
X43596280Y-6287461D01*
X43269999Y-6290879D01*
X42921504Y-6285753D01*
X42737009Y-6270374D01*
X42634504Y-6130287D01*
X42637079Y-5928707D01*
X42644804Y-5645132D01*
X42652458Y-5360695D01*
X42655009Y-5156550D01*
X42653324Y-4999382D01*
X42648270Y-4780715D01*
X42643216Y-4559492D01*
X42641531Y-4401472D01*
X42616120Y-4196688D01*
X42539886Y-4050414D01*
X42412829Y-3962650D01*
X42234949Y-3933395D01*
X42090600Y-3962436D01*
X41924037Y-4049560D01*
X41780539Y-4178538D01*
X41732707Y-4305803D01*
X41732707Y-6150792D01*
X41626794Y-6277209D01*
X41444857Y-6287461D01*
X41138212Y-6290879D01*
X40808506Y-6285753D01*
X40618882Y-6270374D01*
X40512969Y-6157627D01*
X40513397Y-5949968D01*
X40514681Y-5682330D01*
X40516820Y-5354714D01*
X40518959Y-5026715D01*
X40520243Y-4757938D01*
X40520671Y-4548385D01*
X40515341Y-4222713D01*
X40499350Y-3926287D01*
X40472700Y-3659106D01*
X40435389Y-3421172D01*
X40387419Y-3212483D01*
X40380680Y-3161269D01*
X40431894Y-3086085D01*
X40591334Y-3067120D01*
X40782664Y-3042059D01*
X41005884Y-3010900D01*
X41315283Y-2952060D01*
X41519143Y-2916756D01*
X41617466Y-2904988D01*
X41675515Y-3137318D01*
X41733563Y-3366230D01*
X41806187Y-3307293D01*
X42099146Y-3130483D01*
X42358807Y-2997613D01*
X42595693Y-2917892D01*
X42809806Y-2891318D01*
X43083135Y-2914096D01*
X43324575Y-2982429D01*
X43534126Y-3096318D01*
X43714449Y-3273982D01*
X43822643Y-3492645D01*
X43858708Y-3752308D01*
X43858708Y-4842220D01*
X43859136Y-5014948D01*
X43860419Y-5237028D01*
X43862559Y-5508462D01*
X43864698Y-5777997D01*
X43865981Y-5998939D01*
X43866409Y-6171287D01*
X43864522Y-6171287D01*
X43864522Y-6171287D01*
G37*
X43864522Y-6171287D02*
X43768833Y-6277209D01*
X43596280Y-6287461D01*
X43269999Y-6290879D01*
X42921504Y-6285753D01*
X42737009Y-6270374D01*
X42634504Y-6130287D01*
X42637079Y-5928707D01*
X42644804Y-5645132D01*
X42652458Y-5360695D01*
X42655009Y-5156550D01*
X42653324Y-4999382D01*
X42648270Y-4780715D01*
X42643216Y-4559492D01*
X42641531Y-4401472D01*
X42616120Y-4196688D01*
X42539886Y-4050414D01*
X42412829Y-3962650D01*
X42234949Y-3933395D01*
X42090600Y-3962436D01*
X41924037Y-4049560D01*
X41780539Y-4178538D01*
X41732707Y-4305803D01*
X41732707Y-6150792D01*
X41626794Y-6277209D01*
X41444857Y-6287461D01*
X41138212Y-6290879D01*
X40808506Y-6285753D01*
X40618882Y-6270374D01*
X40512969Y-6157627D01*
X40513397Y-5949968D01*
X40514681Y-5682330D01*
X40516820Y-5354714D01*
X40518959Y-5026715D01*
X40520243Y-4757938D01*
X40520671Y-4548385D01*
X40515341Y-4222713D01*
X40499350Y-3926287D01*
X40472700Y-3659106D01*
X40435389Y-3421172D01*
X40387419Y-3212483D01*
X40380680Y-3161269D01*
X40431894Y-3086085D01*
X40591334Y-3067120D01*
X40782664Y-3042059D01*
X41005884Y-3010900D01*
X41315283Y-2952060D01*
X41519143Y-2916756D01*
X41617466Y-2904988D01*
X41675515Y-3137318D01*
X41733563Y-3366230D01*
X41806187Y-3307293D01*
X42099146Y-3130483D01*
X42358807Y-2997613D01*
X42595693Y-2917892D01*
X42809806Y-2891318D01*
X43083135Y-2914096D01*
X43324575Y-2982429D01*
X43534126Y-3096318D01*
X43714449Y-3273982D01*
X43822643Y-3492645D01*
X43858708Y-3752308D01*
X43858708Y-4842220D01*
X43859136Y-5014948D01*
X43860419Y-5237028D01*
X43862559Y-5508462D01*
X43864698Y-5777997D01*
X43865981Y-5998939D01*
X43866409Y-6171287D01*
X43864522Y-6171287D01*
G36*
X45784677Y-2163571D02*
X45695832Y-3024589D01*
X45777851Y-3092939D01*
X45771113Y-3157823D01*
X45748140Y-3385790D01*
X45729344Y-3625526D01*
X45714724Y-3877028D01*
X45704282Y-4140299D01*
X45698017Y-4415337D01*
X45695928Y-4702142D01*
X45695822Y-4702132D01*
X45696956Y-4895744D01*
X45700358Y-5144022D01*
X45706027Y-5446967D01*
X45711696Y-5747628D01*
X45715097Y-5993625D01*
X45716231Y-6184957D01*
X45630842Y-6270345D01*
X45442073Y-6285724D01*
X45108095Y-6290850D01*
X44771554Y-6285724D01*
X44581930Y-6270345D01*
X44489707Y-6225966D01*
X44482968Y-6123462D01*
X44484102Y-5940102D01*
X44487504Y-5704355D01*
X44493173Y-5416219D01*
X44498842Y-5125805D01*
X44502243Y-4887779D01*
X44503377Y-4702142D01*
X44501288Y-4389711D01*
X44495023Y-4099298D01*
X44484581Y-3830902D01*
X44469962Y-3584525D01*
X44451166Y-3360165D01*
X44428193Y-3157823D01*
X44421454Y-3086104D01*
X44513677Y-3017755D01*
X44634126Y-3022881D01*
X44804095Y-3038259D01*
X44977488Y-3053638D01*
X45101337Y-3058764D01*
X45225194Y-3054480D01*
X45398589Y-3041629D01*
X45571983Y-3028849D01*
X45695832Y-3024589D01*
X45784677Y-2163571D01*
X45757890Y-2377589D01*
X45677531Y-2544047D01*
X45543599Y-2662946D01*
X45356094Y-2734286D01*
X45115017Y-2758066D01*
X44852789Y-2720483D01*
X44640104Y-2607736D01*
X44486354Y-2414694D01*
X44435105Y-2163571D01*
X44488061Y-1920991D01*
X44646930Y-1726241D01*
X44861330Y-1608367D01*
X45115017Y-1569076D01*
X45363575Y-1609222D01*
X45576259Y-1729658D01*
X45732572Y-1923554D01*
X45784677Y-2163571D01*
X45784677Y-2163571D01*
G37*
X45784677Y-2163571D02*
X45695832Y-3024589D01*
X45777851Y-3092939D01*
X45771113Y-3157823D01*
X45748140Y-3385790D01*
X45729344Y-3625526D01*
X45714724Y-3877028D01*
X45704282Y-4140299D01*
X45698017Y-4415337D01*
X45695928Y-4702142D01*
X45695822Y-4702132D01*
X45696956Y-4895744D01*
X45700358Y-5144022D01*
X45706027Y-5446967D01*
X45711696Y-5747628D01*
X45715097Y-5993625D01*
X45716231Y-6184957D01*
X45630842Y-6270345D01*
X45442073Y-6285724D01*
X45108095Y-6290850D01*
X44771554Y-6285724D01*
X44581930Y-6270345D01*
X44489707Y-6225966D01*
X44482968Y-6123462D01*
X44484102Y-5940102D01*
X44487504Y-5704355D01*
X44493173Y-5416219D01*
X44498842Y-5125805D01*
X44502243Y-4887779D01*
X44503377Y-4702142D01*
X44501288Y-4389711D01*
X44495023Y-4099298D01*
X44484581Y-3830902D01*
X44469962Y-3584525D01*
X44451166Y-3360165D01*
X44428193Y-3157823D01*
X44421454Y-3086104D01*
X44513677Y-3017755D01*
X44634126Y-3022881D01*
X44804095Y-3038259D01*
X44977488Y-3053638D01*
X45101337Y-3058764D01*
X45225194Y-3054480D01*
X45398589Y-3041629D01*
X45571983Y-3028849D01*
X45695832Y-3024589D01*
X45784677Y-2163571D01*
X45757890Y-2377589D01*
X45677531Y-2544047D01*
X45543599Y-2662946D01*
X45356094Y-2734286D01*
X45115017Y-2758066D01*
X44852789Y-2720483D01*
X44640104Y-2607736D01*
X44486354Y-2414694D01*
X44435105Y-2163571D01*
X44488061Y-1920991D01*
X44646930Y-1726241D01*
X44861330Y-1608367D01*
X45115017Y-1569076D01*
X45363575Y-1609222D01*
X45576259Y-1729658D01*
X45732572Y-1923554D01*
X45784677Y-2163571D01*
G36*
X48620481Y-4022230D02*
X48412063Y-3967550D01*
X48229275Y-3926541D01*
X48084073Y-3912871D01*
X47810739Y-3958997D01*
X47598909Y-4097376D01*
X47463093Y-4309203D01*
X47417821Y-4582531D01*
X47439840Y-4777279D01*
X47505895Y-4942418D01*
X47615986Y-5077948D01*
X47761383Y-5176648D01*
X47933354Y-5235868D01*
X48131899Y-5255608D01*
X48291631Y-5236812D01*
X48470151Y-5180424D01*
X48647811Y-5101870D01*
X48714420Y-5210348D01*
X48798151Y-5535782D01*
X48857066Y-5865489D01*
X48876704Y-6061947D01*
X48770787Y-6182384D01*
X48453035Y-6284025D01*
X48156646Y-6337814D01*
X47923462Y-6355743D01*
X47680216Y-6341697D01*
X47451586Y-6299558D01*
X47237572Y-6229326D01*
X47038172Y-6131001D01*
X46853388Y-6004584D01*
X46683220Y-5850074D01*
X46533931Y-5674592D01*
X46411785Y-5485254D01*
X46316783Y-5282060D01*
X46248925Y-5065009D01*
X46208210Y-4834101D01*
X46194638Y-4589337D01*
X46208210Y-4346566D01*
X46248925Y-4117082D01*
X46316783Y-3900886D01*
X46411785Y-3697976D01*
X46533931Y-3508353D01*
X46683220Y-3332017D01*
X46854338Y-3175421D01*
X47039691Y-3047298D01*
X47239280Y-2947646D01*
X47453105Y-2876466D01*
X47681166Y-2833758D01*
X47923462Y-2819522D01*
X48170313Y-2833188D01*
X48401789Y-2874187D01*
X48617891Y-2942518D01*
X48818617Y-3038182D01*
X48907471Y-3130406D01*
X48881845Y-3253386D01*
X48804966Y-3533571D01*
X48725520Y-3810316D01*
X48678558Y-3950396D01*
X48620510Y-4022114D01*
X48620481Y-4022230D01*
X48620481Y-4022230D01*
G37*
X48620481Y-4022230D02*
X48412063Y-3967550D01*
X48229275Y-3926541D01*
X48084073Y-3912871D01*
X47810739Y-3958997D01*
X47598909Y-4097376D01*
X47463093Y-4309203D01*
X47417821Y-4582531D01*
X47439840Y-4777279D01*
X47505895Y-4942418D01*
X47615986Y-5077948D01*
X47761383Y-5176648D01*
X47933354Y-5235868D01*
X48131899Y-5255608D01*
X48291631Y-5236812D01*
X48470151Y-5180424D01*
X48647811Y-5101870D01*
X48714420Y-5210348D01*
X48798151Y-5535782D01*
X48857066Y-5865489D01*
X48876704Y-6061947D01*
X48770787Y-6182384D01*
X48453035Y-6284025D01*
X48156646Y-6337814D01*
X47923462Y-6355743D01*
X47680216Y-6341697D01*
X47451586Y-6299558D01*
X47237572Y-6229326D01*
X47038172Y-6131001D01*
X46853388Y-6004584D01*
X46683220Y-5850074D01*
X46533931Y-5674592D01*
X46411785Y-5485254D01*
X46316783Y-5282060D01*
X46248925Y-5065009D01*
X46208210Y-4834101D01*
X46194638Y-4589337D01*
X46208210Y-4346566D01*
X46248925Y-4117082D01*
X46316783Y-3900886D01*
X46411785Y-3697976D01*
X46533931Y-3508353D01*
X46683220Y-3332017D01*
X46854338Y-3175421D01*
X47039691Y-3047298D01*
X47239280Y-2947646D01*
X47453105Y-2876466D01*
X47681166Y-2833758D01*
X47923462Y-2819522D01*
X48170313Y-2833188D01*
X48401789Y-2874187D01*
X48617891Y-2942518D01*
X48818617Y-3038182D01*
X48907471Y-3130406D01*
X48881845Y-3253386D01*
X48804966Y-3533571D01*
X48725520Y-3810316D01*
X48678558Y-3950396D01*
X48620510Y-4022114D01*
X48620481Y-4022230D01*
G36*
X51268372Y-3506317D02*
X51217159Y-3598541D01*
X51025819Y-3574667D01*
X50840467Y-3596880D01*
X50687576Y-3663521D01*
X50564576Y-3787370D01*
X50523577Y-3953929D01*
X50567140Y-4089742D01*
X50697829Y-4258016D01*
X50910511Y-4489491D01*
X51022401Y-4630423D01*
X51119208Y-4807711D01*
X51177292Y-4993349D01*
X51196654Y-5187336D01*
X51179566Y-5366712D01*
X51128304Y-5556335D01*
X51039486Y-5742539D01*
X50930140Y-5870665D01*
X50752093Y-6008848D01*
X50555067Y-6131847D01*
X50339062Y-6239665D01*
X50101795Y-6326979D01*
X49877436Y-6379367D01*
X49665985Y-6396830D01*
X49554934Y-6304580D01*
X49358480Y-6027830D01*
X49181670Y-5728017D01*
X49122733Y-5573413D01*
X49160277Y-5535869D01*
X49400296Y-5491466D01*
X49642024Y-5447015D01*
X49867526Y-5320586D01*
X49942694Y-5132675D01*
X49899131Y-4970387D01*
X49768442Y-4784180D01*
X49531840Y-4520249D01*
X49443859Y-4418608D01*
X49347058Y-4251571D01*
X49288977Y-4078461D01*
X49269617Y-3899278D01*
X49290390Y-3700430D01*
X49352709Y-3513882D01*
X49456575Y-3339633D01*
X49601988Y-3177685D01*
X49788946Y-3028036D01*
X50025333Y-2889021D01*
X50269834Y-2789725D01*
X50522450Y-2730148D01*
X50783179Y-2710288D01*
X50877999Y-2802536D01*
X51053101Y-3079279D01*
X51214533Y-3368841D01*
X51268344Y-3506366D01*
X51268372Y-3506317D01*
X51268372Y-3506317D01*
G37*
X51268372Y-3506317D02*
X51217159Y-3598541D01*
X51025819Y-3574667D01*
X50840467Y-3596880D01*
X50687576Y-3663521D01*
X50564576Y-3787370D01*
X50523577Y-3953929D01*
X50567140Y-4089742D01*
X50697829Y-4258016D01*
X50910511Y-4489491D01*
X51022401Y-4630423D01*
X51119208Y-4807711D01*
X51177292Y-4993349D01*
X51196654Y-5187336D01*
X51179566Y-5366712D01*
X51128304Y-5556335D01*
X51039486Y-5742539D01*
X50930140Y-5870665D01*
X50752093Y-6008848D01*
X50555067Y-6131847D01*
X50339062Y-6239665D01*
X50101795Y-6326979D01*
X49877436Y-6379367D01*
X49665985Y-6396830D01*
X49554934Y-6304580D01*
X49358480Y-6027830D01*
X49181670Y-5728017D01*
X49122733Y-5573413D01*
X49160277Y-5535869D01*
X49400296Y-5491466D01*
X49642024Y-5447015D01*
X49867526Y-5320586D01*
X49942694Y-5132675D01*
X49899131Y-4970387D01*
X49768442Y-4784180D01*
X49531840Y-4520249D01*
X49443859Y-4418608D01*
X49347058Y-4251571D01*
X49288977Y-4078461D01*
X49269617Y-3899278D01*
X49290390Y-3700430D01*
X49352709Y-3513882D01*
X49456575Y-3339633D01*
X49601988Y-3177685D01*
X49788946Y-3028036D01*
X50025333Y-2889021D01*
X50269834Y-2789725D01*
X50522450Y-2730148D01*
X50783179Y-2710288D01*
X50877999Y-2802536D01*
X51053101Y-3079279D01*
X51214533Y-3368841D01*
X51268344Y-3506366D01*
X51268372Y-3506317D01*
D12*
X1560000Y-1550000D03*
M02*
