%TF.GenerationSoftware,KiCad,Pcbnew,4.0.7*%
%TF.CreationDate,2017-12-02T01:49:37+08:00*%
%TF.ProjectId,design1,64657369676E312E6B696361645F7063,rev?*%
%TF.FileFunction,Soldermask,Bot*%
%FSLAX46Y46*%
G04 Gerber Fmt 4.6, Leading zero omitted, Abs format (unit mm)*
G04 Created by KiCad (PCBNEW 4.0.7) date 12/02/17 01:49:37*
%MOMM*%
%LPD*%
G01*
G04 APERTURE LIST*
%ADD10C,0.100000*%
%ADD11C,0.002822*%
%ADD12C,1.900000*%
G04 APERTURE END LIST*
D10*
G36*
X25818794Y-4084674D02*
X26265661Y-4353817D01*
X26436302Y-4332449D01*
X26584091Y-4350614D01*
X26714613Y-4405110D01*
X26821772Y-4494340D01*
X26903538Y-4620967D01*
X26953821Y-4764158D01*
X26970582Y-4907349D01*
X26946205Y-5048404D01*
X26860881Y-5155267D01*
X26726804Y-5195845D01*
X26605933Y-5171258D01*
X26495219Y-5097497D01*
X26405326Y-4981002D01*
X26346922Y-4828211D01*
X26310357Y-4648685D01*
X26265666Y-4353752D01*
X26265661Y-4353817D01*
X25818794Y-4084674D01*
X25851297Y-4249238D01*
X25877703Y-4426624D01*
X25904108Y-4587448D01*
X25930514Y-4732241D01*
X25963017Y-4930998D01*
X25973172Y-5016453D01*
X25975171Y-5059230D01*
X25942668Y-5153280D01*
X25859372Y-5185363D01*
X25746119Y-5157580D01*
X25621693Y-5074232D01*
X25504376Y-4941727D01*
X25412452Y-4770751D01*
X25351509Y-4573061D01*
X25331195Y-4364684D01*
X25348461Y-4181956D01*
X25400258Y-4009913D01*
X25491163Y-3854966D01*
X25625750Y-3727802D01*
X25794361Y-3629492D01*
X25987349Y-3565376D01*
X26195066Y-3528511D01*
X26407862Y-3516222D01*
X26597464Y-3525720D01*
X26781650Y-3554215D01*
X26960419Y-3601707D01*
X27128804Y-3669861D01*
X27284548Y-3763185D01*
X27427653Y-3881678D01*
X27554281Y-4022258D01*
X27660594Y-4181834D01*
X27746593Y-4360408D01*
X27809793Y-4550856D01*
X27847714Y-4746053D01*
X27860354Y-4946000D01*
X27842578Y-5171475D01*
X27789252Y-5381988D01*
X27697329Y-5567386D01*
X27567822Y-5721796D01*
X27401243Y-5841477D01*
X27202160Y-5922689D01*
X26978700Y-5969164D01*
X26743051Y-5984656D01*
X26510449Y-5973437D01*
X26304256Y-5939780D01*
X26109743Y-5873530D01*
X25912184Y-5764533D01*
X25849208Y-6012451D01*
X26051846Y-6123584D01*
X26269720Y-6200521D01*
X26505369Y-6245422D01*
X26765395Y-6260389D01*
X26962898Y-6250894D01*
X27154532Y-6222409D01*
X27340298Y-6174934D01*
X27512972Y-6108697D01*
X27665331Y-6023922D01*
X27797376Y-5920610D01*
X27955322Y-5733070D01*
X28067559Y-5508130D01*
X28116094Y-5341429D01*
X28145215Y-5166179D01*
X28154922Y-4982381D01*
X28139574Y-4739930D01*
X28093527Y-4502702D01*
X28016783Y-4270699D01*
X27913630Y-4052468D01*
X27788357Y-3859409D01*
X27640964Y-3691521D01*
X27472578Y-3549992D01*
X27284330Y-3436009D01*
X27076218Y-3349571D01*
X26854563Y-3289017D01*
X26625686Y-3252685D01*
X26389585Y-3240574D01*
X26206529Y-3248411D01*
X26028438Y-3271922D01*
X25855312Y-3311107D01*
X25617631Y-3399797D01*
X25416517Y-3529100D01*
X25255016Y-3695267D01*
X25136176Y-3898833D01*
X25063045Y-4125910D01*
X25038668Y-4366878D01*
X25053791Y-4559463D01*
X25099160Y-4743975D01*
X25174775Y-4920414D01*
X25275670Y-5081887D01*
X25399589Y-5221515D01*
X25546531Y-5339300D01*
X25705662Y-5427159D01*
X25868856Y-5479874D01*
X26036113Y-5497446D01*
X26200661Y-5471760D01*
X26328643Y-5390503D01*
X26385523Y-5260133D01*
X26495222Y-5369124D01*
X26586633Y-5426794D01*
X26724773Y-5478066D01*
X26875100Y-5497256D01*
X27010192Y-5479616D01*
X27131064Y-5426694D01*
X27229082Y-5343326D01*
X27299675Y-5234346D01*
X27342334Y-5102379D01*
X27356554Y-4950108D01*
X27326590Y-4717685D01*
X27236698Y-4482059D01*
X27092972Y-4276354D01*
X26901506Y-4133697D01*
X26743504Y-4070769D01*
X26559319Y-4033012D01*
X26348950Y-4020426D01*
X26131585Y-4033249D01*
X25995477Y-4052482D01*
X25818740Y-4084532D01*
X25818794Y-4084674D01*
X25818794Y-4084674D01*
G37*
D11*
G36*
X24430571Y-1408016D02*
X24277672Y-1172864D01*
X24115780Y-1018172D01*
X23949820Y-934981D01*
X23784718Y-914329D01*
X23625398Y-947257D01*
X23476786Y-1024805D01*
X23343808Y-1138012D01*
X23231387Y-1277917D01*
X23144450Y-1435561D01*
X23087922Y-1601984D01*
X23066729Y-1768224D01*
X23175623Y-1981428D01*
X23299895Y-2170942D01*
X23436418Y-2342184D01*
X23582063Y-2500571D01*
X23733701Y-2651518D01*
X23888206Y-2800444D01*
X24042448Y-2952765D01*
X24193300Y-3113897D01*
X24337633Y-3289259D01*
X24472319Y-3484266D01*
X24594230Y-3704336D01*
X24712654Y-3547481D01*
X24807052Y-3398708D01*
X24887930Y-3252861D01*
X24965795Y-3104785D01*
X25051153Y-2949324D01*
X25154511Y-2781321D01*
X25286375Y-2595622D01*
X25457252Y-2387071D01*
X25677649Y-2150512D01*
X25958071Y-1880789D01*
X26017584Y-1734784D01*
X26045349Y-1584830D01*
X26043373Y-1435612D01*
X26013663Y-1291815D01*
X25958227Y-1158126D01*
X25879073Y-1039231D01*
X25778207Y-939814D01*
X25657638Y-864563D01*
X25519372Y-818162D01*
X25365418Y-805297D01*
X25197782Y-830654D01*
X25018471Y-898918D01*
X24829495Y-1014777D01*
X24632859Y-1182914D01*
X24430571Y-1408016D01*
X24430571Y-1408016D01*
G37*
X24430571Y-1408016D02*
X24277672Y-1172864D01*
X24115780Y-1018172D01*
X23949820Y-934981D01*
X23784718Y-914329D01*
X23625398Y-947257D01*
X23476786Y-1024805D01*
X23343808Y-1138012D01*
X23231387Y-1277917D01*
X23144450Y-1435561D01*
X23087922Y-1601984D01*
X23066729Y-1768224D01*
X23175623Y-1981428D01*
X23299895Y-2170942D01*
X23436418Y-2342184D01*
X23582063Y-2500571D01*
X23733701Y-2651518D01*
X23888206Y-2800444D01*
X24042448Y-2952765D01*
X24193300Y-3113897D01*
X24337633Y-3289259D01*
X24472319Y-3484266D01*
X24594230Y-3704336D01*
X24712654Y-3547481D01*
X24807052Y-3398708D01*
X24887930Y-3252861D01*
X24965795Y-3104785D01*
X25051153Y-2949324D01*
X25154511Y-2781321D01*
X25286375Y-2595622D01*
X25457252Y-2387071D01*
X25677649Y-2150512D01*
X25958071Y-1880789D01*
X26017584Y-1734784D01*
X26045349Y-1584830D01*
X26043373Y-1435612D01*
X26013663Y-1291815D01*
X25958227Y-1158126D01*
X25879073Y-1039231D01*
X25778207Y-939814D01*
X25657638Y-864563D01*
X25519372Y-818162D01*
X25365418Y-805297D01*
X25197782Y-830654D01*
X25018471Y-898918D01*
X24829495Y-1014777D01*
X24632859Y-1182914D01*
X24430571Y-1408016D01*
D10*
G36*
X14269957Y-3291777D02*
X14072397Y-3295000D01*
X13951017Y-3296075D01*
X13822020Y-3295000D01*
X13642236Y-3291777D01*
X13737715Y-5016488D01*
X13739814Y-5080603D01*
X13720514Y-5333326D01*
X13662615Y-5514453D01*
X13565612Y-5640013D01*
X13433060Y-5726035D01*
X13270036Y-5775726D01*
X13085681Y-5792290D01*
X12850031Y-5762366D01*
X12683451Y-5691833D01*
X12575783Y-5602071D01*
X12484371Y-5458879D01*
X12427492Y-5279355D01*
X12410334Y-5153261D01*
X12394083Y-4977299D01*
X12378738Y-4751469D01*
X12336081Y-4007728D01*
X12327276Y-3783798D01*
X12319827Y-3545145D01*
X12313733Y-3291770D01*
X12113634Y-3294993D01*
X11972447Y-3296068D01*
X11675856Y-3291770D01*
X11738832Y-4321895D01*
X11779471Y-5140439D01*
X11802826Y-5390489D01*
X11836350Y-5567875D01*
X11927761Y-5785868D01*
X12063870Y-5946159D01*
X12174077Y-6031647D01*
X12301551Y-6104310D01*
X12458481Y-6168959D01*
X12624552Y-6213306D01*
X12863756Y-6248575D01*
X13110070Y-6260331D01*
X13357908Y-6248042D01*
X13589493Y-6211177D01*
X13772832Y-6156677D01*
X13940936Y-6078671D01*
X14083139Y-5983566D01*
X14192837Y-5877775D01*
X14312693Y-5653371D01*
X14350788Y-5495219D01*
X14363486Y-5319969D01*
X14359388Y-5155406D01*
X14345176Y-4892532D01*
X14326895Y-4591188D01*
X14316233Y-4417007D01*
X14304557Y-4176573D01*
X14284238Y-3712803D01*
X14276637Y-3512442D01*
X14270026Y-3291777D01*
X14269957Y-3291777D01*
X14269957Y-3291777D01*
G37*
G36*
X8984104Y-5674742D02*
X9025752Y-5926931D01*
X9061303Y-6183394D01*
X9283240Y-6219727D01*
X9485879Y-6243232D01*
X9665154Y-6256058D01*
X9817005Y-6260333D01*
X10017216Y-6250359D01*
X10211559Y-6220439D01*
X10400034Y-6170571D01*
X10578351Y-6099331D01*
X10744930Y-6005295D01*
X10899772Y-5888462D01*
X11033848Y-5749782D01*
X11140839Y-5593055D01*
X11220744Y-5418280D01*
X11276042Y-5228783D01*
X11309221Y-5027887D01*
X11320281Y-4815593D01*
X11306963Y-4585014D01*
X11267011Y-4366309D01*
X11200425Y-4159477D01*
X11109009Y-3969029D01*
X10994570Y-3799479D01*
X10857108Y-3650826D01*
X10697751Y-3524494D01*
X10520337Y-3421909D01*
X10324867Y-3343070D01*
X10117432Y-3286078D01*
X9904129Y-3251884D01*
X9684957Y-3240485D01*
X9458788Y-3249272D01*
X9219075Y-3275631D01*
X8965819Y-3319563D01*
X8959722Y-3481990D01*
X8953626Y-3588848D01*
X8939403Y-3817528D01*
X9149661Y-3763562D01*
X9321319Y-3729895D01*
X9470122Y-3712265D01*
X9611816Y-3706388D01*
X9825120Y-3724021D01*
X10030297Y-3776920D01*
X10218208Y-3866144D01*
X10383771Y-3997050D01*
X10518863Y-4164819D01*
X10619421Y-4364646D01*
X10680363Y-4583174D01*
X10700677Y-4811319D01*
X10675284Y-5074728D01*
X10599104Y-5309284D01*
X10467061Y-5508577D01*
X10274074Y-5666195D01*
X10112008Y-5742184D01*
X9926467Y-5787777D01*
X9717452Y-5802975D01*
X9499634Y-5788727D01*
X9255182Y-5745983D01*
X8984095Y-5674743D01*
X8984104Y-5674742D01*
X8984104Y-5674742D01*
G37*
D12*
X1560000Y-1550000D03*
M02*
