%TF.GenerationSoftware,KiCad,Pcbnew,4.0.7*%
%TF.CreationDate,2017-11-29T16:21:08+08:00*%
%TF.ProjectId,design1,64657369676E312E6B696361645F7063,rev?*%
%TF.FileFunction,Copper,L1,Top,Signal*%
%FSLAX46Y46*%
G04 Gerber Fmt 4.6, Leading zero omitted, Abs format (unit mm)*
G04 Created by KiCad (PCBNEW 4.0.7) date 11/29/17 16:21:08*
%MOMM*%
%LPD*%
G01*
G04 APERTURE LIST*
%ADD10C,0.100000*%
%ADD11C,0.074671*%
G04 APERTURE END LIST*
D10*
D11*
G36*
X7825842Y-6164443D02*
X7726760Y-6270366D01*
X6517271Y-6270366D01*
X6418188Y-6150783D01*
X6419683Y-5956673D01*
X6424167Y-5719429D01*
X6431639Y-5439052D01*
X6442101Y-5115541D01*
X6454058Y-4792027D01*
X6462599Y-4511648D01*
X6467723Y-4274406D01*
X6469431Y-4080299D01*
X6438684Y-3974386D01*
X6408344Y-4023177D01*
X6347391Y-4153147D01*
X6255825Y-4364294D01*
X6133646Y-4656620D01*
X5980854Y-5030124D01*
X5882455Y-5273253D01*
X5784055Y-5516107D01*
X5685656Y-5758688D01*
X5587257Y-6000994D01*
X5488858Y-6243026D01*
X5403441Y-6335249D01*
X5266776Y-6339100D01*
X5054944Y-6270751D01*
X4976498Y-6106750D01*
X4888759Y-5915417D01*
X4791726Y-5696752D01*
X4685400Y-5450753D01*
X4569781Y-5177421D01*
X4447739Y-4890837D01*
X4338543Y-4637871D01*
X4242194Y-4418523D01*
X4158692Y-4232794D01*
X4088035Y-4080684D01*
X4057288Y-4043140D01*
X4033375Y-4142218D01*
X4034443Y-4330562D01*
X4037647Y-4560759D01*
X4042987Y-4832809D01*
X4050463Y-5146712D01*
X4057934Y-5460616D01*
X4063271Y-5732666D01*
X4066473Y-5962863D01*
X4067540Y-6151207D01*
X3971870Y-6270789D01*
X2830715Y-6270789D01*
X2745297Y-6250284D01*
X2731628Y-6171731D01*
X2733763Y-5962250D01*
X2740169Y-5706217D01*
X2750845Y-5403629D01*
X2765793Y-5054489D01*
X2782235Y-4703857D01*
X2793979Y-4400205D01*
X2801026Y-4143532D01*
X2803375Y-3933839D01*
X2802426Y-3782463D01*
X2799579Y-3592554D01*
X2794834Y-3364114D01*
X2788191Y-3097140D01*
X2779649Y-2791635D01*
X2769210Y-2447597D01*
X2764296Y-2227794D01*
X2754047Y-1946493D01*
X2738462Y-1603695D01*
X2735093Y-1545646D01*
X2878591Y-1477297D01*
X3113485Y-1474745D01*
X3442336Y-1467092D01*
X3771188Y-1456840D01*
X4006082Y-1453422D01*
X4111997Y-1596927D01*
X5109655Y-3786984D01*
X5207029Y-3953550D01*
X5287320Y-4009071D01*
X5346257Y-3945008D01*
X5447902Y-3752819D01*
X5528678Y-3584391D01*
X5617637Y-3397995D01*
X5714780Y-3193630D01*
X5820105Y-2971295D01*
X5933613Y-2730992D01*
X6055304Y-2472721D01*
X6185179Y-2196480D01*
X6323236Y-1902270D01*
X6469476Y-1590092D01*
X6595892Y-1456840D01*
X6719745Y-1459391D01*
X6893139Y-1467044D01*
X7069950Y-1474697D01*
X7197220Y-1477248D01*
X7456885Y-1460209D01*
X7719965Y-1443170D01*
X7822464Y-1525189D01*
X7821234Y-1702442D01*
X7817544Y-1911674D01*
X7811395Y-2152888D01*
X7802786Y-2426082D01*
X7791716Y-2731256D01*
X7781878Y-3035201D01*
X7774225Y-3307439D01*
X7768759Y-3547971D01*
X7765480Y-3756797D01*
X7764386Y-3933916D01*
X7766308Y-4143396D01*
X7772073Y-4399430D01*
X7781682Y-4702017D01*
X7795134Y-5051158D01*
X7808586Y-5400081D01*
X7818195Y-5702024D01*
X7823960Y-5956988D01*
X7825881Y-6164973D01*
X7825842Y-6164443D01*
X7825842Y-6164443D01*
G37*
X7825842Y-6164443D02*
X7726760Y-6270366D01*
X6517271Y-6270366D01*
X6418188Y-6150783D01*
X6419683Y-5956673D01*
X6424167Y-5719429D01*
X6431639Y-5439052D01*
X6442101Y-5115541D01*
X6454058Y-4792027D01*
X6462599Y-4511648D01*
X6467723Y-4274406D01*
X6469431Y-4080299D01*
X6438684Y-3974386D01*
X6408344Y-4023177D01*
X6347391Y-4153147D01*
X6255825Y-4364294D01*
X6133646Y-4656620D01*
X5980854Y-5030124D01*
X5882455Y-5273253D01*
X5784055Y-5516107D01*
X5685656Y-5758688D01*
X5587257Y-6000994D01*
X5488858Y-6243026D01*
X5403441Y-6335249D01*
X5266776Y-6339100D01*
X5054944Y-6270751D01*
X4976498Y-6106750D01*
X4888759Y-5915417D01*
X4791726Y-5696752D01*
X4685400Y-5450753D01*
X4569781Y-5177421D01*
X4447739Y-4890837D01*
X4338543Y-4637871D01*
X4242194Y-4418523D01*
X4158692Y-4232794D01*
X4088035Y-4080684D01*
X4057288Y-4043140D01*
X4033375Y-4142218D01*
X4034443Y-4330562D01*
X4037647Y-4560759D01*
X4042987Y-4832809D01*
X4050463Y-5146712D01*
X4057934Y-5460616D01*
X4063271Y-5732666D01*
X4066473Y-5962863D01*
X4067540Y-6151207D01*
X3971870Y-6270789D01*
X2830715Y-6270789D01*
X2745297Y-6250284D01*
X2731628Y-6171731D01*
X2733763Y-5962250D01*
X2740169Y-5706217D01*
X2750845Y-5403629D01*
X2765793Y-5054489D01*
X2782235Y-4703857D01*
X2793979Y-4400205D01*
X2801026Y-4143532D01*
X2803375Y-3933839D01*
X2802426Y-3782463D01*
X2799579Y-3592554D01*
X2794834Y-3364114D01*
X2788191Y-3097140D01*
X2779649Y-2791635D01*
X2769210Y-2447597D01*
X2764296Y-2227794D01*
X2754047Y-1946493D01*
X2738462Y-1603695D01*
X2735093Y-1545646D01*
X2878591Y-1477297D01*
X3113485Y-1474745D01*
X3442336Y-1467092D01*
X3771188Y-1456840D01*
X4006082Y-1453422D01*
X4111997Y-1596927D01*
X5109655Y-3786984D01*
X5207029Y-3953550D01*
X5287320Y-4009071D01*
X5346257Y-3945008D01*
X5447902Y-3752819D01*
X5528678Y-3584391D01*
X5617637Y-3397995D01*
X5714780Y-3193630D01*
X5820105Y-2971295D01*
X5933613Y-2730992D01*
X6055304Y-2472721D01*
X6185179Y-2196480D01*
X6323236Y-1902270D01*
X6469476Y-1590092D01*
X6595892Y-1456840D01*
X6719745Y-1459391D01*
X6893139Y-1467044D01*
X7069950Y-1474697D01*
X7197220Y-1477248D01*
X7456885Y-1460209D01*
X7719965Y-1443170D01*
X7822464Y-1525189D01*
X7821234Y-1702442D01*
X7817544Y-1911674D01*
X7811395Y-2152888D01*
X7802786Y-2426082D01*
X7791716Y-2731256D01*
X7781878Y-3035201D01*
X7774225Y-3307439D01*
X7768759Y-3547971D01*
X7765480Y-3756797D01*
X7764386Y-3933916D01*
X7766308Y-4143396D01*
X7772073Y-4399430D01*
X7781682Y-4702017D01*
X7795134Y-5051158D01*
X7808586Y-5400081D01*
X7818195Y-5702024D01*
X7823960Y-5956988D01*
X7825881Y-6164973D01*
X7825842Y-6164443D01*
G36*
X9786987Y-2163562D02*
X9698076Y-3024581D01*
X9780095Y-3092930D01*
X9773356Y-3157814D01*
X9750383Y-3385782D01*
X9731587Y-3625517D01*
X9716968Y-3877020D01*
X9706526Y-4140290D01*
X9700260Y-4415328D01*
X9698172Y-4702134D01*
X9698133Y-4702124D01*
X9699267Y-4895735D01*
X9702669Y-5144014D01*
X9708338Y-5446958D01*
X9714007Y-5747620D01*
X9717408Y-5993616D01*
X9718542Y-6184948D01*
X9633153Y-6270337D01*
X9444386Y-6285715D01*
X9110416Y-6290842D01*
X8773874Y-6285715D01*
X8584249Y-6270337D01*
X8491997Y-6225958D01*
X8485162Y-6123453D01*
X8486301Y-5940094D01*
X8489718Y-5704347D01*
X8495414Y-5416211D01*
X8501110Y-5125797D01*
X8504527Y-4887771D01*
X8505667Y-4702134D01*
X8503579Y-4389703D01*
X8497315Y-4099289D01*
X8486875Y-3830894D01*
X8472260Y-3584516D01*
X8453469Y-3360156D01*
X8430502Y-3157814D01*
X8423667Y-3086095D01*
X8515919Y-3017746D01*
X8636358Y-3022872D01*
X8806333Y-3038251D01*
X8979725Y-3053629D01*
X9103581Y-3058756D01*
X9227430Y-3054472D01*
X9400823Y-3041620D01*
X9574219Y-3028841D01*
X9698076Y-3024581D01*
X9786987Y-2163562D01*
X9760201Y-2377580D01*
X9679842Y-2544039D01*
X9545910Y-2662938D01*
X9358405Y-2734277D01*
X9117328Y-2758057D01*
X8855103Y-2720475D01*
X8642418Y-2607727D01*
X8488670Y-2414686D01*
X8437420Y-2163562D01*
X8490378Y-1920982D01*
X8649252Y-1726232D01*
X8863645Y-1608359D01*
X9117328Y-1569068D01*
X9365893Y-1609213D01*
X9578580Y-1729650D01*
X9734886Y-1923545D01*
X9786987Y-2163562D01*
X9786987Y-2163562D01*
G37*
X9786987Y-2163562D02*
X9698076Y-3024581D01*
X9780095Y-3092930D01*
X9773356Y-3157814D01*
X9750383Y-3385782D01*
X9731587Y-3625517D01*
X9716968Y-3877020D01*
X9706526Y-4140290D01*
X9700260Y-4415328D01*
X9698172Y-4702134D01*
X9698133Y-4702124D01*
X9699267Y-4895735D01*
X9702669Y-5144014D01*
X9708338Y-5446958D01*
X9714007Y-5747620D01*
X9717408Y-5993616D01*
X9718542Y-6184948D01*
X9633153Y-6270337D01*
X9444386Y-6285715D01*
X9110416Y-6290842D01*
X8773874Y-6285715D01*
X8584249Y-6270337D01*
X8491997Y-6225958D01*
X8485162Y-6123453D01*
X8486301Y-5940094D01*
X8489718Y-5704347D01*
X8495414Y-5416211D01*
X8501110Y-5125797D01*
X8504527Y-4887771D01*
X8505667Y-4702134D01*
X8503579Y-4389703D01*
X8497315Y-4099289D01*
X8486875Y-3830894D01*
X8472260Y-3584516D01*
X8453469Y-3360156D01*
X8430502Y-3157814D01*
X8423667Y-3086095D01*
X8515919Y-3017746D01*
X8636358Y-3022872D01*
X8806333Y-3038251D01*
X8979725Y-3053629D01*
X9103581Y-3058756D01*
X9227430Y-3054472D01*
X9400823Y-3041620D01*
X9574219Y-3028841D01*
X9698076Y-3024581D01*
X9786987Y-2163562D01*
X9760201Y-2377580D01*
X9679842Y-2544039D01*
X9545910Y-2662938D01*
X9358405Y-2734277D01*
X9117328Y-2758057D01*
X8855103Y-2720475D01*
X8642418Y-2607727D01*
X8488670Y-2414686D01*
X8437420Y-2163562D01*
X8490378Y-1920982D01*
X8649252Y-1726232D01*
X8863645Y-1608359D01*
X9117328Y-1569068D01*
X9365893Y-1609213D01*
X9578580Y-1729650D01*
X9734886Y-1923545D01*
X9786987Y-2163562D01*
G36*
X12622801Y-4022221D02*
X12414384Y-3967542D01*
X12231593Y-3926532D01*
X12086384Y-3912862D01*
X11813057Y-3958989D01*
X11601229Y-4097367D01*
X11465414Y-4309195D01*
X11420142Y-4582522D01*
X11442160Y-4777271D01*
X11508215Y-4942410D01*
X11618307Y-5077939D01*
X11763704Y-5176639D01*
X11935674Y-5235860D01*
X12134219Y-5255600D01*
X12293947Y-5236803D01*
X12472471Y-5180415D01*
X12650131Y-5101862D01*
X12716738Y-5210340D01*
X12800461Y-5535774D01*
X12859377Y-5865480D01*
X12879015Y-6061939D01*
X12773100Y-6182376D01*
X12455355Y-6284016D01*
X12158960Y-6337805D01*
X11925773Y-6355735D01*
X11682528Y-6341689D01*
X11453898Y-6299549D01*
X11239885Y-6229318D01*
X11040488Y-6130993D01*
X10855706Y-6004576D01*
X10685541Y-5850065D01*
X10536252Y-5674584D01*
X10414106Y-5485246D01*
X10319104Y-5282051D01*
X10251245Y-5065000D01*
X10210530Y-4834092D01*
X10196958Y-4589328D01*
X10210530Y-4346558D01*
X10251245Y-4117074D01*
X10319104Y-3900877D01*
X10414106Y-3697967D01*
X10536252Y-3508345D01*
X10685541Y-3332009D01*
X10856655Y-3175413D01*
X11042006Y-3047289D01*
X11241594Y-2947637D01*
X11455417Y-2876458D01*
X11683477Y-2833750D01*
X11925773Y-2819514D01*
X12172628Y-2833180D01*
X12404108Y-2874179D01*
X12620211Y-2942510D01*
X12820937Y-3038174D01*
X12909792Y-3130397D01*
X12884165Y-3253378D01*
X12807287Y-3533562D01*
X12727838Y-3810307D01*
X12680869Y-3950387D01*
X12622821Y-4022106D01*
X12622801Y-4022221D01*
X12622801Y-4022221D01*
G37*
X12622801Y-4022221D02*
X12414384Y-3967542D01*
X12231593Y-3926532D01*
X12086384Y-3912862D01*
X11813057Y-3958989D01*
X11601229Y-4097367D01*
X11465414Y-4309195D01*
X11420142Y-4582522D01*
X11442160Y-4777271D01*
X11508215Y-4942410D01*
X11618307Y-5077939D01*
X11763704Y-5176639D01*
X11935674Y-5235860D01*
X12134219Y-5255600D01*
X12293947Y-5236803D01*
X12472471Y-5180415D01*
X12650131Y-5101862D01*
X12716738Y-5210340D01*
X12800461Y-5535774D01*
X12859377Y-5865480D01*
X12879015Y-6061939D01*
X12773100Y-6182376D01*
X12455355Y-6284016D01*
X12158960Y-6337805D01*
X11925773Y-6355735D01*
X11682528Y-6341689D01*
X11453898Y-6299549D01*
X11239885Y-6229318D01*
X11040488Y-6130993D01*
X10855706Y-6004576D01*
X10685541Y-5850065D01*
X10536252Y-5674584D01*
X10414106Y-5485246D01*
X10319104Y-5282051D01*
X10251245Y-5065000D01*
X10210530Y-4834092D01*
X10196958Y-4589328D01*
X10210530Y-4346558D01*
X10251245Y-4117074D01*
X10319104Y-3900877D01*
X10414106Y-3697967D01*
X10536252Y-3508345D01*
X10685541Y-3332009D01*
X10856655Y-3175413D01*
X11042006Y-3047289D01*
X11241594Y-2947637D01*
X11455417Y-2876458D01*
X11683477Y-2833750D01*
X11925773Y-2819514D01*
X12172628Y-2833180D01*
X12404108Y-2874179D01*
X12620211Y-2942510D01*
X12820937Y-3038174D01*
X12909792Y-3130397D01*
X12884165Y-3253378D01*
X12807287Y-3533562D01*
X12727838Y-3810307D01*
X12680869Y-3950387D01*
X12622821Y-4022106D01*
X12622801Y-4022221D01*
G36*
X15537188Y-4141794D02*
X15390275Y-4275047D01*
X15198945Y-4268308D01*
X15014441Y-4258104D01*
X14776135Y-4280317D01*
X14628363Y-4346958D01*
X14551492Y-4481072D01*
X14525868Y-4705705D01*
X14526831Y-4891062D01*
X14529719Y-5153287D01*
X14534773Y-5412950D01*
X14536458Y-5597452D01*
X14539875Y-5721302D01*
X14550127Y-5894695D01*
X14560380Y-6064673D01*
X14563797Y-6185112D01*
X14451050Y-6277335D01*
X14243487Y-6287588D01*
X13948798Y-6291005D01*
X13656679Y-6285879D01*
X13429468Y-6270500D01*
X13316720Y-6157753D01*
X13317148Y-5945542D01*
X13318432Y-5673348D01*
X13320571Y-5341171D01*
X13322710Y-5007101D01*
X13323994Y-4733771D01*
X13324422Y-4521181D01*
X13318545Y-4211360D01*
X13300916Y-3924225D01*
X13271533Y-3659776D01*
X13230398Y-3418014D01*
X13177509Y-3198939D01*
X13170770Y-3147725D01*
X13221984Y-3079376D01*
X13453460Y-3050328D01*
X13772062Y-3004192D01*
X14073863Y-2945351D01*
X14259500Y-2910047D01*
X14328974Y-2898279D01*
X14407528Y-3113522D01*
X14469042Y-3328774D01*
X14515161Y-3284359D01*
X14749207Y-3151114D01*
X14965215Y-3050510D01*
X15175908Y-2990147D01*
X15381284Y-2970027D01*
X15572614Y-3052046D01*
X15552109Y-3332211D01*
X15528139Y-3612376D01*
X15531990Y-3875453D01*
X15538728Y-4141948D01*
X15537188Y-4141794D01*
X15537188Y-4141794D01*
G37*
X15537188Y-4141794D02*
X15390275Y-4275047D01*
X15198945Y-4268308D01*
X15014441Y-4258104D01*
X14776135Y-4280317D01*
X14628363Y-4346958D01*
X14551492Y-4481072D01*
X14525868Y-4705705D01*
X14526831Y-4891062D01*
X14529719Y-5153287D01*
X14534773Y-5412950D01*
X14536458Y-5597452D01*
X14539875Y-5721302D01*
X14550127Y-5894695D01*
X14560380Y-6064673D01*
X14563797Y-6185112D01*
X14451050Y-6277335D01*
X14243487Y-6287588D01*
X13948798Y-6291005D01*
X13656679Y-6285879D01*
X13429468Y-6270500D01*
X13316720Y-6157753D01*
X13317148Y-5945542D01*
X13318432Y-5673348D01*
X13320571Y-5341171D01*
X13322710Y-5007101D01*
X13323994Y-4733771D01*
X13324422Y-4521181D01*
X13318545Y-4211360D01*
X13300916Y-3924225D01*
X13271533Y-3659776D01*
X13230398Y-3418014D01*
X13177509Y-3198939D01*
X13170770Y-3147725D01*
X13221984Y-3079376D01*
X13453460Y-3050328D01*
X13772062Y-3004192D01*
X14073863Y-2945351D01*
X14259500Y-2910047D01*
X14328974Y-2898279D01*
X14407528Y-3113522D01*
X14469042Y-3328774D01*
X14515161Y-3284359D01*
X14749207Y-3151114D01*
X14965215Y-3050510D01*
X15175908Y-2990147D01*
X15381284Y-2970027D01*
X15572614Y-3052046D01*
X15552109Y-3332211D01*
X15528139Y-3612376D01*
X15531990Y-3875453D01*
X15538728Y-4141948D01*
X15537188Y-4141794D01*
G36*
X19223739Y-4589376D02*
X18103080Y-4589376D01*
X18061228Y-4335692D01*
X17935672Y-4114464D01*
X17743485Y-3958151D01*
X17501760Y-3906047D01*
X17255757Y-3959005D01*
X17057595Y-4117882D01*
X16934595Y-4334838D01*
X16893595Y-4589376D01*
X16934595Y-4846478D01*
X17057595Y-5064289D01*
X17255757Y-5223165D01*
X17501760Y-5276124D01*
X17745194Y-5223165D01*
X17942507Y-5064289D01*
X18062937Y-4846478D01*
X18103080Y-4589376D01*
X19223739Y-4589376D01*
X19210452Y-4840881D01*
X19170592Y-5076060D01*
X19104157Y-5294915D01*
X19011148Y-5497445D01*
X18891566Y-5683650D01*
X18745409Y-5853531D01*
X18578754Y-6001776D01*
X18395395Y-6123067D01*
X18195332Y-6217405D01*
X17978566Y-6284789D01*
X17745097Y-6325219D01*
X17494925Y-6338696D01*
X17251774Y-6325409D01*
X17023429Y-6285548D01*
X16809889Y-6219113D01*
X16611154Y-6126105D01*
X16427224Y-6006522D01*
X16258100Y-5860366D01*
X16109855Y-5693330D01*
X15988564Y-5511109D01*
X15894227Y-5313704D01*
X15826843Y-5101113D01*
X15786412Y-4873337D01*
X15772935Y-4630376D01*
X15785843Y-4374508D01*
X15824565Y-4135344D01*
X15889103Y-3912884D01*
X15979455Y-3707128D01*
X16095623Y-3518075D01*
X16237605Y-3345727D01*
X16401603Y-3194349D01*
X16583823Y-3070495D01*
X16784265Y-2974164D01*
X17002929Y-2905356D01*
X17239816Y-2864071D01*
X17494925Y-2850309D01*
X17744148Y-2863786D01*
X17977047Y-2904217D01*
X18193623Y-2971601D01*
X18393876Y-3065938D01*
X18577804Y-3187229D01*
X18745409Y-3335474D01*
X18891566Y-3504124D01*
X19011148Y-3688907D01*
X19104157Y-3889823D01*
X19170592Y-4106874D01*
X19210452Y-4340058D01*
X19223739Y-4589376D01*
X19223739Y-4589376D01*
G37*
X19223739Y-4589376D02*
X18103080Y-4589376D01*
X18061228Y-4335692D01*
X17935672Y-4114464D01*
X17743485Y-3958151D01*
X17501760Y-3906047D01*
X17255757Y-3959005D01*
X17057595Y-4117882D01*
X16934595Y-4334838D01*
X16893595Y-4589376D01*
X16934595Y-4846478D01*
X17057595Y-5064289D01*
X17255757Y-5223165D01*
X17501760Y-5276124D01*
X17745194Y-5223165D01*
X17942507Y-5064289D01*
X18062937Y-4846478D01*
X18103080Y-4589376D01*
X19223739Y-4589376D01*
X19210452Y-4840881D01*
X19170592Y-5076060D01*
X19104157Y-5294915D01*
X19011148Y-5497445D01*
X18891566Y-5683650D01*
X18745409Y-5853531D01*
X18578754Y-6001776D01*
X18395395Y-6123067D01*
X18195332Y-6217405D01*
X17978566Y-6284789D01*
X17745097Y-6325219D01*
X17494925Y-6338696D01*
X17251774Y-6325409D01*
X17023429Y-6285548D01*
X16809889Y-6219113D01*
X16611154Y-6126105D01*
X16427224Y-6006522D01*
X16258100Y-5860366D01*
X16109855Y-5693330D01*
X15988564Y-5511109D01*
X15894227Y-5313704D01*
X15826843Y-5101113D01*
X15786412Y-4873337D01*
X15772935Y-4630376D01*
X15785843Y-4374508D01*
X15824565Y-4135344D01*
X15889103Y-3912884D01*
X15979455Y-3707128D01*
X16095623Y-3518075D01*
X16237605Y-3345727D01*
X16401603Y-3194349D01*
X16583823Y-3070495D01*
X16784265Y-2974164D01*
X17002929Y-2905356D01*
X17239816Y-2864071D01*
X17494925Y-2850309D01*
X17744148Y-2863786D01*
X17977047Y-2904217D01*
X18193623Y-2971601D01*
X18393876Y-3065938D01*
X18577804Y-3187229D01*
X18745409Y-3335474D01*
X18891566Y-3504124D01*
X19011148Y-3688907D01*
X19104157Y-3889823D01*
X19170592Y-4106874D01*
X19210452Y-4340058D01*
X19223739Y-4589376D01*
G36*
X22770213Y-4415134D02*
X21574417Y-4206736D01*
X21536835Y-4007714D01*
X21424087Y-3834318D01*
X21259231Y-3713882D01*
X21065340Y-3673736D01*
X20868881Y-3719008D01*
X20710010Y-3854823D01*
X20612634Y-4036760D01*
X20580175Y-4247736D01*
X20675864Y-4339959D01*
X20875545Y-4331231D01*
X21137486Y-4305046D01*
X21461689Y-4261406D01*
X21574436Y-4206726D01*
X21574417Y-4206736D01*
X22770213Y-4415134D01*
X22745537Y-4612158D01*
X22671507Y-4743129D01*
X22548126Y-4808046D01*
X22452857Y-4819395D01*
X22217110Y-4844456D01*
X21840883Y-4883230D01*
X21663764Y-4901668D01*
X21454939Y-4921478D01*
X21214407Y-4942661D01*
X20942169Y-4965216D01*
X20638224Y-4989143D01*
X20734750Y-5184745D01*
X20928641Y-5327395D01*
X21140474Y-5399162D01*
X21379641Y-5423084D01*
X21582739Y-5404862D01*
X21786596Y-5350195D01*
X21991213Y-5259084D01*
X22121048Y-5177075D01*
X22250883Y-5095084D01*
X22346534Y-5199298D01*
X22490048Y-5443589D01*
X22618167Y-5700691D01*
X22660873Y-5843336D01*
X22609659Y-5921890D01*
X22457902Y-6058648D01*
X22280520Y-6170541D01*
X22077514Y-6257569D01*
X21848883Y-6319732D01*
X21594628Y-6357030D01*
X21314748Y-6369463D01*
X21052427Y-6356271D01*
X20807570Y-6316695D01*
X20580175Y-6250735D01*
X20370243Y-6158390D01*
X20177774Y-6039662D01*
X20002768Y-5894550D01*
X19846169Y-5724952D01*
X19718043Y-5537322D01*
X19618389Y-5331660D01*
X19547208Y-5107966D01*
X19504499Y-4866240D01*
X19490263Y-4606483D01*
X19502981Y-4352418D01*
X19541134Y-4114108D01*
X19604722Y-3891551D01*
X19693745Y-3684749D01*
X19808204Y-3493701D01*
X19948098Y-3318406D01*
X20113804Y-3159722D01*
X20296594Y-3029890D01*
X20496466Y-2928909D01*
X20713422Y-2856780D01*
X20947461Y-2813502D01*
X21198583Y-2799076D01*
X21453055Y-2818210D01*
X21691674Y-2875609D01*
X21914439Y-2971275D01*
X22121350Y-3105207D01*
X22312407Y-3277406D01*
X22477228Y-3475982D01*
X22605421Y-3689044D01*
X22696988Y-3916593D01*
X22751928Y-4158630D01*
X22770242Y-4415153D01*
X22770213Y-4415134D01*
X22770213Y-4415134D01*
G37*
X22770213Y-4415134D02*
X21574417Y-4206736D01*
X21536835Y-4007714D01*
X21424087Y-3834318D01*
X21259231Y-3713882D01*
X21065340Y-3673736D01*
X20868881Y-3719008D01*
X20710010Y-3854823D01*
X20612634Y-4036760D01*
X20580175Y-4247736D01*
X20675864Y-4339959D01*
X20875545Y-4331231D01*
X21137486Y-4305046D01*
X21461689Y-4261406D01*
X21574436Y-4206726D01*
X21574417Y-4206736D01*
X22770213Y-4415134D01*
X22745537Y-4612158D01*
X22671507Y-4743129D01*
X22548126Y-4808046D01*
X22452857Y-4819395D01*
X22217110Y-4844456D01*
X21840883Y-4883230D01*
X21663764Y-4901668D01*
X21454939Y-4921478D01*
X21214407Y-4942661D01*
X20942169Y-4965216D01*
X20638224Y-4989143D01*
X20734750Y-5184745D01*
X20928641Y-5327395D01*
X21140474Y-5399162D01*
X21379641Y-5423084D01*
X21582739Y-5404862D01*
X21786596Y-5350195D01*
X21991213Y-5259084D01*
X22121048Y-5177075D01*
X22250883Y-5095084D01*
X22346534Y-5199298D01*
X22490048Y-5443589D01*
X22618167Y-5700691D01*
X22660873Y-5843336D01*
X22609659Y-5921890D01*
X22457902Y-6058648D01*
X22280520Y-6170541D01*
X22077514Y-6257569D01*
X21848883Y-6319732D01*
X21594628Y-6357030D01*
X21314748Y-6369463D01*
X21052427Y-6356271D01*
X20807570Y-6316695D01*
X20580175Y-6250735D01*
X20370243Y-6158390D01*
X20177774Y-6039662D01*
X20002768Y-5894550D01*
X19846169Y-5724952D01*
X19718043Y-5537322D01*
X19618389Y-5331660D01*
X19547208Y-5107966D01*
X19504499Y-4866240D01*
X19490263Y-4606483D01*
X19502981Y-4352418D01*
X19541134Y-4114108D01*
X19604722Y-3891551D01*
X19693745Y-3684749D01*
X19808204Y-3493701D01*
X19948098Y-3318406D01*
X20113804Y-3159722D01*
X20296594Y-3029890D01*
X20496466Y-2928909D01*
X20713422Y-2856780D01*
X20947461Y-2813502D01*
X21198583Y-2799076D01*
X21453055Y-2818210D01*
X21691674Y-2875609D01*
X21914439Y-2971275D01*
X22121350Y-3105207D01*
X22312407Y-3277406D01*
X22477228Y-3475982D01*
X22605421Y-3689044D01*
X22696988Y-3916593D01*
X22751928Y-4158630D01*
X22770242Y-4415153D01*
X22770213Y-4415134D01*
G36*
X24396532Y-4213551D02*
X24396720Y-4512411D01*
X24397281Y-4787165D01*
X24398217Y-5037813D01*
X24399527Y-5264356D01*
X24401212Y-5466792D01*
X24403271Y-5645123D01*
X24413475Y-5915036D01*
X24423680Y-6184948D01*
X24338291Y-6270337D01*
X24123044Y-6290842D01*
X23784796Y-6297677D01*
X23449109Y-6290842D01*
X23262049Y-6270337D01*
X23176660Y-6178113D01*
X23176660Y-6031201D01*
X23177082Y-5860367D01*
X23178345Y-5651951D01*
X23180451Y-5405954D01*
X23183399Y-5122376D01*
X23186347Y-4837513D01*
X23188453Y-4591088D01*
X23189717Y-4383100D01*
X23190138Y-4213551D01*
X23190245Y-3778594D01*
X23190566Y-3430381D01*
X23191100Y-3168914D01*
X23191849Y-2994191D01*
X23192812Y-2906213D01*
X23193988Y-2904979D01*
X23187307Y-2611285D01*
X23175428Y-2334264D01*
X23158350Y-2073917D01*
X23136074Y-1830243D01*
X23108600Y-1603242D01*
X23101861Y-1545193D01*
X23190715Y-1470009D01*
X24410452Y-1470009D01*
X24489006Y-1541728D01*
X24485155Y-1603242D01*
X24468273Y-1895022D01*
X24453168Y-2179968D01*
X24439840Y-2458082D01*
X24428289Y-2729362D01*
X24418515Y-2993809D01*
X24410518Y-3251424D01*
X24404298Y-3502205D01*
X24399855Y-3746154D01*
X24397190Y-3983269D01*
X24396301Y-4213551D01*
X24396532Y-4213551D01*
X24396532Y-4213551D01*
G37*
X24396532Y-4213551D02*
X24396720Y-4512411D01*
X24397281Y-4787165D01*
X24398217Y-5037813D01*
X24399527Y-5264356D01*
X24401212Y-5466792D01*
X24403271Y-5645123D01*
X24413475Y-5915036D01*
X24423680Y-6184948D01*
X24338291Y-6270337D01*
X24123044Y-6290842D01*
X23784796Y-6297677D01*
X23449109Y-6290842D01*
X23262049Y-6270337D01*
X23176660Y-6178113D01*
X23176660Y-6031201D01*
X23177082Y-5860367D01*
X23178345Y-5651951D01*
X23180451Y-5405954D01*
X23183399Y-5122376D01*
X23186347Y-4837513D01*
X23188453Y-4591088D01*
X23189717Y-4383100D01*
X23190138Y-4213551D01*
X23190245Y-3778594D01*
X23190566Y-3430381D01*
X23191100Y-3168914D01*
X23191849Y-2994191D01*
X23192812Y-2906213D01*
X23193988Y-2904979D01*
X23187307Y-2611285D01*
X23175428Y-2334264D01*
X23158350Y-2073917D01*
X23136074Y-1830243D01*
X23108600Y-1603242D01*
X23101861Y-1545193D01*
X23190715Y-1470009D01*
X24410452Y-1470009D01*
X24489006Y-1541728D01*
X24485155Y-1603242D01*
X24468273Y-1895022D01*
X24453168Y-2179968D01*
X24439840Y-2458082D01*
X24428289Y-2729362D01*
X24418515Y-2993809D01*
X24410518Y-3251424D01*
X24404298Y-3502205D01*
X24399855Y-3746154D01*
X24397190Y-3983269D01*
X24396301Y-4213551D01*
X24396532Y-4213551D01*
G36*
X28154831Y-4415134D02*
X26959045Y-4206736D01*
X26921463Y-4007714D01*
X26808715Y-3834318D01*
X26643863Y-3713882D01*
X26449968Y-3673736D01*
X26253509Y-3719008D01*
X26094638Y-3854823D01*
X25997262Y-4036760D01*
X25964803Y-4247736D01*
X26060492Y-4339959D01*
X26260173Y-4331231D01*
X26522114Y-4305046D01*
X26846317Y-4261406D01*
X26959064Y-4206726D01*
X26959045Y-4206736D01*
X28154831Y-4415134D01*
X28130155Y-4612158D01*
X28056126Y-4743129D01*
X27932744Y-4808046D01*
X27837475Y-4819395D01*
X27601728Y-4844456D01*
X27225502Y-4883230D01*
X27048383Y-4901668D01*
X26839559Y-4921478D01*
X26599029Y-4942661D01*
X26326793Y-4965216D01*
X26022852Y-4989143D01*
X26119376Y-5184745D01*
X26313259Y-5327395D01*
X26525092Y-5399162D01*
X26764259Y-5423084D01*
X26967357Y-5404862D01*
X27171215Y-5350195D01*
X27375832Y-5259084D01*
X27505667Y-5177075D01*
X27635501Y-5095084D01*
X27731152Y-5199298D01*
X27874666Y-5443589D01*
X28002792Y-5700691D01*
X28045501Y-5843336D01*
X27994287Y-5921890D01*
X27842530Y-6058648D01*
X27665149Y-6170541D01*
X27462144Y-6257569D01*
X27233515Y-6319732D01*
X26979262Y-6357030D01*
X26699385Y-6369463D01*
X26437062Y-6356271D01*
X26192202Y-6316695D01*
X25964805Y-6250735D01*
X25754872Y-6158390D01*
X25562402Y-6039662D01*
X25387396Y-5894550D01*
X25230800Y-5724952D01*
X25102676Y-5537322D01*
X25003024Y-5331660D01*
X24931845Y-5107966D01*
X24889137Y-4866240D01*
X24874901Y-4606483D01*
X24887618Y-4352418D01*
X24925770Y-4114108D01*
X24989357Y-3891551D01*
X25078378Y-3684749D01*
X25192835Y-3493701D01*
X25332726Y-3318406D01*
X25498432Y-3159722D01*
X25681222Y-3029890D01*
X25881094Y-2928909D01*
X26098050Y-2856780D01*
X26332089Y-2813502D01*
X26583210Y-2799076D01*
X26837683Y-2818210D01*
X27076302Y-2875609D01*
X27299067Y-2971275D01*
X27505978Y-3105207D01*
X27697035Y-3277406D01*
X27861855Y-3475982D01*
X27990049Y-3689044D01*
X28081616Y-3916593D01*
X28136556Y-4158630D01*
X28154870Y-4415153D01*
X28154831Y-4415134D01*
X28154831Y-4415134D01*
G37*
X28154831Y-4415134D02*
X26959045Y-4206736D01*
X26921463Y-4007714D01*
X26808715Y-3834318D01*
X26643863Y-3713882D01*
X26449968Y-3673736D01*
X26253509Y-3719008D01*
X26094638Y-3854823D01*
X25997262Y-4036760D01*
X25964803Y-4247736D01*
X26060492Y-4339959D01*
X26260173Y-4331231D01*
X26522114Y-4305046D01*
X26846317Y-4261406D01*
X26959064Y-4206726D01*
X26959045Y-4206736D01*
X28154831Y-4415134D01*
X28130155Y-4612158D01*
X28056126Y-4743129D01*
X27932744Y-4808046D01*
X27837475Y-4819395D01*
X27601728Y-4844456D01*
X27225502Y-4883230D01*
X27048383Y-4901668D01*
X26839559Y-4921478D01*
X26599029Y-4942661D01*
X26326793Y-4965216D01*
X26022852Y-4989143D01*
X26119376Y-5184745D01*
X26313259Y-5327395D01*
X26525092Y-5399162D01*
X26764259Y-5423084D01*
X26967357Y-5404862D01*
X27171215Y-5350195D01*
X27375832Y-5259084D01*
X27505667Y-5177075D01*
X27635501Y-5095084D01*
X27731152Y-5199298D01*
X27874666Y-5443589D01*
X28002792Y-5700691D01*
X28045501Y-5843336D01*
X27994287Y-5921890D01*
X27842530Y-6058648D01*
X27665149Y-6170541D01*
X27462144Y-6257569D01*
X27233515Y-6319732D01*
X26979262Y-6357030D01*
X26699385Y-6369463D01*
X26437062Y-6356271D01*
X26192202Y-6316695D01*
X25964805Y-6250735D01*
X25754872Y-6158390D01*
X25562402Y-6039662D01*
X25387396Y-5894550D01*
X25230800Y-5724952D01*
X25102676Y-5537322D01*
X25003024Y-5331660D01*
X24931845Y-5107966D01*
X24889137Y-4866240D01*
X24874901Y-4606483D01*
X24887618Y-4352418D01*
X24925770Y-4114108D01*
X24989357Y-3891551D01*
X25078378Y-3684749D01*
X25192835Y-3493701D01*
X25332726Y-3318406D01*
X25498432Y-3159722D01*
X25681222Y-3029890D01*
X25881094Y-2928909D01*
X26098050Y-2856780D01*
X26332089Y-2813502D01*
X26583210Y-2799076D01*
X26837683Y-2818210D01*
X27076302Y-2875609D01*
X27299067Y-2971275D01*
X27505978Y-3105207D01*
X27697035Y-3277406D01*
X27861855Y-3475982D01*
X27990049Y-3689044D01*
X28081616Y-3916593D01*
X28136556Y-4158630D01*
X28154870Y-4415153D01*
X28154831Y-4415134D01*
G36*
X30799305Y-4022221D02*
X30590888Y-3967542D01*
X30408097Y-3926532D01*
X30262888Y-3912862D01*
X29989561Y-3958989D01*
X29777733Y-4097367D01*
X29641918Y-4309195D01*
X29596646Y-4582522D01*
X29618664Y-4777271D01*
X29684719Y-4942410D01*
X29794811Y-5077939D01*
X29940208Y-5176639D01*
X30112178Y-5235860D01*
X30310723Y-5255600D01*
X30470451Y-5236803D01*
X30648975Y-5180415D01*
X30826635Y-5101862D01*
X30893242Y-5210340D01*
X30976965Y-5535774D01*
X31035881Y-5865480D01*
X31055519Y-6061939D01*
X30949604Y-6182376D01*
X30631859Y-6284016D01*
X30335464Y-6337805D01*
X30102277Y-6355735D01*
X29859032Y-6341689D01*
X29630402Y-6299549D01*
X29416389Y-6229318D01*
X29216992Y-6130993D01*
X29032210Y-6004576D01*
X28862045Y-5850065D01*
X28712756Y-5674584D01*
X28590610Y-5485246D01*
X28495608Y-5282051D01*
X28427749Y-5065000D01*
X28387034Y-4834092D01*
X28373462Y-4589328D01*
X28387034Y-4346558D01*
X28427749Y-4117074D01*
X28495608Y-3900877D01*
X28590610Y-3697967D01*
X28712756Y-3508345D01*
X28862045Y-3332009D01*
X29033159Y-3175413D01*
X29218510Y-3047289D01*
X29418098Y-2947637D01*
X29631921Y-2876458D01*
X29859981Y-2833750D01*
X30102277Y-2819514D01*
X30349132Y-2833180D01*
X30580612Y-2874179D01*
X30796715Y-2942510D01*
X30997441Y-3038174D01*
X31086296Y-3130397D01*
X31060669Y-3253378D01*
X30983791Y-3533562D01*
X30904342Y-3810307D01*
X30857373Y-3950387D01*
X30799325Y-4022106D01*
X30799305Y-4022221D01*
X30799305Y-4022221D01*
G37*
X30799305Y-4022221D02*
X30590888Y-3967542D01*
X30408097Y-3926532D01*
X30262888Y-3912862D01*
X29989561Y-3958989D01*
X29777733Y-4097367D01*
X29641918Y-4309195D01*
X29596646Y-4582522D01*
X29618664Y-4777271D01*
X29684719Y-4942410D01*
X29794811Y-5077939D01*
X29940208Y-5176639D01*
X30112178Y-5235860D01*
X30310723Y-5255600D01*
X30470451Y-5236803D01*
X30648975Y-5180415D01*
X30826635Y-5101862D01*
X30893242Y-5210340D01*
X30976965Y-5535774D01*
X31035881Y-5865480D01*
X31055519Y-6061939D01*
X30949604Y-6182376D01*
X30631859Y-6284016D01*
X30335464Y-6337805D01*
X30102277Y-6355735D01*
X29859032Y-6341689D01*
X29630402Y-6299549D01*
X29416389Y-6229318D01*
X29216992Y-6130993D01*
X29032210Y-6004576D01*
X28862045Y-5850065D01*
X28712756Y-5674584D01*
X28590610Y-5485246D01*
X28495608Y-5282051D01*
X28427749Y-5065000D01*
X28387034Y-4834092D01*
X28373462Y-4589328D01*
X28387034Y-4346558D01*
X28427749Y-4117074D01*
X28495608Y-3900877D01*
X28590610Y-3697967D01*
X28712756Y-3508345D01*
X28862045Y-3332009D01*
X29033159Y-3175413D01*
X29218510Y-3047289D01*
X29418098Y-2947637D01*
X29631921Y-2876458D01*
X29859981Y-2833750D01*
X30102277Y-2819514D01*
X30349132Y-2833180D01*
X30580612Y-2874179D01*
X30796715Y-2942510D01*
X30997441Y-3038174D01*
X31086296Y-3130397D01*
X31060669Y-3253378D01*
X30983791Y-3533562D01*
X30904342Y-3810307D01*
X30857373Y-3950387D01*
X30799325Y-4022106D01*
X30799305Y-4022221D01*
G36*
X33734197Y-5269289D02*
X33727362Y-5398264D01*
X33706857Y-5580201D01*
X33688879Y-5761284D01*
X33682887Y-5887696D01*
X33662382Y-6010696D01*
X33549634Y-6089250D01*
X33323281Y-6195379D01*
X33084970Y-6271186D01*
X32834699Y-6316671D01*
X32572470Y-6331832D01*
X32310505Y-6316422D01*
X32088842Y-6270193D01*
X31907481Y-6193144D01*
X31766423Y-6085276D01*
X31665667Y-5946588D01*
X31605214Y-5777081D01*
X31585063Y-5576755D01*
X31586956Y-5401369D01*
X31592636Y-5175870D01*
X31602102Y-4900260D01*
X31611568Y-4622756D01*
X31617248Y-4396122D01*
X31619141Y-4220357D01*
X31575581Y-4107603D01*
X31444899Y-4070018D01*
X31400520Y-4070018D01*
X31356141Y-4073868D01*
X31226306Y-3981645D01*
X31233044Y-3814228D01*
X31243249Y-3646810D01*
X31233044Y-3428150D01*
X31226306Y-3209480D01*
X31280973Y-3156510D01*
X31444976Y-3134296D01*
X31578218Y-3065947D01*
X31591888Y-2898529D01*
X31591888Y-2655947D01*
X31581636Y-2330513D01*
X31578218Y-2235705D01*
X31597014Y-1938457D01*
X31653402Y-1839375D01*
X31916490Y-1880384D01*
X32186402Y-1931598D01*
X32405069Y-1959804D01*
X32712567Y-1996482D01*
X32797955Y-2054531D01*
X32791963Y-2226220D01*
X32773985Y-2467948D01*
X32758606Y-2710528D01*
X32753480Y-2884773D01*
X32852558Y-3052190D01*
X33002890Y-3049639D01*
X33214723Y-3041986D01*
X33427409Y-3034333D01*
X33580305Y-3031782D01*
X33655489Y-3082996D01*
X33638354Y-3318743D01*
X33621315Y-3554491D01*
X33625165Y-3793655D01*
X33629016Y-4032820D01*
X33529929Y-4104539D01*
X33301016Y-4100688D01*
X33072104Y-4093950D01*
X32815851Y-4093950D01*
X32764637Y-4244280D01*
X32764637Y-4486862D01*
X32768488Y-4729444D01*
X32784709Y-4972022D01*
X32833372Y-5125774D01*
X32970025Y-5235959D01*
X33195537Y-5272687D01*
X33438109Y-5235143D01*
X33663614Y-5194133D01*
X33735333Y-5269318D01*
X33734197Y-5269289D01*
X33734197Y-5269289D01*
G37*
X33734197Y-5269289D02*
X33727362Y-5398264D01*
X33706857Y-5580201D01*
X33688879Y-5761284D01*
X33682887Y-5887696D01*
X33662382Y-6010696D01*
X33549634Y-6089250D01*
X33323281Y-6195379D01*
X33084970Y-6271186D01*
X32834699Y-6316671D01*
X32572470Y-6331832D01*
X32310505Y-6316422D01*
X32088842Y-6270193D01*
X31907481Y-6193144D01*
X31766423Y-6085276D01*
X31665667Y-5946588D01*
X31605214Y-5777081D01*
X31585063Y-5576755D01*
X31586956Y-5401369D01*
X31592636Y-5175870D01*
X31602102Y-4900260D01*
X31611568Y-4622756D01*
X31617248Y-4396122D01*
X31619141Y-4220357D01*
X31575581Y-4107603D01*
X31444899Y-4070018D01*
X31400520Y-4070018D01*
X31356141Y-4073868D01*
X31226306Y-3981645D01*
X31233044Y-3814228D01*
X31243249Y-3646810D01*
X31233044Y-3428150D01*
X31226306Y-3209480D01*
X31280973Y-3156510D01*
X31444976Y-3134296D01*
X31578218Y-3065947D01*
X31591888Y-2898529D01*
X31591888Y-2655947D01*
X31581636Y-2330513D01*
X31578218Y-2235705D01*
X31597014Y-1938457D01*
X31653402Y-1839375D01*
X31916490Y-1880384D01*
X32186402Y-1931598D01*
X32405069Y-1959804D01*
X32712567Y-1996482D01*
X32797955Y-2054531D01*
X32791963Y-2226220D01*
X32773985Y-2467948D01*
X32758606Y-2710528D01*
X32753480Y-2884773D01*
X32852558Y-3052190D01*
X33002890Y-3049639D01*
X33214723Y-3041986D01*
X33427409Y-3034333D01*
X33580305Y-3031782D01*
X33655489Y-3082996D01*
X33638354Y-3318743D01*
X33621315Y-3554491D01*
X33625165Y-3793655D01*
X33629016Y-4032820D01*
X33529929Y-4104539D01*
X33301016Y-4100688D01*
X33072104Y-4093950D01*
X32815851Y-4093950D01*
X32764637Y-4244280D01*
X32764637Y-4486862D01*
X32768488Y-4729444D01*
X32784709Y-4972022D01*
X32833372Y-5125774D01*
X32970025Y-5235959D01*
X33195537Y-5272687D01*
X33438109Y-5235143D01*
X33663614Y-5194133D01*
X33735333Y-5269318D01*
X33734197Y-5269289D01*
G36*
X36365001Y-4141794D02*
X36218089Y-4275047D01*
X36026759Y-4268308D01*
X35842264Y-4258104D01*
X35603951Y-4280317D01*
X35456176Y-4346958D01*
X35379305Y-4481072D01*
X35353681Y-4705705D01*
X35354644Y-4891062D01*
X35357532Y-5153287D01*
X35362586Y-5412950D01*
X35364271Y-5597452D01*
X35367688Y-5721302D01*
X35377941Y-5894695D01*
X35388193Y-6064673D01*
X35391610Y-6185112D01*
X35278863Y-6277335D01*
X35071300Y-6287588D01*
X34776611Y-6291005D01*
X34484494Y-6285879D01*
X34257291Y-6270500D01*
X34144534Y-6157753D01*
X34144961Y-5945542D01*
X34146245Y-5673348D01*
X34148384Y-5341171D01*
X34150523Y-5007101D01*
X34151807Y-4733771D01*
X34152235Y-4521181D01*
X34146358Y-4211360D01*
X34128729Y-3924225D01*
X34099346Y-3659776D01*
X34058211Y-3418014D01*
X34005322Y-3198939D01*
X33998584Y-3147725D01*
X34049797Y-3079376D01*
X34281273Y-3050328D01*
X34599875Y-3004192D01*
X34901676Y-2945351D01*
X35087314Y-2910047D01*
X35156787Y-2898279D01*
X35235341Y-3113522D01*
X35296855Y-3328774D01*
X35342974Y-3284359D01*
X35577020Y-3151114D01*
X35793029Y-3050510D01*
X36003721Y-2990147D01*
X36209097Y-2970027D01*
X36400437Y-3052046D01*
X36379932Y-3332211D01*
X36356058Y-3612376D01*
X36359909Y-3875453D01*
X36366647Y-4141948D01*
X36365001Y-4141794D01*
X36365001Y-4141794D01*
G37*
X36365001Y-4141794D02*
X36218089Y-4275047D01*
X36026759Y-4268308D01*
X35842264Y-4258104D01*
X35603951Y-4280317D01*
X35456176Y-4346958D01*
X35379305Y-4481072D01*
X35353681Y-4705705D01*
X35354644Y-4891062D01*
X35357532Y-5153287D01*
X35362586Y-5412950D01*
X35364271Y-5597452D01*
X35367688Y-5721302D01*
X35377941Y-5894695D01*
X35388193Y-6064673D01*
X35391610Y-6185112D01*
X35278863Y-6277335D01*
X35071300Y-6287588D01*
X34776611Y-6291005D01*
X34484494Y-6285879D01*
X34257291Y-6270500D01*
X34144534Y-6157753D01*
X34144961Y-5945542D01*
X34146245Y-5673348D01*
X34148384Y-5341171D01*
X34150523Y-5007101D01*
X34151807Y-4733771D01*
X34152235Y-4521181D01*
X34146358Y-4211360D01*
X34128729Y-3924225D01*
X34099346Y-3659776D01*
X34058211Y-3418014D01*
X34005322Y-3198939D01*
X33998584Y-3147725D01*
X34049797Y-3079376D01*
X34281273Y-3050328D01*
X34599875Y-3004192D01*
X34901676Y-2945351D01*
X35087314Y-2910047D01*
X35156787Y-2898279D01*
X35235341Y-3113522D01*
X35296855Y-3328774D01*
X35342974Y-3284359D01*
X35577020Y-3151114D01*
X35793029Y-3050510D01*
X36003721Y-2990147D01*
X36209097Y-2970027D01*
X36400437Y-3052046D01*
X36379932Y-3332211D01*
X36356058Y-3612376D01*
X36359909Y-3875453D01*
X36366647Y-4141948D01*
X36365001Y-4141794D01*
G36*
X40051552Y-4589376D02*
X38930893Y-4589376D01*
X38889041Y-4335692D01*
X38763485Y-4114464D01*
X38571298Y-3958151D01*
X38329573Y-3906047D01*
X38083571Y-3959005D01*
X37885408Y-4117882D01*
X37762408Y-4334838D01*
X37721408Y-4589376D01*
X37762408Y-4846478D01*
X37885408Y-5064289D01*
X38083571Y-5223165D01*
X38329573Y-5276124D01*
X38573007Y-5223165D01*
X38770320Y-5064289D01*
X38890750Y-4846478D01*
X38930893Y-4589376D01*
X40051552Y-4589376D01*
X40038266Y-4840881D01*
X39998405Y-5076060D01*
X39931970Y-5294915D01*
X39838961Y-5497445D01*
X39719379Y-5683650D01*
X39573223Y-5853531D01*
X39406567Y-6001776D01*
X39223208Y-6123067D01*
X39023145Y-6217405D01*
X38806379Y-6284789D01*
X38572910Y-6325219D01*
X38322738Y-6338696D01*
X38079587Y-6325409D01*
X37851242Y-6285548D01*
X37637702Y-6219113D01*
X37438967Y-6126105D01*
X37255038Y-6006522D01*
X37085913Y-5860366D01*
X36937669Y-5693330D01*
X36816377Y-5511109D01*
X36722040Y-5313704D01*
X36654656Y-5101113D01*
X36614225Y-4873337D01*
X36600749Y-4630376D01*
X36613656Y-4374508D01*
X36652379Y-4135344D01*
X36716916Y-3912884D01*
X36807268Y-3707128D01*
X36923436Y-3518075D01*
X37065418Y-3345727D01*
X37229416Y-3194349D01*
X37411636Y-3070495D01*
X37612078Y-2974164D01*
X37830742Y-2905356D01*
X38067629Y-2864071D01*
X38322738Y-2850309D01*
X38571961Y-2863786D01*
X38804861Y-2904217D01*
X39021437Y-2971601D01*
X39221689Y-3065938D01*
X39405618Y-3187229D01*
X39573223Y-3335474D01*
X39719379Y-3504124D01*
X39838961Y-3688907D01*
X39931970Y-3889823D01*
X39998405Y-4106874D01*
X40038266Y-4340058D01*
X40051552Y-4589376D01*
X40051552Y-4589376D01*
G37*
X40051552Y-4589376D02*
X38930893Y-4589376D01*
X38889041Y-4335692D01*
X38763485Y-4114464D01*
X38571298Y-3958151D01*
X38329573Y-3906047D01*
X38083571Y-3959005D01*
X37885408Y-4117882D01*
X37762408Y-4334838D01*
X37721408Y-4589376D01*
X37762408Y-4846478D01*
X37885408Y-5064289D01*
X38083571Y-5223165D01*
X38329573Y-5276124D01*
X38573007Y-5223165D01*
X38770320Y-5064289D01*
X38890750Y-4846478D01*
X38930893Y-4589376D01*
X40051552Y-4589376D01*
X40038266Y-4840881D01*
X39998405Y-5076060D01*
X39931970Y-5294915D01*
X39838961Y-5497445D01*
X39719379Y-5683650D01*
X39573223Y-5853531D01*
X39406567Y-6001776D01*
X39223208Y-6123067D01*
X39023145Y-6217405D01*
X38806379Y-6284789D01*
X38572910Y-6325219D01*
X38322738Y-6338696D01*
X38079587Y-6325409D01*
X37851242Y-6285548D01*
X37637702Y-6219113D01*
X37438967Y-6126105D01*
X37255038Y-6006522D01*
X37085913Y-5860366D01*
X36937669Y-5693330D01*
X36816377Y-5511109D01*
X36722040Y-5313704D01*
X36654656Y-5101113D01*
X36614225Y-4873337D01*
X36600749Y-4630376D01*
X36613656Y-4374508D01*
X36652379Y-4135344D01*
X36716916Y-3912884D01*
X36807268Y-3707128D01*
X36923436Y-3518075D01*
X37065418Y-3345727D01*
X37229416Y-3194349D01*
X37411636Y-3070495D01*
X37612078Y-2974164D01*
X37830742Y-2905356D01*
X38067629Y-2864071D01*
X38322738Y-2850309D01*
X38571961Y-2863786D01*
X38804861Y-2904217D01*
X39021437Y-2971601D01*
X39221689Y-3065938D01*
X39405618Y-3187229D01*
X39573223Y-3335474D01*
X39719379Y-3504124D01*
X39838961Y-3688907D01*
X39931970Y-3889823D01*
X39998405Y-4106874D01*
X40038266Y-4340058D01*
X40051552Y-4589376D01*
G36*
X43864521Y-6171278D02*
X43768832Y-6277201D01*
X43596279Y-6287453D01*
X43269997Y-6290871D01*
X42921502Y-6285744D01*
X42737007Y-6270366D01*
X42634503Y-6130278D01*
X42637078Y-5928698D01*
X42644803Y-5645123D01*
X42652456Y-5360687D01*
X42655007Y-5156541D01*
X42653323Y-4999374D01*
X42648269Y-4780706D01*
X42643215Y-4559483D01*
X42641530Y-4401464D01*
X42616119Y-4196680D01*
X42539885Y-4050406D01*
X42412828Y-3962641D01*
X42234948Y-3933386D01*
X42090598Y-3962428D01*
X41924035Y-4049551D01*
X41780538Y-4178530D01*
X41732705Y-4305794D01*
X41732705Y-6150783D01*
X41626793Y-6277201D01*
X41444856Y-6287453D01*
X41138211Y-6290871D01*
X40808504Y-6285744D01*
X40618881Y-6270366D01*
X40512968Y-6157618D01*
X40513396Y-5949959D01*
X40514680Y-5682322D01*
X40516819Y-5354706D01*
X40518958Y-5026706D01*
X40520242Y-4757930D01*
X40520670Y-4548376D01*
X40515339Y-4222704D01*
X40499349Y-3926278D01*
X40472699Y-3659098D01*
X40435388Y-3421163D01*
X40387417Y-3212474D01*
X40380679Y-3161260D01*
X40431892Y-3086076D01*
X40591332Y-3067112D01*
X40782662Y-3042050D01*
X41005882Y-3010892D01*
X41315281Y-2952052D01*
X41519142Y-2916747D01*
X41617465Y-2904979D01*
X41675513Y-3137309D01*
X41733562Y-3366222D01*
X41806186Y-3307285D01*
X42099144Y-3130474D01*
X42358806Y-2997605D01*
X42595692Y-2917883D01*
X42809804Y-2891309D01*
X43083134Y-2914087D01*
X43324574Y-2982420D01*
X43534124Y-3096309D01*
X43714448Y-3273974D01*
X43822642Y-3492637D01*
X43858707Y-3752299D01*
X43858707Y-4842211D01*
X43859134Y-5014939D01*
X43860418Y-5237020D01*
X43862557Y-5508454D01*
X43864697Y-5777988D01*
X43865980Y-5998930D01*
X43866408Y-6171278D01*
X43864521Y-6171278D01*
X43864521Y-6171278D01*
G37*
X43864521Y-6171278D02*
X43768832Y-6277201D01*
X43596279Y-6287453D01*
X43269997Y-6290871D01*
X42921502Y-6285744D01*
X42737007Y-6270366D01*
X42634503Y-6130278D01*
X42637078Y-5928698D01*
X42644803Y-5645123D01*
X42652456Y-5360687D01*
X42655007Y-5156541D01*
X42653323Y-4999374D01*
X42648269Y-4780706D01*
X42643215Y-4559483D01*
X42641530Y-4401464D01*
X42616119Y-4196680D01*
X42539885Y-4050406D01*
X42412828Y-3962641D01*
X42234948Y-3933386D01*
X42090598Y-3962428D01*
X41924035Y-4049551D01*
X41780538Y-4178530D01*
X41732705Y-4305794D01*
X41732705Y-6150783D01*
X41626793Y-6277201D01*
X41444856Y-6287453D01*
X41138211Y-6290871D01*
X40808504Y-6285744D01*
X40618881Y-6270366D01*
X40512968Y-6157618D01*
X40513396Y-5949959D01*
X40514680Y-5682322D01*
X40516819Y-5354706D01*
X40518958Y-5026706D01*
X40520242Y-4757930D01*
X40520670Y-4548376D01*
X40515339Y-4222704D01*
X40499349Y-3926278D01*
X40472699Y-3659098D01*
X40435388Y-3421163D01*
X40387417Y-3212474D01*
X40380679Y-3161260D01*
X40431892Y-3086076D01*
X40591332Y-3067112D01*
X40782662Y-3042050D01*
X41005882Y-3010892D01*
X41315281Y-2952052D01*
X41519142Y-2916747D01*
X41617465Y-2904979D01*
X41675513Y-3137309D01*
X41733562Y-3366222D01*
X41806186Y-3307285D01*
X42099144Y-3130474D01*
X42358806Y-2997605D01*
X42595692Y-2917883D01*
X42809804Y-2891309D01*
X43083134Y-2914087D01*
X43324574Y-2982420D01*
X43534124Y-3096309D01*
X43714448Y-3273974D01*
X43822642Y-3492637D01*
X43858707Y-3752299D01*
X43858707Y-4842211D01*
X43859134Y-5014939D01*
X43860418Y-5237020D01*
X43862557Y-5508454D01*
X43864697Y-5777988D01*
X43865980Y-5998930D01*
X43866408Y-6171278D01*
X43864521Y-6171278D01*
G36*
X45784675Y-2163562D02*
X45695831Y-3024581D01*
X45777850Y-3092930D01*
X45771111Y-3157814D01*
X45748138Y-3385782D01*
X45729342Y-3625517D01*
X45714723Y-3877020D01*
X45704281Y-4140290D01*
X45698015Y-4415328D01*
X45695927Y-4702134D01*
X45695821Y-4702124D01*
X45696955Y-4895735D01*
X45700356Y-5144014D01*
X45706025Y-5446958D01*
X45711694Y-5747620D01*
X45715096Y-5993616D01*
X45716230Y-6184948D01*
X45630841Y-6270337D01*
X45442072Y-6285715D01*
X45108094Y-6290842D01*
X44771553Y-6285715D01*
X44581929Y-6270337D01*
X44489706Y-6225958D01*
X44482967Y-6123453D01*
X44484101Y-5940094D01*
X44487502Y-5704347D01*
X44493171Y-5416211D01*
X44498840Y-5125797D01*
X44502242Y-4887771D01*
X44503376Y-4702134D01*
X44501287Y-4389703D01*
X44495022Y-4099289D01*
X44484580Y-3830894D01*
X44469960Y-3584516D01*
X44451164Y-3360156D01*
X44428191Y-3157814D01*
X44421453Y-3086095D01*
X44513676Y-3017746D01*
X44634125Y-3022872D01*
X44804093Y-3038251D01*
X44977486Y-3053629D01*
X45101336Y-3058756D01*
X45225193Y-3054472D01*
X45398588Y-3041620D01*
X45571981Y-3028841D01*
X45695831Y-3024581D01*
X45784675Y-2163562D01*
X45757889Y-2377580D01*
X45677530Y-2544039D01*
X45543598Y-2662938D01*
X45356093Y-2734277D01*
X45115015Y-2758057D01*
X44852787Y-2720475D01*
X44640103Y-2607727D01*
X44486353Y-2414686D01*
X44435103Y-2163562D01*
X44488060Y-1920982D01*
X44646928Y-1726232D01*
X44861329Y-1608359D01*
X45115015Y-1569068D01*
X45363574Y-1609213D01*
X45576258Y-1729650D01*
X45732571Y-1923545D01*
X45784675Y-2163562D01*
X45784675Y-2163562D01*
G37*
X45784675Y-2163562D02*
X45695831Y-3024581D01*
X45777850Y-3092930D01*
X45771111Y-3157814D01*
X45748138Y-3385782D01*
X45729342Y-3625517D01*
X45714723Y-3877020D01*
X45704281Y-4140290D01*
X45698015Y-4415328D01*
X45695927Y-4702134D01*
X45695821Y-4702124D01*
X45696955Y-4895735D01*
X45700356Y-5144014D01*
X45706025Y-5446958D01*
X45711694Y-5747620D01*
X45715096Y-5993616D01*
X45716230Y-6184948D01*
X45630841Y-6270337D01*
X45442072Y-6285715D01*
X45108094Y-6290842D01*
X44771553Y-6285715D01*
X44581929Y-6270337D01*
X44489706Y-6225958D01*
X44482967Y-6123453D01*
X44484101Y-5940094D01*
X44487502Y-5704347D01*
X44493171Y-5416211D01*
X44498840Y-5125797D01*
X44502242Y-4887771D01*
X44503376Y-4702134D01*
X44501287Y-4389703D01*
X44495022Y-4099289D01*
X44484580Y-3830894D01*
X44469960Y-3584516D01*
X44451164Y-3360156D01*
X44428191Y-3157814D01*
X44421453Y-3086095D01*
X44513676Y-3017746D01*
X44634125Y-3022872D01*
X44804093Y-3038251D01*
X44977486Y-3053629D01*
X45101336Y-3058756D01*
X45225193Y-3054472D01*
X45398588Y-3041620D01*
X45571981Y-3028841D01*
X45695831Y-3024581D01*
X45784675Y-2163562D01*
X45757889Y-2377580D01*
X45677530Y-2544039D01*
X45543598Y-2662938D01*
X45356093Y-2734277D01*
X45115015Y-2758057D01*
X44852787Y-2720475D01*
X44640103Y-2607727D01*
X44486353Y-2414686D01*
X44435103Y-2163562D01*
X44488060Y-1920982D01*
X44646928Y-1726232D01*
X44861329Y-1608359D01*
X45115015Y-1569068D01*
X45363574Y-1609213D01*
X45576258Y-1729650D01*
X45732571Y-1923545D01*
X45784675Y-2163562D01*
G36*
X48620479Y-4022221D02*
X48412062Y-3967542D01*
X48229273Y-3926532D01*
X48084072Y-3912862D01*
X47810737Y-3958989D01*
X47598907Y-4097367D01*
X47463092Y-4309195D01*
X47417820Y-4582522D01*
X47439838Y-4777271D01*
X47505893Y-4942410D01*
X47615985Y-5077939D01*
X47761382Y-5176639D01*
X47933353Y-5235860D01*
X48131897Y-5255600D01*
X48291630Y-5236803D01*
X48470149Y-5180415D01*
X48647810Y-5101862D01*
X48714419Y-5210340D01*
X48798149Y-5535774D01*
X48857064Y-5865480D01*
X48876703Y-6061939D01*
X48770785Y-6182376D01*
X48453033Y-6284016D01*
X48156645Y-6337805D01*
X47923461Y-6355735D01*
X47680215Y-6341689D01*
X47451585Y-6299549D01*
X47237570Y-6229318D01*
X47038171Y-6130993D01*
X46853387Y-6004576D01*
X46683219Y-5850065D01*
X46533930Y-5674584D01*
X46411784Y-5485246D01*
X46316782Y-5282051D01*
X46248923Y-5065000D01*
X46208208Y-4834092D01*
X46194637Y-4589328D01*
X46208208Y-4346558D01*
X46248923Y-4117074D01*
X46316782Y-3900877D01*
X46411784Y-3697967D01*
X46533930Y-3508345D01*
X46683219Y-3332009D01*
X46854336Y-3175413D01*
X47039690Y-3047289D01*
X47239279Y-2947637D01*
X47453104Y-2876458D01*
X47681164Y-2833750D01*
X47923461Y-2819514D01*
X48170312Y-2833180D01*
X48401788Y-2874179D01*
X48617889Y-2942510D01*
X48818616Y-3038174D01*
X48907470Y-3130397D01*
X48881843Y-3253378D01*
X48804965Y-3533562D01*
X48725518Y-3810307D01*
X48678557Y-3950387D01*
X48620508Y-4022106D01*
X48620479Y-4022221D01*
X48620479Y-4022221D01*
G37*
X48620479Y-4022221D02*
X48412062Y-3967542D01*
X48229273Y-3926532D01*
X48084072Y-3912862D01*
X47810737Y-3958989D01*
X47598907Y-4097367D01*
X47463092Y-4309195D01*
X47417820Y-4582522D01*
X47439838Y-4777271D01*
X47505893Y-4942410D01*
X47615985Y-5077939D01*
X47761382Y-5176639D01*
X47933353Y-5235860D01*
X48131897Y-5255600D01*
X48291630Y-5236803D01*
X48470149Y-5180415D01*
X48647810Y-5101862D01*
X48714419Y-5210340D01*
X48798149Y-5535774D01*
X48857064Y-5865480D01*
X48876703Y-6061939D01*
X48770785Y-6182376D01*
X48453033Y-6284016D01*
X48156645Y-6337805D01*
X47923461Y-6355735D01*
X47680215Y-6341689D01*
X47451585Y-6299549D01*
X47237570Y-6229318D01*
X47038171Y-6130993D01*
X46853387Y-6004576D01*
X46683219Y-5850065D01*
X46533930Y-5674584D01*
X46411784Y-5485246D01*
X46316782Y-5282051D01*
X46248923Y-5065000D01*
X46208208Y-4834092D01*
X46194637Y-4589328D01*
X46208208Y-4346558D01*
X46248923Y-4117074D01*
X46316782Y-3900877D01*
X46411784Y-3697967D01*
X46533930Y-3508345D01*
X46683219Y-3332009D01*
X46854336Y-3175413D01*
X47039690Y-3047289D01*
X47239279Y-2947637D01*
X47453104Y-2876458D01*
X47681164Y-2833750D01*
X47923461Y-2819514D01*
X48170312Y-2833180D01*
X48401788Y-2874179D01*
X48617889Y-2942510D01*
X48818616Y-3038174D01*
X48907470Y-3130397D01*
X48881843Y-3253378D01*
X48804965Y-3533562D01*
X48725518Y-3810307D01*
X48678557Y-3950387D01*
X48620508Y-4022106D01*
X48620479Y-4022221D01*
G36*
X51268371Y-3506309D02*
X51217157Y-3598533D01*
X51025818Y-3574658D01*
X50840466Y-3596872D01*
X50687575Y-3663513D01*
X50564575Y-3787362D01*
X50523575Y-3953920D01*
X50567138Y-4089733D01*
X50697828Y-4258007D01*
X50910509Y-4489483D01*
X51022400Y-4630415D01*
X51119207Y-4807703D01*
X51177291Y-4993340D01*
X51196653Y-5187327D01*
X51179565Y-5366703D01*
X51128303Y-5556327D01*
X51039485Y-5742531D01*
X50930138Y-5870657D01*
X50752092Y-6008839D01*
X50555066Y-6131839D01*
X50339061Y-6239657D01*
X50101794Y-6326971D01*
X49877434Y-6379359D01*
X49665984Y-6396822D01*
X49554933Y-6304572D01*
X49358479Y-6027822D01*
X49181668Y-5728009D01*
X49122732Y-5573405D01*
X49160276Y-5535861D01*
X49400295Y-5491458D01*
X49642023Y-5447007D01*
X49867525Y-5320577D01*
X49942693Y-5132667D01*
X49899129Y-4970378D01*
X49768440Y-4784172D01*
X49531838Y-4520240D01*
X49443858Y-4418599D01*
X49347056Y-4251563D01*
X49288976Y-4078453D01*
X49269615Y-3899270D01*
X49290388Y-3700422D01*
X49352708Y-3513873D01*
X49456574Y-3339625D01*
X49601986Y-3177676D01*
X49788945Y-3028027D01*
X50025332Y-2889013D01*
X50269833Y-2789717D01*
X50522448Y-2730139D01*
X50783178Y-2710280D01*
X50877998Y-2802528D01*
X51053100Y-3079270D01*
X51214532Y-3368833D01*
X51268342Y-3506357D01*
X51268371Y-3506309D01*
X51268371Y-3506309D01*
G37*
X51268371Y-3506309D02*
X51217157Y-3598533D01*
X51025818Y-3574658D01*
X50840466Y-3596872D01*
X50687575Y-3663513D01*
X50564575Y-3787362D01*
X50523575Y-3953920D01*
X50567138Y-4089733D01*
X50697828Y-4258007D01*
X50910509Y-4489483D01*
X51022400Y-4630415D01*
X51119207Y-4807703D01*
X51177291Y-4993340D01*
X51196653Y-5187327D01*
X51179565Y-5366703D01*
X51128303Y-5556327D01*
X51039485Y-5742531D01*
X50930138Y-5870657D01*
X50752092Y-6008839D01*
X50555066Y-6131839D01*
X50339061Y-6239657D01*
X50101794Y-6326971D01*
X49877434Y-6379359D01*
X49665984Y-6396822D01*
X49554933Y-6304572D01*
X49358479Y-6027822D01*
X49181668Y-5728009D01*
X49122732Y-5573405D01*
X49160276Y-5535861D01*
X49400295Y-5491458D01*
X49642023Y-5447007D01*
X49867525Y-5320577D01*
X49942693Y-5132667D01*
X49899129Y-4970378D01*
X49768440Y-4784172D01*
X49531838Y-4520240D01*
X49443858Y-4418599D01*
X49347056Y-4251563D01*
X49288976Y-4078453D01*
X49269615Y-3899270D01*
X49290388Y-3700422D01*
X49352708Y-3513873D01*
X49456574Y-3339625D01*
X49601986Y-3177676D01*
X49788945Y-3028027D01*
X50025332Y-2889013D01*
X50269833Y-2789717D01*
X50522448Y-2730139D01*
X50783178Y-2710280D01*
X50877998Y-2802528D01*
X51053100Y-3079270D01*
X51214532Y-3368833D01*
X51268342Y-3506357D01*
X51268371Y-3506309D01*
M02*
