%TF.GenerationSoftware,KiCad,Pcbnew,4.0.7*%
%TF.CreationDate,2017-11-27T18:10:53+08:00*%
%TF.ProjectId,design1,64657369676E312E6B696361645F7063,rev?*%
%TF.FileFunction,Copper,L1,Top,Signal*%
%FSLAX46Y46*%
G04 Gerber Fmt 4.6, Leading zero omitted, Abs format (unit mm)*
G04 Created by KiCad (PCBNEW 4.0.7) date 11/27/17 18:10:53*
%MOMM*%
%LPD*%
G01*
G04 APERTURE LIST*
%ADD10C,0.100000*%
%ADD11C,0.074671*%
G04 APERTURE END LIST*
D10*
D11*
G36*
X8094396Y-6486922D02*
X7984610Y-6604287D01*
X6644456Y-6604287D01*
X6534669Y-6471786D01*
X6535729Y-6303545D01*
X6538909Y-6104716D01*
X6544208Y-5875300D01*
X6551627Y-5615295D01*
X6561165Y-5324703D01*
X6572067Y-5034108D01*
X6580546Y-4774102D01*
X6586603Y-4544686D01*
X6590237Y-4345858D01*
X6591448Y-4177621D01*
X6557379Y-4060266D01*
X6523761Y-4114328D01*
X6456224Y-4258338D01*
X6354766Y-4492297D01*
X6219387Y-4816203D01*
X6050088Y-5230058D01*
X5959230Y-5454575D01*
X5868372Y-5678881D01*
X5777514Y-5902975D01*
X5686656Y-6126859D01*
X5595798Y-6350532D01*
X5504940Y-6573994D01*
X5410295Y-6676181D01*
X5258866Y-6680447D01*
X5024149Y-6604714D01*
X4937228Y-6422996D01*
X4840010Y-6210993D01*
X4732495Y-5968704D01*
X4614682Y-5696129D01*
X4486572Y-5393269D01*
X4351346Y-5075723D01*
X4230354Y-4795429D01*
X4123596Y-4552384D01*
X4031072Y-4346591D01*
X3952782Y-4178047D01*
X3918713Y-4136447D01*
X3892217Y-4246229D01*
X3893400Y-4454920D01*
X3896950Y-4709986D01*
X3902867Y-5011427D01*
X3911150Y-5359242D01*
X3919429Y-5707057D01*
X3925342Y-6008498D01*
X3928890Y-6263564D01*
X3930073Y-6472255D01*
X3824068Y-6604757D01*
X2559629Y-6604757D01*
X2464984Y-6582037D01*
X2449837Y-6494997D01*
X2451352Y-6313434D01*
X2455894Y-6098859D01*
X2463466Y-5851271D01*
X2474065Y-5570670D01*
X2487693Y-5257055D01*
X2502685Y-4942082D01*
X2514345Y-4660424D01*
X2522673Y-4412080D01*
X2527670Y-4197052D01*
X2529336Y-4015338D01*
X2528284Y-3847608D01*
X2525130Y-3637183D01*
X2519872Y-3384063D01*
X2512511Y-3088248D01*
X2503047Y-2749738D01*
X2491480Y-2368533D01*
X2487951Y-2192259D01*
X2481096Y-1977655D01*
X2470916Y-1724723D01*
X2457411Y-1433461D01*
X2453677Y-1369141D01*
X2612678Y-1293407D01*
X2774624Y-1292151D01*
X2982840Y-1288382D01*
X3237326Y-1282101D01*
X3491813Y-1273686D01*
X3700029Y-1268637D01*
X3861975Y-1266954D01*
X3979333Y-1425962D01*
X5084771Y-3852618D01*
X5192664Y-4037178D01*
X5281629Y-4098698D01*
X5346933Y-4027714D01*
X5459560Y-3814762D01*
X5539704Y-3647697D01*
X5627193Y-3464505D01*
X5722026Y-3265185D01*
X5824203Y-3049739D01*
X5933725Y-2818165D01*
X6050591Y-2570464D01*
X6174801Y-2306636D01*
X6306356Y-2026681D01*
X6445255Y-1730598D01*
X6591498Y-1418389D01*
X6731571Y-1270741D01*
X6868804Y-1273567D01*
X7060931Y-1282047D01*
X7256843Y-1290527D01*
X7397862Y-1293354D01*
X7517114Y-1288634D01*
X7685579Y-1274474D01*
X7856884Y-1260314D01*
X7977081Y-1255594D01*
X8090653Y-1346474D01*
X8089291Y-1542876D01*
X8085202Y-1774713D01*
X8078388Y-2041985D01*
X8068849Y-2344693D01*
X8056584Y-2682837D01*
X8045682Y-3019618D01*
X8037203Y-3321267D01*
X8031147Y-3587784D01*
X8027513Y-3819170D01*
X8026301Y-4015423D01*
X8027664Y-4196986D01*
X8031752Y-4411561D01*
X8038566Y-4659150D01*
X8048106Y-4939751D01*
X8060371Y-5253365D01*
X8072636Y-5566824D01*
X8082175Y-5846967D01*
X8088989Y-6093796D01*
X8093077Y-6307310D01*
X8094440Y-6487509D01*
X8094396Y-6486922D01*
X8094396Y-6486922D01*
G37*
X8094396Y-6486922D02*
X7984610Y-6604287D01*
X6644456Y-6604287D01*
X6534669Y-6471786D01*
X6535729Y-6303545D01*
X6538909Y-6104716D01*
X6544208Y-5875300D01*
X6551627Y-5615295D01*
X6561165Y-5324703D01*
X6572067Y-5034108D01*
X6580546Y-4774102D01*
X6586603Y-4544686D01*
X6590237Y-4345858D01*
X6591448Y-4177621D01*
X6557379Y-4060266D01*
X6523761Y-4114328D01*
X6456224Y-4258338D01*
X6354766Y-4492297D01*
X6219387Y-4816203D01*
X6050088Y-5230058D01*
X5959230Y-5454575D01*
X5868372Y-5678881D01*
X5777514Y-5902975D01*
X5686656Y-6126859D01*
X5595798Y-6350532D01*
X5504940Y-6573994D01*
X5410295Y-6676181D01*
X5258866Y-6680447D01*
X5024149Y-6604714D01*
X4937228Y-6422996D01*
X4840010Y-6210993D01*
X4732495Y-5968704D01*
X4614682Y-5696129D01*
X4486572Y-5393269D01*
X4351346Y-5075723D01*
X4230354Y-4795429D01*
X4123596Y-4552384D01*
X4031072Y-4346591D01*
X3952782Y-4178047D01*
X3918713Y-4136447D01*
X3892217Y-4246229D01*
X3893400Y-4454920D01*
X3896950Y-4709986D01*
X3902867Y-5011427D01*
X3911150Y-5359242D01*
X3919429Y-5707057D01*
X3925342Y-6008498D01*
X3928890Y-6263564D01*
X3930073Y-6472255D01*
X3824068Y-6604757D01*
X2559629Y-6604757D01*
X2464984Y-6582037D01*
X2449837Y-6494997D01*
X2451352Y-6313434D01*
X2455894Y-6098859D01*
X2463466Y-5851271D01*
X2474065Y-5570670D01*
X2487693Y-5257055D01*
X2502685Y-4942082D01*
X2514345Y-4660424D01*
X2522673Y-4412080D01*
X2527670Y-4197052D01*
X2529336Y-4015338D01*
X2528284Y-3847608D01*
X2525130Y-3637183D01*
X2519872Y-3384063D01*
X2512511Y-3088248D01*
X2503047Y-2749738D01*
X2491480Y-2368533D01*
X2487951Y-2192259D01*
X2481096Y-1977655D01*
X2470916Y-1724723D01*
X2457411Y-1433461D01*
X2453677Y-1369141D01*
X2612678Y-1293407D01*
X2774624Y-1292151D01*
X2982840Y-1288382D01*
X3237326Y-1282101D01*
X3491813Y-1273686D01*
X3700029Y-1268637D01*
X3861975Y-1266954D01*
X3979333Y-1425962D01*
X5084771Y-3852618D01*
X5192664Y-4037178D01*
X5281629Y-4098698D01*
X5346933Y-4027714D01*
X5459560Y-3814762D01*
X5539704Y-3647697D01*
X5627193Y-3464505D01*
X5722026Y-3265185D01*
X5824203Y-3049739D01*
X5933725Y-2818165D01*
X6050591Y-2570464D01*
X6174801Y-2306636D01*
X6306356Y-2026681D01*
X6445255Y-1730598D01*
X6591498Y-1418389D01*
X6731571Y-1270741D01*
X6868804Y-1273567D01*
X7060931Y-1282047D01*
X7256843Y-1290527D01*
X7397862Y-1293354D01*
X7517114Y-1288634D01*
X7685579Y-1274474D01*
X7856884Y-1260314D01*
X7977081Y-1255594D01*
X8090653Y-1346474D01*
X8089291Y-1542876D01*
X8085202Y-1774713D01*
X8078388Y-2041985D01*
X8068849Y-2344693D01*
X8056584Y-2682837D01*
X8045682Y-3019618D01*
X8037203Y-3321267D01*
X8031147Y-3587784D01*
X8027513Y-3819170D01*
X8026301Y-4015423D01*
X8027664Y-4196986D01*
X8031752Y-4411561D01*
X8038566Y-4659150D01*
X8048106Y-4939751D01*
X8060371Y-5253365D01*
X8072636Y-5566824D01*
X8082175Y-5846967D01*
X8088989Y-6093796D01*
X8093077Y-6307310D01*
X8094440Y-6487509D01*
X8094396Y-6486922D01*
G36*
X10267411Y-2053813D02*
X10168893Y-3007850D01*
X10259773Y-3083583D01*
X10252307Y-3155477D01*
X10230205Y-3371189D01*
X10211503Y-3596481D01*
X10196202Y-3831353D01*
X10184301Y-4075804D01*
X10175801Y-4329834D01*
X10170700Y-4593444D01*
X10169000Y-4866634D01*
X10168957Y-4866623D01*
X10170214Y-5081151D01*
X10173983Y-5356252D01*
X10180264Y-5691925D01*
X10186546Y-6025067D01*
X10190314Y-6297640D01*
X10191571Y-6509642D01*
X10096957Y-6604255D01*
X9975394Y-6616878D01*
X9782324Y-6624451D01*
X9517747Y-6626975D01*
X9251059Y-6624451D01*
X9056722Y-6616878D01*
X8934737Y-6604255D01*
X8832518Y-6555082D01*
X8824945Y-6441503D01*
X8826207Y-6238335D01*
X8829993Y-5977119D01*
X8836305Y-5657855D01*
X8842616Y-5336067D01*
X8846402Y-5072327D01*
X8847665Y-4866634D01*
X8845965Y-4568411D01*
X8840866Y-4288112D01*
X8832367Y-4025737D01*
X8820469Y-3781286D01*
X8805172Y-3554759D01*
X8786475Y-3346156D01*
X8764379Y-3155477D01*
X8756806Y-3076010D01*
X8859025Y-3000277D01*
X8992474Y-3005957D01*
X9180813Y-3022997D01*
X9372937Y-3040037D01*
X9510173Y-3045717D01*
X9647403Y-3040970D01*
X9839528Y-3026730D01*
X10031656Y-3012570D01*
X10168893Y-3007850D01*
X10267411Y-2053813D01*
X10237731Y-2290952D01*
X10148690Y-2475394D01*
X10000289Y-2607138D01*
X9792527Y-2686184D01*
X9525405Y-2712533D01*
X9325604Y-2694025D01*
X9150199Y-2638501D01*
X8999190Y-2545962D01*
X8872999Y-2410516D01*
X8797284Y-2246466D01*
X8772045Y-2053813D01*
X8798125Y-1868733D01*
X8876364Y-1707208D01*
X9006762Y-1569237D01*
X9160294Y-1472490D01*
X9333175Y-1414442D01*
X9525405Y-1395093D01*
X9713435Y-1414863D01*
X9883796Y-1474173D01*
X10036488Y-1573023D01*
X10164778Y-1710574D01*
X10241753Y-1870837D01*
X10267411Y-2053813D01*
X10267411Y-2053813D01*
G37*
X10267411Y-2053813D02*
X10168893Y-3007850D01*
X10259773Y-3083583D01*
X10252307Y-3155477D01*
X10230205Y-3371189D01*
X10211503Y-3596481D01*
X10196202Y-3831353D01*
X10184301Y-4075804D01*
X10175801Y-4329834D01*
X10170700Y-4593444D01*
X10169000Y-4866634D01*
X10168957Y-4866623D01*
X10170214Y-5081151D01*
X10173983Y-5356252D01*
X10180264Y-5691925D01*
X10186546Y-6025067D01*
X10190314Y-6297640D01*
X10191571Y-6509642D01*
X10096957Y-6604255D01*
X9975394Y-6616878D01*
X9782324Y-6624451D01*
X9517747Y-6626975D01*
X9251059Y-6624451D01*
X9056722Y-6616878D01*
X8934737Y-6604255D01*
X8832518Y-6555082D01*
X8824945Y-6441503D01*
X8826207Y-6238335D01*
X8829993Y-5977119D01*
X8836305Y-5657855D01*
X8842616Y-5336067D01*
X8846402Y-5072327D01*
X8847665Y-4866634D01*
X8845965Y-4568411D01*
X8840866Y-4288112D01*
X8832367Y-4025737D01*
X8820469Y-3781286D01*
X8805172Y-3554759D01*
X8786475Y-3346156D01*
X8764379Y-3155477D01*
X8756806Y-3076010D01*
X8859025Y-3000277D01*
X8992474Y-3005957D01*
X9180813Y-3022997D01*
X9372937Y-3040037D01*
X9510173Y-3045717D01*
X9647403Y-3040970D01*
X9839528Y-3026730D01*
X10031656Y-3012570D01*
X10168893Y-3007850D01*
X10267411Y-2053813D01*
X10237731Y-2290952D01*
X10148690Y-2475394D01*
X10000289Y-2607138D01*
X9792527Y-2686184D01*
X9525405Y-2712533D01*
X9325604Y-2694025D01*
X9150199Y-2638501D01*
X8999190Y-2545962D01*
X8872999Y-2410516D01*
X8797284Y-2246466D01*
X8772045Y-2053813D01*
X8798125Y-1868733D01*
X8876364Y-1707208D01*
X9006762Y-1569237D01*
X9160294Y-1472490D01*
X9333175Y-1414442D01*
X9525405Y-1395093D01*
X9713435Y-1414863D01*
X9883796Y-1474173D01*
X10036488Y-1573023D01*
X10164778Y-1710574D01*
X10241753Y-1870837D01*
X10267411Y-2053813D01*
G36*
X13409587Y-4113269D02*
X13178653Y-4052682D01*
X12976115Y-4007242D01*
X12815219Y-3992095D01*
X12605743Y-4014811D01*
X12426554Y-4082957D01*
X12277651Y-4196533D01*
X12166178Y-4345436D01*
X12099295Y-4524625D01*
X12077000Y-4734101D01*
X12101397Y-4949889D01*
X12174588Y-5132868D01*
X12296573Y-5283039D01*
X12457678Y-5392402D01*
X12648227Y-5458020D01*
X12868221Y-5479893D01*
X13045205Y-5459066D01*
X13243016Y-5396586D01*
X13439869Y-5309546D01*
X13513672Y-5429743D01*
X13606440Y-5790335D01*
X13654796Y-6050290D01*
X13683809Y-6244626D01*
X13693480Y-6373343D01*
X13641321Y-6464623D01*
X13484845Y-6546646D01*
X13224051Y-6619413D01*
X12997325Y-6663561D01*
X12801727Y-6690050D01*
X12637256Y-6698879D01*
X12367732Y-6683316D01*
X12114403Y-6636624D01*
X11877269Y-6558805D01*
X11656330Y-6449858D01*
X11451586Y-6309783D01*
X11263037Y-6138581D01*
X11097620Y-5944141D01*
X10962279Y-5734349D01*
X10857013Y-5509202D01*
X10781824Y-5268702D01*
X10736710Y-5012849D01*
X10721672Y-4741642D01*
X10736710Y-4472644D01*
X10781824Y-4218369D01*
X10857013Y-3978815D01*
X10962279Y-3753985D01*
X11097620Y-3543876D01*
X11263037Y-3348490D01*
X11452638Y-3174977D01*
X11658013Y-3033012D01*
X11879163Y-2922594D01*
X12116086Y-2843725D01*
X12368784Y-2796403D01*
X12637256Y-2780629D01*
X12910780Y-2795771D01*
X13167267Y-2841199D01*
X13406716Y-2916913D01*
X13629128Y-3022911D01*
X13727581Y-3125098D01*
X13699187Y-3261365D01*
X13614003Y-3571818D01*
X13525971Y-3878461D01*
X13473928Y-4033674D01*
X13409608Y-4113141D01*
X13409587Y-4113269D01*
X13409587Y-4113269D01*
G37*
X13409587Y-4113269D02*
X13178653Y-4052682D01*
X12976115Y-4007242D01*
X12815219Y-3992095D01*
X12605743Y-4014811D01*
X12426554Y-4082957D01*
X12277651Y-4196533D01*
X12166178Y-4345436D01*
X12099295Y-4524625D01*
X12077000Y-4734101D01*
X12101397Y-4949889D01*
X12174588Y-5132868D01*
X12296573Y-5283039D01*
X12457678Y-5392402D01*
X12648227Y-5458020D01*
X12868221Y-5479893D01*
X13045205Y-5459066D01*
X13243016Y-5396586D01*
X13439869Y-5309546D01*
X13513672Y-5429743D01*
X13606440Y-5790335D01*
X13654796Y-6050290D01*
X13683809Y-6244626D01*
X13693480Y-6373343D01*
X13641321Y-6464623D01*
X13484845Y-6546646D01*
X13224051Y-6619413D01*
X12997325Y-6663561D01*
X12801727Y-6690050D01*
X12637256Y-6698879D01*
X12367732Y-6683316D01*
X12114403Y-6636624D01*
X11877269Y-6558805D01*
X11656330Y-6449858D01*
X11451586Y-6309783D01*
X11263037Y-6138581D01*
X11097620Y-5944141D01*
X10962279Y-5734349D01*
X10857013Y-5509202D01*
X10781824Y-5268702D01*
X10736710Y-5012849D01*
X10721672Y-4741642D01*
X10736710Y-4472644D01*
X10781824Y-4218369D01*
X10857013Y-3978815D01*
X10962279Y-3753985D01*
X11097620Y-3543876D01*
X11263037Y-3348490D01*
X11452638Y-3174977D01*
X11658013Y-3033012D01*
X11879163Y-2922594D01*
X12116086Y-2843725D01*
X12368784Y-2796403D01*
X12637256Y-2780629D01*
X12910780Y-2795771D01*
X13167267Y-2841199D01*
X13406716Y-2916913D01*
X13629128Y-3022911D01*
X13727581Y-3125098D01*
X13699187Y-3261365D01*
X13614003Y-3571818D01*
X13525971Y-3878461D01*
X13473928Y-4033674D01*
X13409608Y-4113141D01*
X13409587Y-4113269D01*
G36*
X16638824Y-4245759D02*
X16598128Y-4356495D01*
X16476040Y-4393407D01*
X16264040Y-4385941D01*
X16059603Y-4374634D01*
X15795552Y-4399247D01*
X15631816Y-4473087D01*
X15546640Y-4621690D01*
X15518248Y-4870591D01*
X15519315Y-5075973D01*
X15522515Y-5366527D01*
X15528115Y-5654242D01*
X15529981Y-5858677D01*
X15533768Y-5995906D01*
X15545128Y-6188031D01*
X15556488Y-6376373D01*
X15560275Y-6509823D01*
X15435347Y-6612010D01*
X15205360Y-6623370D01*
X14878835Y-6627157D01*
X14655059Y-6624632D01*
X14463247Y-6617059D01*
X14303400Y-6604437D01*
X14178472Y-6479509D01*
X14178739Y-6309387D01*
X14179539Y-6101879D01*
X14180872Y-5856987D01*
X14182739Y-5574709D01*
X14184605Y-5290779D01*
X14185939Y-5044706D01*
X14186739Y-4836491D01*
X14187005Y-4666133D01*
X14182484Y-4378310D01*
X14168918Y-4107944D01*
X14146309Y-3855034D01*
X14114657Y-3619581D01*
X14073961Y-3401585D01*
X14024221Y-3201045D01*
X14016755Y-3144298D01*
X14073501Y-3068565D01*
X14233763Y-3049211D01*
X14436931Y-3021442D01*
X14683005Y-2985258D01*
X15017411Y-2920061D01*
X15223104Y-2880943D01*
X15300083Y-2867903D01*
X15355923Y-2927527D01*
X15387123Y-3106399D01*
X15413603Y-3285279D01*
X15455283Y-3344906D01*
X15506384Y-3295693D01*
X15765715Y-3148053D01*
X16005059Y-3036580D01*
X16238514Y-2969697D01*
X16466077Y-2947402D01*
X16625077Y-2970122D01*
X16678077Y-3038282D01*
X16672397Y-3170786D01*
X16655357Y-3348714D01*
X16637357Y-3534215D01*
X16628797Y-3659146D01*
X16629864Y-3786911D01*
X16633064Y-3950645D01*
X16638664Y-4136146D01*
X16640531Y-4245930D01*
X16638824Y-4245759D01*
X16638824Y-4245759D01*
G37*
X16638824Y-4245759D02*
X16598128Y-4356495D01*
X16476040Y-4393407D01*
X16264040Y-4385941D01*
X16059603Y-4374634D01*
X15795552Y-4399247D01*
X15631816Y-4473087D01*
X15546640Y-4621690D01*
X15518248Y-4870591D01*
X15519315Y-5075973D01*
X15522515Y-5366527D01*
X15528115Y-5654242D01*
X15529981Y-5858677D01*
X15533768Y-5995906D01*
X15545128Y-6188031D01*
X15556488Y-6376373D01*
X15560275Y-6509823D01*
X15435347Y-6612010D01*
X15205360Y-6623370D01*
X14878835Y-6627157D01*
X14655059Y-6624632D01*
X14463247Y-6617059D01*
X14303400Y-6604437D01*
X14178472Y-6479509D01*
X14178739Y-6309387D01*
X14179539Y-6101879D01*
X14180872Y-5856987D01*
X14182739Y-5574709D01*
X14184605Y-5290779D01*
X14185939Y-5044706D01*
X14186739Y-4836491D01*
X14187005Y-4666133D01*
X14182484Y-4378310D01*
X14168918Y-4107944D01*
X14146309Y-3855034D01*
X14114657Y-3619581D01*
X14073961Y-3401585D01*
X14024221Y-3201045D01*
X14016755Y-3144298D01*
X14073501Y-3068565D01*
X14233763Y-3049211D01*
X14436931Y-3021442D01*
X14683005Y-2985258D01*
X15017411Y-2920061D01*
X15223104Y-2880943D01*
X15300083Y-2867903D01*
X15355923Y-2927527D01*
X15387123Y-3106399D01*
X15413603Y-3285279D01*
X15455283Y-3344906D01*
X15506384Y-3295693D01*
X15765715Y-3148053D01*
X16005059Y-3036580D01*
X16238514Y-2969697D01*
X16466077Y-2947402D01*
X16625077Y-2970122D01*
X16678077Y-3038282D01*
X16672397Y-3170786D01*
X16655357Y-3348714D01*
X16637357Y-3534215D01*
X16628797Y-3659146D01*
X16629864Y-3786911D01*
X16633064Y-3950645D01*
X16638664Y-4136146D01*
X16640531Y-4245930D01*
X16638824Y-4245759D01*
G36*
X20723645Y-4741695D02*
X19481917Y-4741695D01*
X19461307Y-4550306D01*
X19399476Y-4374900D01*
X19296424Y-4215477D01*
X19160557Y-4087181D01*
X19000294Y-4010203D01*
X18815635Y-3984543D01*
X18628026Y-4010623D01*
X18463976Y-4088863D01*
X18323485Y-4219263D01*
X18222531Y-4374900D01*
X18161959Y-4549044D01*
X18141768Y-4741695D01*
X18161959Y-4936451D01*
X18222531Y-5111857D01*
X18323485Y-5267914D01*
X18463976Y-5398314D01*
X18628026Y-5476554D01*
X18815635Y-5502634D01*
X19001135Y-5476554D01*
X19163923Y-5398314D01*
X19303997Y-5267914D01*
X19402842Y-5111857D01*
X19462148Y-4936451D01*
X19481917Y-4741695D01*
X20723645Y-4741695D01*
X20708923Y-5020370D01*
X20664756Y-5280957D01*
X20591144Y-5523455D01*
X20488087Y-5747866D01*
X20355586Y-5954187D01*
X20193640Y-6142421D01*
X20008980Y-6306681D01*
X19805812Y-6441076D01*
X19584136Y-6545605D01*
X19343952Y-6620269D01*
X19085261Y-6665067D01*
X18808061Y-6679999D01*
X18538642Y-6665277D01*
X18285628Y-6621110D01*
X18049019Y-6547498D01*
X17828814Y-6444442D01*
X17625014Y-6311940D01*
X17437619Y-6149994D01*
X17273359Y-5964913D01*
X17138964Y-5763006D01*
X17034435Y-5544274D01*
X16959771Y-5308717D01*
X16914973Y-5056333D01*
X16900040Y-4787125D01*
X16914342Y-4503615D01*
X16957248Y-4238613D01*
X17028757Y-3992119D01*
X17128871Y-3764135D01*
X17257588Y-3554658D01*
X17414909Y-3363690D01*
X17596624Y-3195959D01*
X17798530Y-3058724D01*
X18020627Y-2951986D01*
X18262914Y-2875745D01*
X18525392Y-2830000D01*
X18808061Y-2814751D01*
X19084209Y-2829684D01*
X19342269Y-2874482D01*
X19582243Y-2949146D01*
X19804129Y-3053675D01*
X20007928Y-3188070D01*
X20193640Y-3352330D01*
X20355586Y-3539199D01*
X20488087Y-3743945D01*
X20591144Y-3966567D01*
X20664756Y-4207067D01*
X20708923Y-4465443D01*
X20723645Y-4741695D01*
X20723645Y-4741695D01*
G37*
X20723645Y-4741695D02*
X19481917Y-4741695D01*
X19461307Y-4550306D01*
X19399476Y-4374900D01*
X19296424Y-4215477D01*
X19160557Y-4087181D01*
X19000294Y-4010203D01*
X18815635Y-3984543D01*
X18628026Y-4010623D01*
X18463976Y-4088863D01*
X18323485Y-4219263D01*
X18222531Y-4374900D01*
X18161959Y-4549044D01*
X18141768Y-4741695D01*
X18161959Y-4936451D01*
X18222531Y-5111857D01*
X18323485Y-5267914D01*
X18463976Y-5398314D01*
X18628026Y-5476554D01*
X18815635Y-5502634D01*
X19001135Y-5476554D01*
X19163923Y-5398314D01*
X19303997Y-5267914D01*
X19402842Y-5111857D01*
X19462148Y-4936451D01*
X19481917Y-4741695D01*
X20723645Y-4741695D01*
X20708923Y-5020370D01*
X20664756Y-5280957D01*
X20591144Y-5523455D01*
X20488087Y-5747866D01*
X20355586Y-5954187D01*
X20193640Y-6142421D01*
X20008980Y-6306681D01*
X19805812Y-6441076D01*
X19584136Y-6545605D01*
X19343952Y-6620269D01*
X19085261Y-6665067D01*
X18808061Y-6679999D01*
X18538642Y-6665277D01*
X18285628Y-6621110D01*
X18049019Y-6547498D01*
X17828814Y-6444442D01*
X17625014Y-6311940D01*
X17437619Y-6149994D01*
X17273359Y-5964913D01*
X17138964Y-5763006D01*
X17034435Y-5544274D01*
X16959771Y-5308717D01*
X16914973Y-5056333D01*
X16900040Y-4787125D01*
X16914342Y-4503615D01*
X16957248Y-4238613D01*
X17028757Y-3992119D01*
X17128871Y-3764135D01*
X17257588Y-3554658D01*
X17414909Y-3363690D01*
X17596624Y-3195959D01*
X17798530Y-3058724D01*
X18020627Y-2951986D01*
X18262914Y-2875745D01*
X18525392Y-2830000D01*
X18808061Y-2814751D01*
X19084209Y-2829684D01*
X19342269Y-2874482D01*
X19582243Y-2949146D01*
X19804129Y-3053675D01*
X20007928Y-3188070D01*
X20193640Y-3352330D01*
X20355586Y-3539199D01*
X20488087Y-3743945D01*
X20591144Y-3966567D01*
X20664756Y-4207067D01*
X20708923Y-4465443D01*
X20723645Y-4741695D01*
G36*
X24653256Y-4548629D02*
X23328275Y-4317717D01*
X23286632Y-4097194D01*
X23161704Y-3905066D01*
X22979037Y-3771618D01*
X22764200Y-3727135D01*
X22546517Y-3777298D01*
X22370483Y-3927786D01*
X22262587Y-4129378D01*
X22226621Y-4363146D01*
X22332648Y-4465333D01*
X22492120Y-4459893D01*
X22690397Y-4443573D01*
X22927480Y-4416373D01*
X23203368Y-4378293D01*
X23328296Y-4317706D01*
X23328275Y-4317717D01*
X24653256Y-4548629D01*
X24625914Y-4766939D01*
X24543887Y-4912059D01*
X24407176Y-4983989D01*
X24301615Y-4996564D01*
X24040399Y-5024333D01*
X23623528Y-5067295D01*
X23427274Y-5087725D01*
X23195889Y-5109675D01*
X22929371Y-5133146D01*
X22627722Y-5158138D01*
X22290941Y-5184650D01*
X22397896Y-5401383D01*
X22612733Y-5559445D01*
X22847451Y-5638965D01*
X23112456Y-5665471D01*
X23337495Y-5645281D01*
X23563376Y-5584708D01*
X23790099Y-5483754D01*
X23933960Y-5392885D01*
X24077821Y-5302037D01*
X24183805Y-5417509D01*
X24342824Y-5688191D01*
X24484784Y-5973069D01*
X24532104Y-6131125D01*
X24475357Y-6218165D01*
X24307205Y-6369698D01*
X24110660Y-6493679D01*
X23885723Y-6590109D01*
X23632392Y-6658987D01*
X23350668Y-6700314D01*
X23040552Y-6714090D01*
X22749892Y-6699473D01*
X22478582Y-6655621D01*
X22226621Y-6582535D01*
X21994010Y-6480215D01*
X21780748Y-6348661D01*
X21586835Y-6187871D01*
X21413318Y-5999951D01*
X21271350Y-5792050D01*
X21160931Y-5564170D01*
X21082060Y-5316310D01*
X21034737Y-5048470D01*
X21018963Y-4760650D01*
X21033054Y-4479138D01*
X21075329Y-4215082D01*
X21145787Y-3968482D01*
X21244428Y-3739338D01*
X21371252Y-3527650D01*
X21526259Y-3333418D01*
X21709867Y-3157591D01*
X21912404Y-3013732D01*
X22133869Y-2901842D01*
X22374263Y-2821921D01*
X22633586Y-2773968D01*
X22911837Y-2757983D01*
X23148028Y-2772706D01*
X23372019Y-2816873D01*
X23583811Y-2890485D01*
X23783404Y-2993541D01*
X23970797Y-3126043D01*
X24145992Y-3287989D01*
X24300999Y-3470231D01*
X24427823Y-3663620D01*
X24526464Y-3868157D01*
X24596922Y-4083841D01*
X24639196Y-4310672D01*
X24653288Y-4548650D01*
X24653256Y-4548629D01*
X24653256Y-4548629D01*
G37*
X24653256Y-4548629D02*
X23328275Y-4317717D01*
X23286632Y-4097194D01*
X23161704Y-3905066D01*
X22979037Y-3771618D01*
X22764200Y-3727135D01*
X22546517Y-3777298D01*
X22370483Y-3927786D01*
X22262587Y-4129378D01*
X22226621Y-4363146D01*
X22332648Y-4465333D01*
X22492120Y-4459893D01*
X22690397Y-4443573D01*
X22927480Y-4416373D01*
X23203368Y-4378293D01*
X23328296Y-4317706D01*
X23328275Y-4317717D01*
X24653256Y-4548629D01*
X24625914Y-4766939D01*
X24543887Y-4912059D01*
X24407176Y-4983989D01*
X24301615Y-4996564D01*
X24040399Y-5024333D01*
X23623528Y-5067295D01*
X23427274Y-5087725D01*
X23195889Y-5109675D01*
X22929371Y-5133146D01*
X22627722Y-5158138D01*
X22290941Y-5184650D01*
X22397896Y-5401383D01*
X22612733Y-5559445D01*
X22847451Y-5638965D01*
X23112456Y-5665471D01*
X23337495Y-5645281D01*
X23563376Y-5584708D01*
X23790099Y-5483754D01*
X23933960Y-5392885D01*
X24077821Y-5302037D01*
X24183805Y-5417509D01*
X24342824Y-5688191D01*
X24484784Y-5973069D01*
X24532104Y-6131125D01*
X24475357Y-6218165D01*
X24307205Y-6369698D01*
X24110660Y-6493679D01*
X23885723Y-6590109D01*
X23632392Y-6658987D01*
X23350668Y-6700314D01*
X23040552Y-6714090D01*
X22749892Y-6699473D01*
X22478582Y-6655621D01*
X22226621Y-6582535D01*
X21994010Y-6480215D01*
X21780748Y-6348661D01*
X21586835Y-6187871D01*
X21413318Y-5999951D01*
X21271350Y-5792050D01*
X21160931Y-5564170D01*
X21082060Y-5316310D01*
X21034737Y-5048470D01*
X21018963Y-4760650D01*
X21033054Y-4479138D01*
X21075329Y-4215082D01*
X21145787Y-3968482D01*
X21244428Y-3739338D01*
X21371252Y-3527650D01*
X21526259Y-3333418D01*
X21709867Y-3157591D01*
X21912404Y-3013732D01*
X22133869Y-2901842D01*
X22374263Y-2821921D01*
X22633586Y-2773968D01*
X22911837Y-2757983D01*
X23148028Y-2772706D01*
X23372019Y-2816873D01*
X23583811Y-2890485D01*
X23783404Y-2993541D01*
X23970797Y-3126043D01*
X24145992Y-3287989D01*
X24300999Y-3470231D01*
X24427823Y-3663620D01*
X24526464Y-3868157D01*
X24596922Y-4083841D01*
X24639196Y-4310672D01*
X24653288Y-4548650D01*
X24653256Y-4548629D01*
G36*
X26455272Y-4325269D02*
X26455479Y-4656415D01*
X26456102Y-4960852D01*
X26457139Y-5238578D01*
X26458591Y-5489595D01*
X26460457Y-5713901D01*
X26462739Y-5911498D01*
X26465565Y-6029786D01*
X26474045Y-6210570D01*
X26482525Y-6381871D01*
X26485352Y-6509642D01*
X26390739Y-6604255D01*
X26246881Y-6621085D01*
X26042451Y-6631183D01*
X25777448Y-6634549D01*
X25511182Y-6631183D01*
X25318108Y-6621085D01*
X25198227Y-6604255D01*
X25103613Y-6502069D01*
X25103613Y-6339285D01*
X25104080Y-6149995D01*
X25105480Y-5919063D01*
X25107813Y-5646491D01*
X25111080Y-5332277D01*
X25114347Y-5016639D01*
X25116680Y-4743591D01*
X25118080Y-4513135D01*
X25118547Y-4325269D01*
X25118634Y-3906287D01*
X25118895Y-3557920D01*
X25119330Y-3280170D01*
X25119940Y-3073035D01*
X25120724Y-2936517D01*
X25121681Y-2870614D01*
X25122813Y-2875327D01*
X25117044Y-2602859D01*
X25107276Y-2343220D01*
X25093507Y-2096410D01*
X25075738Y-1862430D01*
X25053969Y-1641280D01*
X25028200Y-1432959D01*
X25020733Y-1368639D01*
X25119187Y-1285333D01*
X26470696Y-1285333D01*
X26557736Y-1364799D01*
X26553469Y-1432959D01*
X26536382Y-1727183D01*
X26520923Y-2015149D01*
X26507091Y-2296857D01*
X26494886Y-2572309D01*
X26484308Y-2841503D01*
X26475358Y-3104441D01*
X26468035Y-3361121D01*
X26462339Y-3611543D01*
X26458271Y-3855709D01*
X26455830Y-4093618D01*
X26455016Y-4325269D01*
X26455272Y-4325269D01*
X26455272Y-4325269D01*
G37*
X26455272Y-4325269D02*
X26455479Y-4656415D01*
X26456102Y-4960852D01*
X26457139Y-5238578D01*
X26458591Y-5489595D01*
X26460457Y-5713901D01*
X26462739Y-5911498D01*
X26465565Y-6029786D01*
X26474045Y-6210570D01*
X26482525Y-6381871D01*
X26485352Y-6509642D01*
X26390739Y-6604255D01*
X26246881Y-6621085D01*
X26042451Y-6631183D01*
X25777448Y-6634549D01*
X25511182Y-6631183D01*
X25318108Y-6621085D01*
X25198227Y-6604255D01*
X25103613Y-6502069D01*
X25103613Y-6339285D01*
X25104080Y-6149995D01*
X25105480Y-5919063D01*
X25107813Y-5646491D01*
X25111080Y-5332277D01*
X25114347Y-5016639D01*
X25116680Y-4743591D01*
X25118080Y-4513135D01*
X25118547Y-4325269D01*
X25118634Y-3906287D01*
X25118895Y-3557920D01*
X25119330Y-3280170D01*
X25119940Y-3073035D01*
X25120724Y-2936517D01*
X25121681Y-2870614D01*
X25122813Y-2875327D01*
X25117044Y-2602859D01*
X25107276Y-2343220D01*
X25093507Y-2096410D01*
X25075738Y-1862430D01*
X25053969Y-1641280D01*
X25028200Y-1432959D01*
X25020733Y-1368639D01*
X25119187Y-1285333D01*
X26470696Y-1285333D01*
X26557736Y-1364799D01*
X26553469Y-1432959D01*
X26536382Y-1727183D01*
X26520923Y-2015149D01*
X26507091Y-2296857D01*
X26494886Y-2572309D01*
X26484308Y-2841503D01*
X26475358Y-3104441D01*
X26468035Y-3361121D01*
X26462339Y-3611543D01*
X26458271Y-3855709D01*
X26455830Y-4093618D01*
X26455016Y-4325269D01*
X26455272Y-4325269D01*
G36*
X30619592Y-4548629D02*
X29294621Y-4317717D01*
X29252979Y-4097194D01*
X29128051Y-3905066D01*
X28945389Y-3771618D01*
X28730547Y-3727135D01*
X28512864Y-3777298D01*
X28336829Y-3927786D01*
X28228933Y-4129378D01*
X28192968Y-4363146D01*
X28298995Y-4465333D01*
X28458467Y-4459893D01*
X28656744Y-4443573D01*
X28893827Y-4416373D01*
X29169715Y-4378293D01*
X29294643Y-4317706D01*
X29294621Y-4317717D01*
X30619592Y-4548629D01*
X30592250Y-4766939D01*
X30510223Y-4912059D01*
X30373512Y-4983989D01*
X30267951Y-4996564D01*
X30006735Y-5024333D01*
X29589864Y-5067295D01*
X29393611Y-5087725D01*
X29162226Y-5109675D01*
X28895711Y-5133146D01*
X28594065Y-5158138D01*
X28257288Y-5184650D01*
X28364240Y-5401383D01*
X28579069Y-5559445D01*
X28813787Y-5638965D01*
X29078792Y-5665471D01*
X29303831Y-5645281D01*
X29529712Y-5584708D01*
X29756435Y-5483754D01*
X29900296Y-5392885D01*
X30044157Y-5302037D01*
X30150141Y-5417509D01*
X30309160Y-5688191D01*
X30451128Y-5973069D01*
X30498451Y-6131125D01*
X30441704Y-6218165D01*
X30273552Y-6369698D01*
X30077008Y-6493679D01*
X29852072Y-6590109D01*
X29598743Y-6658987D01*
X29317023Y-6700314D01*
X29006909Y-6714090D01*
X28716247Y-6699473D01*
X28444934Y-6655621D01*
X28192971Y-6582535D01*
X27960358Y-6480215D01*
X27747095Y-6348661D01*
X27553181Y-6187871D01*
X27379668Y-5999951D01*
X27237703Y-5792050D01*
X27127285Y-5564170D01*
X27048416Y-5316310D01*
X27001094Y-5048470D01*
X26985320Y-4760650D01*
X26999411Y-4479138D01*
X27041685Y-4215082D01*
X27112141Y-3968482D01*
X27210780Y-3739338D01*
X27337602Y-3527650D01*
X27492605Y-3333418D01*
X27676214Y-3157591D01*
X27878751Y-3013732D01*
X28100216Y-2901842D01*
X28340610Y-2821921D01*
X28599933Y-2773968D01*
X28878184Y-2757983D01*
X29114374Y-2772706D01*
X29338365Y-2816873D01*
X29550157Y-2890485D01*
X29749750Y-2993541D01*
X29937144Y-3126043D01*
X30112339Y-3287989D01*
X30267346Y-3470231D01*
X30394170Y-3663620D01*
X30492811Y-3868157D01*
X30563268Y-4083841D01*
X30605543Y-4310672D01*
X30619635Y-4548650D01*
X30619592Y-4548629D01*
X30619592Y-4548629D01*
G37*
X30619592Y-4548629D02*
X29294621Y-4317717D01*
X29252979Y-4097194D01*
X29128051Y-3905066D01*
X28945389Y-3771618D01*
X28730547Y-3727135D01*
X28512864Y-3777298D01*
X28336829Y-3927786D01*
X28228933Y-4129378D01*
X28192968Y-4363146D01*
X28298995Y-4465333D01*
X28458467Y-4459893D01*
X28656744Y-4443573D01*
X28893827Y-4416373D01*
X29169715Y-4378293D01*
X29294643Y-4317706D01*
X29294621Y-4317717D01*
X30619592Y-4548629D01*
X30592250Y-4766939D01*
X30510223Y-4912059D01*
X30373512Y-4983989D01*
X30267951Y-4996564D01*
X30006735Y-5024333D01*
X29589864Y-5067295D01*
X29393611Y-5087725D01*
X29162226Y-5109675D01*
X28895711Y-5133146D01*
X28594065Y-5158138D01*
X28257288Y-5184650D01*
X28364240Y-5401383D01*
X28579069Y-5559445D01*
X28813787Y-5638965D01*
X29078792Y-5665471D01*
X29303831Y-5645281D01*
X29529712Y-5584708D01*
X29756435Y-5483754D01*
X29900296Y-5392885D01*
X30044157Y-5302037D01*
X30150141Y-5417509D01*
X30309160Y-5688191D01*
X30451128Y-5973069D01*
X30498451Y-6131125D01*
X30441704Y-6218165D01*
X30273552Y-6369698D01*
X30077008Y-6493679D01*
X29852072Y-6590109D01*
X29598743Y-6658987D01*
X29317023Y-6700314D01*
X29006909Y-6714090D01*
X28716247Y-6699473D01*
X28444934Y-6655621D01*
X28192971Y-6582535D01*
X27960358Y-6480215D01*
X27747095Y-6348661D01*
X27553181Y-6187871D01*
X27379668Y-5999951D01*
X27237703Y-5792050D01*
X27127285Y-5564170D01*
X27048416Y-5316310D01*
X27001094Y-5048470D01*
X26985320Y-4760650D01*
X26999411Y-4479138D01*
X27041685Y-4215082D01*
X27112141Y-3968482D01*
X27210780Y-3739338D01*
X27337602Y-3527650D01*
X27492605Y-3333418D01*
X27676214Y-3157591D01*
X27878751Y-3013732D01*
X28100216Y-2901842D01*
X28340610Y-2821921D01*
X28599933Y-2773968D01*
X28878184Y-2757983D01*
X29114374Y-2772706D01*
X29338365Y-2816873D01*
X29550157Y-2890485D01*
X29749750Y-2993541D01*
X29937144Y-3126043D01*
X30112339Y-3287989D01*
X30267346Y-3470231D01*
X30394170Y-3663620D01*
X30492811Y-3868157D01*
X30563268Y-4083841D01*
X30605543Y-4310672D01*
X30619635Y-4548650D01*
X30619592Y-4548629D01*
G36*
X33549757Y-4113269D02*
X33318824Y-4052682D01*
X33116285Y-4007242D01*
X32955389Y-3992095D01*
X32745914Y-4014811D01*
X32566724Y-4082957D01*
X32417821Y-4196533D01*
X32306349Y-4345436D01*
X32239465Y-4524625D01*
X32217171Y-4734101D01*
X32241568Y-4949889D01*
X32314759Y-5132868D01*
X32436744Y-5283039D01*
X32597849Y-5392402D01*
X32788398Y-5458020D01*
X33008392Y-5479893D01*
X33185376Y-5459066D01*
X33383187Y-5396586D01*
X33580040Y-5309546D01*
X33653843Y-5429743D01*
X33746611Y-5790335D01*
X33794966Y-6050290D01*
X33823980Y-6244626D01*
X33833651Y-6373343D01*
X33781492Y-6464623D01*
X33625015Y-6546646D01*
X33364221Y-6619413D01*
X33137495Y-6663561D01*
X32941897Y-6690050D01*
X32777427Y-6698879D01*
X32507903Y-6683316D01*
X32254574Y-6636624D01*
X32017440Y-6558805D01*
X31796501Y-6449858D01*
X31591757Y-6309783D01*
X31403208Y-6138581D01*
X31237791Y-5944141D01*
X31102450Y-5734349D01*
X30997184Y-5509202D01*
X30921994Y-5268702D01*
X30876881Y-5012849D01*
X30861843Y-4741642D01*
X30876881Y-4472644D01*
X30921994Y-4218369D01*
X30997184Y-3978815D01*
X31102450Y-3753985D01*
X31237791Y-3543876D01*
X31403208Y-3348490D01*
X31592809Y-3174977D01*
X31798184Y-3033012D01*
X32019333Y-2922594D01*
X32256257Y-2843725D01*
X32508955Y-2796403D01*
X32777427Y-2780629D01*
X33050951Y-2795771D01*
X33307437Y-2841199D01*
X33546887Y-2916913D01*
X33769299Y-3022911D01*
X33867752Y-3125098D01*
X33839357Y-3261365D01*
X33754173Y-3571818D01*
X33666141Y-3878461D01*
X33614099Y-4033674D01*
X33549779Y-4113141D01*
X33549757Y-4113269D01*
X33549757Y-4113269D01*
G37*
X33549757Y-4113269D02*
X33318824Y-4052682D01*
X33116285Y-4007242D01*
X32955389Y-3992095D01*
X32745914Y-4014811D01*
X32566724Y-4082957D01*
X32417821Y-4196533D01*
X32306349Y-4345436D01*
X32239465Y-4524625D01*
X32217171Y-4734101D01*
X32241568Y-4949889D01*
X32314759Y-5132868D01*
X32436744Y-5283039D01*
X32597849Y-5392402D01*
X32788398Y-5458020D01*
X33008392Y-5479893D01*
X33185376Y-5459066D01*
X33383187Y-5396586D01*
X33580040Y-5309546D01*
X33653843Y-5429743D01*
X33746611Y-5790335D01*
X33794966Y-6050290D01*
X33823980Y-6244626D01*
X33833651Y-6373343D01*
X33781492Y-6464623D01*
X33625015Y-6546646D01*
X33364221Y-6619413D01*
X33137495Y-6663561D01*
X32941897Y-6690050D01*
X32777427Y-6698879D01*
X32507903Y-6683316D01*
X32254574Y-6636624D01*
X32017440Y-6558805D01*
X31796501Y-6449858D01*
X31591757Y-6309783D01*
X31403208Y-6138581D01*
X31237791Y-5944141D01*
X31102450Y-5734349D01*
X30997184Y-5509202D01*
X30921994Y-5268702D01*
X30876881Y-5012849D01*
X30861843Y-4741642D01*
X30876881Y-4472644D01*
X30921994Y-4218369D01*
X30997184Y-3978815D01*
X31102450Y-3753985D01*
X31237791Y-3543876D01*
X31403208Y-3348490D01*
X31592809Y-3174977D01*
X31798184Y-3033012D01*
X32019333Y-2922594D01*
X32256257Y-2843725D01*
X32508955Y-2796403D01*
X32777427Y-2780629D01*
X33050951Y-2795771D01*
X33307437Y-2841199D01*
X33546887Y-2916913D01*
X33769299Y-3022911D01*
X33867752Y-3125098D01*
X33839357Y-3261365D01*
X33754173Y-3571818D01*
X33666141Y-3878461D01*
X33614099Y-4033674D01*
X33549779Y-4113141D01*
X33549757Y-4113269D01*
G36*
X36801715Y-5495061D02*
X36794141Y-5637970D01*
X36771421Y-5839562D01*
X36751501Y-6040207D01*
X36744861Y-6180277D01*
X36722141Y-6316565D01*
X36597213Y-6403605D01*
X36397628Y-6500369D01*
X36189562Y-6575630D01*
X35973016Y-6629388D01*
X35747990Y-6661643D01*
X35514483Y-6672394D01*
X35224217Y-6655320D01*
X34978607Y-6604096D01*
X34777653Y-6518724D01*
X34621356Y-6399202D01*
X34509715Y-6245532D01*
X34442731Y-6057712D01*
X34420403Y-5835743D01*
X34422500Y-5641410D01*
X34428794Y-5391550D01*
X34439283Y-5086165D01*
X34449772Y-4778682D01*
X34456065Y-4527563D01*
X34458163Y-4332810D01*
X34409896Y-4207874D01*
X34265096Y-4166229D01*
X34215923Y-4166229D01*
X34166749Y-4170495D01*
X34022888Y-4068309D01*
X34030355Y-3882805D01*
X34041661Y-3697301D01*
X34030355Y-3455018D01*
X34022888Y-3212725D01*
X34083461Y-3154031D01*
X34265181Y-3129418D01*
X34412819Y-3053685D01*
X34427965Y-2868181D01*
X34427965Y-2599391D01*
X34416605Y-2238799D01*
X34412819Y-2133749D01*
X34433645Y-1804389D01*
X34496125Y-1694602D01*
X34620096Y-1705962D01*
X34787635Y-1740042D01*
X34970296Y-1778815D01*
X35086707Y-1796789D01*
X35237298Y-1816581D01*
X35431634Y-1840546D01*
X35669715Y-1868682D01*
X35764328Y-1933002D01*
X35757688Y-2123239D01*
X35737768Y-2391082D01*
X35720728Y-2659869D01*
X35715048Y-2852938D01*
X35742493Y-2992066D01*
X35824829Y-3038442D01*
X35991403Y-3035615D01*
X36226120Y-3027135D01*
X36461784Y-3018655D01*
X36631197Y-3015829D01*
X36714504Y-3072575D01*
X36695517Y-3333791D01*
X36676637Y-3595007D01*
X36680904Y-3860010D01*
X36685171Y-4125013D01*
X36575379Y-4204479D01*
X36321736Y-4200213D01*
X36068093Y-4192746D01*
X35784157Y-4192746D01*
X35727411Y-4359317D01*
X35727411Y-4628106D01*
X35731677Y-4896895D01*
X35749651Y-5165679D01*
X35803571Y-5336042D01*
X35954987Y-5458130D01*
X36204861Y-5498826D01*
X36473640Y-5457226D01*
X36723507Y-5411786D01*
X36802973Y-5495093D01*
X36801715Y-5495061D01*
X36801715Y-5495061D01*
G37*
X36801715Y-5495061D02*
X36794141Y-5637970D01*
X36771421Y-5839562D01*
X36751501Y-6040207D01*
X36744861Y-6180277D01*
X36722141Y-6316565D01*
X36597213Y-6403605D01*
X36397628Y-6500369D01*
X36189562Y-6575630D01*
X35973016Y-6629388D01*
X35747990Y-6661643D01*
X35514483Y-6672394D01*
X35224217Y-6655320D01*
X34978607Y-6604096D01*
X34777653Y-6518724D01*
X34621356Y-6399202D01*
X34509715Y-6245532D01*
X34442731Y-6057712D01*
X34420403Y-5835743D01*
X34422500Y-5641410D01*
X34428794Y-5391550D01*
X34439283Y-5086165D01*
X34449772Y-4778682D01*
X34456065Y-4527563D01*
X34458163Y-4332810D01*
X34409896Y-4207874D01*
X34265096Y-4166229D01*
X34215923Y-4166229D01*
X34166749Y-4170495D01*
X34022888Y-4068309D01*
X34030355Y-3882805D01*
X34041661Y-3697301D01*
X34030355Y-3455018D01*
X34022888Y-3212725D01*
X34083461Y-3154031D01*
X34265181Y-3129418D01*
X34412819Y-3053685D01*
X34427965Y-2868181D01*
X34427965Y-2599391D01*
X34416605Y-2238799D01*
X34412819Y-2133749D01*
X34433645Y-1804389D01*
X34496125Y-1694602D01*
X34620096Y-1705962D01*
X34787635Y-1740042D01*
X34970296Y-1778815D01*
X35086707Y-1796789D01*
X35237298Y-1816581D01*
X35431634Y-1840546D01*
X35669715Y-1868682D01*
X35764328Y-1933002D01*
X35757688Y-2123239D01*
X35737768Y-2391082D01*
X35720728Y-2659869D01*
X35715048Y-2852938D01*
X35742493Y-2992066D01*
X35824829Y-3038442D01*
X35991403Y-3035615D01*
X36226120Y-3027135D01*
X36461784Y-3018655D01*
X36631197Y-3015829D01*
X36714504Y-3072575D01*
X36695517Y-3333791D01*
X36676637Y-3595007D01*
X36680904Y-3860010D01*
X36685171Y-4125013D01*
X36575379Y-4204479D01*
X36321736Y-4200213D01*
X36068093Y-4192746D01*
X35784157Y-4192746D01*
X35727411Y-4359317D01*
X35727411Y-4628106D01*
X35731677Y-4896895D01*
X35749651Y-5165679D01*
X35803571Y-5336042D01*
X35954987Y-5458130D01*
X36204861Y-5498826D01*
X36473640Y-5457226D01*
X36723507Y-5411786D01*
X36802973Y-5495093D01*
X36801715Y-5495061D01*
G36*
X39716733Y-4245759D02*
X39676037Y-4356495D01*
X39553949Y-4393407D01*
X39341949Y-4385941D01*
X39137523Y-4374634D01*
X38873464Y-4399247D01*
X38709725Y-4473087D01*
X38624549Y-4621690D01*
X38596157Y-4870591D01*
X38597224Y-5075973D01*
X38600424Y-5366527D01*
X38606024Y-5654242D01*
X38607891Y-5858677D01*
X38611677Y-5995906D01*
X38623037Y-6188031D01*
X38634397Y-6376373D01*
X38638184Y-6509823D01*
X38513256Y-6612010D01*
X38283269Y-6623370D01*
X37956744Y-6627157D01*
X37732969Y-6624632D01*
X37541161Y-6617059D01*
X37381320Y-6604437D01*
X37256381Y-6479509D01*
X37256648Y-6309387D01*
X37257448Y-6101879D01*
X37258781Y-5856987D01*
X37260648Y-5574709D01*
X37262515Y-5290779D01*
X37263848Y-5044706D01*
X37264648Y-4836491D01*
X37264915Y-4666133D01*
X37260393Y-4378310D01*
X37246828Y-4107944D01*
X37224219Y-3855034D01*
X37192566Y-3619581D01*
X37151870Y-3401585D01*
X37102131Y-3201045D01*
X37094664Y-3144298D01*
X37151411Y-3068565D01*
X37311673Y-3049211D01*
X37514841Y-3021442D01*
X37760915Y-2985258D01*
X38095321Y-2920061D01*
X38301013Y-2880943D01*
X38377992Y-2867903D01*
X38433832Y-2927527D01*
X38465032Y-3106399D01*
X38491565Y-3285279D01*
X38533192Y-3344906D01*
X38584293Y-3295693D01*
X38843624Y-3148053D01*
X39082969Y-3036580D01*
X39316423Y-2969697D01*
X39543987Y-2947402D01*
X39702995Y-2970122D01*
X39755997Y-3038282D01*
X39750317Y-3170786D01*
X39733277Y-3348714D01*
X39715304Y-3534215D01*
X39706824Y-3659146D01*
X39707891Y-3786911D01*
X39711091Y-3950645D01*
X39716691Y-4136146D01*
X39718557Y-4245930D01*
X39716733Y-4245759D01*
X39716733Y-4245759D01*
G37*
X39716733Y-4245759D02*
X39676037Y-4356495D01*
X39553949Y-4393407D01*
X39341949Y-4385941D01*
X39137523Y-4374634D01*
X38873464Y-4399247D01*
X38709725Y-4473087D01*
X38624549Y-4621690D01*
X38596157Y-4870591D01*
X38597224Y-5075973D01*
X38600424Y-5366527D01*
X38606024Y-5654242D01*
X38607891Y-5858677D01*
X38611677Y-5995906D01*
X38623037Y-6188031D01*
X38634397Y-6376373D01*
X38638184Y-6509823D01*
X38513256Y-6612010D01*
X38283269Y-6623370D01*
X37956744Y-6627157D01*
X37732969Y-6624632D01*
X37541161Y-6617059D01*
X37381320Y-6604437D01*
X37256381Y-6479509D01*
X37256648Y-6309387D01*
X37257448Y-6101879D01*
X37258781Y-5856987D01*
X37260648Y-5574709D01*
X37262515Y-5290779D01*
X37263848Y-5044706D01*
X37264648Y-4836491D01*
X37264915Y-4666133D01*
X37260393Y-4378310D01*
X37246828Y-4107944D01*
X37224219Y-3855034D01*
X37192566Y-3619581D01*
X37151870Y-3401585D01*
X37102131Y-3201045D01*
X37094664Y-3144298D01*
X37151411Y-3068565D01*
X37311673Y-3049211D01*
X37514841Y-3021442D01*
X37760915Y-2985258D01*
X38095321Y-2920061D01*
X38301013Y-2880943D01*
X38377992Y-2867903D01*
X38433832Y-2927527D01*
X38465032Y-3106399D01*
X38491565Y-3285279D01*
X38533192Y-3344906D01*
X38584293Y-3295693D01*
X38843624Y-3148053D01*
X39082969Y-3036580D01*
X39316423Y-2969697D01*
X39543987Y-2947402D01*
X39702995Y-2970122D01*
X39755997Y-3038282D01*
X39750317Y-3170786D01*
X39733277Y-3348714D01*
X39715304Y-3534215D01*
X39706824Y-3659146D01*
X39707891Y-3786911D01*
X39711091Y-3950645D01*
X39716691Y-4136146D01*
X39718557Y-4245930D01*
X39716733Y-4245759D01*
G36*
X43801555Y-4741695D02*
X42559827Y-4741695D01*
X42539216Y-4550306D01*
X42477385Y-4374900D01*
X42374333Y-4215477D01*
X42238466Y-4087181D01*
X42078203Y-4010203D01*
X41893544Y-3984543D01*
X41705935Y-4010623D01*
X41541885Y-4088863D01*
X41401395Y-4219263D01*
X41300441Y-4374900D01*
X41239868Y-4549044D01*
X41219677Y-4741695D01*
X41239868Y-4936451D01*
X41300441Y-5111857D01*
X41401395Y-5267914D01*
X41541885Y-5398314D01*
X41705935Y-5476554D01*
X41893544Y-5502634D01*
X42079044Y-5476554D01*
X42241832Y-5398314D01*
X42381907Y-5267914D01*
X42480751Y-5111857D01*
X42540058Y-4936451D01*
X42559827Y-4741695D01*
X43801555Y-4741695D01*
X43786832Y-5020370D01*
X43742665Y-5280957D01*
X43669053Y-5523455D01*
X43565997Y-5747866D01*
X43433495Y-5954187D01*
X43271549Y-6142421D01*
X43086889Y-6306681D01*
X42883721Y-6441076D01*
X42662045Y-6545605D01*
X42421862Y-6620269D01*
X42163170Y-6665067D01*
X41885971Y-6679999D01*
X41616552Y-6665277D01*
X41363538Y-6621110D01*
X41126928Y-6547498D01*
X40906723Y-6444442D01*
X40702923Y-6311940D01*
X40515528Y-6149994D01*
X40351268Y-5964913D01*
X40216873Y-5763006D01*
X40112344Y-5544274D01*
X40037680Y-5308717D01*
X39992882Y-5056333D01*
X39977949Y-4787125D01*
X39992251Y-4503615D01*
X40035157Y-4238613D01*
X40106667Y-3992119D01*
X40206780Y-3764135D01*
X40335498Y-3554658D01*
X40492819Y-3363690D01*
X40674534Y-3195959D01*
X40876439Y-3058724D01*
X41098536Y-2951986D01*
X41340823Y-2875745D01*
X41603302Y-2830000D01*
X41885971Y-2814751D01*
X42162118Y-2829684D01*
X42420179Y-2874482D01*
X42660152Y-2949146D01*
X42882038Y-3053675D01*
X43085837Y-3188070D01*
X43271549Y-3352330D01*
X43433495Y-3539199D01*
X43565997Y-3743945D01*
X43669053Y-3966567D01*
X43742665Y-4207067D01*
X43786832Y-4465443D01*
X43801555Y-4741695D01*
X43801555Y-4741695D01*
G37*
X43801555Y-4741695D02*
X42559827Y-4741695D01*
X42539216Y-4550306D01*
X42477385Y-4374900D01*
X42374333Y-4215477D01*
X42238466Y-4087181D01*
X42078203Y-4010203D01*
X41893544Y-3984543D01*
X41705935Y-4010623D01*
X41541885Y-4088863D01*
X41401395Y-4219263D01*
X41300441Y-4374900D01*
X41239868Y-4549044D01*
X41219677Y-4741695D01*
X41239868Y-4936451D01*
X41300441Y-5111857D01*
X41401395Y-5267914D01*
X41541885Y-5398314D01*
X41705935Y-5476554D01*
X41893544Y-5502634D01*
X42079044Y-5476554D01*
X42241832Y-5398314D01*
X42381907Y-5267914D01*
X42480751Y-5111857D01*
X42540058Y-4936451D01*
X42559827Y-4741695D01*
X43801555Y-4741695D01*
X43786832Y-5020370D01*
X43742665Y-5280957D01*
X43669053Y-5523455D01*
X43565997Y-5747866D01*
X43433495Y-5954187D01*
X43271549Y-6142421D01*
X43086889Y-6306681D01*
X42883721Y-6441076D01*
X42662045Y-6545605D01*
X42421862Y-6620269D01*
X42163170Y-6665067D01*
X41885971Y-6679999D01*
X41616552Y-6665277D01*
X41363538Y-6621110D01*
X41126928Y-6547498D01*
X40906723Y-6444442D01*
X40702923Y-6311940D01*
X40515528Y-6149994D01*
X40351268Y-5964913D01*
X40216873Y-5763006D01*
X40112344Y-5544274D01*
X40037680Y-5308717D01*
X39992882Y-5056333D01*
X39977949Y-4787125D01*
X39992251Y-4503615D01*
X40035157Y-4238613D01*
X40106667Y-3992119D01*
X40206780Y-3764135D01*
X40335498Y-3554658D01*
X40492819Y-3363690D01*
X40674534Y-3195959D01*
X40876439Y-3058724D01*
X41098536Y-2951986D01*
X41340823Y-2875745D01*
X41603302Y-2830000D01*
X41885971Y-2814751D01*
X42162118Y-2829684D01*
X42420179Y-2874482D01*
X42660152Y-2949146D01*
X42882038Y-3053675D01*
X43085837Y-3188070D01*
X43271549Y-3352330D01*
X43433495Y-3539199D01*
X43565997Y-3743945D01*
X43669053Y-3966567D01*
X43742665Y-4207067D01*
X43786832Y-4465443D01*
X43801555Y-4741695D01*
G36*
X48026451Y-6494495D02*
X47920424Y-6611861D01*
X47729229Y-6623221D01*
X47367699Y-6627007D01*
X47090079Y-6624483D01*
X46893222Y-6616910D01*
X46777128Y-6604287D01*
X46663549Y-6449066D01*
X46666403Y-6225709D01*
X46674963Y-5911498D01*
X46683443Y-5596333D01*
X46686269Y-5370133D01*
X46684403Y-5195986D01*
X46678803Y-4953695D01*
X46673203Y-4708573D01*
X46671336Y-4533482D01*
X46643179Y-4306575D01*
X46558709Y-4144498D01*
X46417926Y-4047252D01*
X46220829Y-4014837D01*
X46060885Y-4047015D01*
X45876328Y-4143551D01*
X45717328Y-4286463D01*
X45664328Y-4427477D01*
X45664328Y-6471786D01*
X45546973Y-6611861D01*
X45345381Y-6623221D01*
X45005608Y-6627007D01*
X44744812Y-6624483D01*
X44553000Y-6616910D01*
X44430173Y-6604287D01*
X44312819Y-6479359D01*
X44313085Y-6313020D01*
X44313885Y-6109298D01*
X44315219Y-5868193D01*
X44317085Y-5589706D01*
X44318952Y-5310978D01*
X44320285Y-5069162D01*
X44321085Y-4864258D01*
X44321352Y-4696266D01*
X44317251Y-4393303D01*
X44304947Y-4112843D01*
X44284440Y-3854887D01*
X44255731Y-3619435D01*
X44218819Y-3406487D01*
X44173704Y-3216042D01*
X44166237Y-3159295D01*
X44222984Y-3075989D01*
X44399649Y-3054975D01*
X44611649Y-3027207D01*
X44858984Y-2992682D01*
X45201808Y-2927485D01*
X45427693Y-2888367D01*
X45536637Y-2875327D01*
X45573517Y-2939685D01*
X45600957Y-3132757D01*
X45628397Y-3322989D01*
X45665277Y-3386399D01*
X45745747Y-3321095D01*
X46070355Y-3125183D01*
X46288505Y-3009245D01*
X46492461Y-2926431D01*
X46682223Y-2876743D01*
X46857789Y-2860181D01*
X47088246Y-2874377D01*
X47298827Y-2916967D01*
X47489531Y-2987951D01*
X47660360Y-3087327D01*
X47817706Y-3230712D01*
X47930096Y-3399650D01*
X47997530Y-3594141D01*
X48020008Y-3814186D01*
X48020008Y-5021845D01*
X48020482Y-5213233D01*
X48021904Y-5459306D01*
X48024275Y-5760063D01*
X48026645Y-6058717D01*
X48028067Y-6303528D01*
X48028541Y-6494495D01*
X48026451Y-6494495D01*
X48026451Y-6494495D01*
G37*
X48026451Y-6494495D02*
X47920424Y-6611861D01*
X47729229Y-6623221D01*
X47367699Y-6627007D01*
X47090079Y-6624483D01*
X46893222Y-6616910D01*
X46777128Y-6604287D01*
X46663549Y-6449066D01*
X46666403Y-6225709D01*
X46674963Y-5911498D01*
X46683443Y-5596333D01*
X46686269Y-5370133D01*
X46684403Y-5195986D01*
X46678803Y-4953695D01*
X46673203Y-4708573D01*
X46671336Y-4533482D01*
X46643179Y-4306575D01*
X46558709Y-4144498D01*
X46417926Y-4047252D01*
X46220829Y-4014837D01*
X46060885Y-4047015D01*
X45876328Y-4143551D01*
X45717328Y-4286463D01*
X45664328Y-4427477D01*
X45664328Y-6471786D01*
X45546973Y-6611861D01*
X45345381Y-6623221D01*
X45005608Y-6627007D01*
X44744812Y-6624483D01*
X44553000Y-6616910D01*
X44430173Y-6604287D01*
X44312819Y-6479359D01*
X44313085Y-6313020D01*
X44313885Y-6109298D01*
X44315219Y-5868193D01*
X44317085Y-5589706D01*
X44318952Y-5310978D01*
X44320285Y-5069162D01*
X44321085Y-4864258D01*
X44321352Y-4696266D01*
X44317251Y-4393303D01*
X44304947Y-4112843D01*
X44284440Y-3854887D01*
X44255731Y-3619435D01*
X44218819Y-3406487D01*
X44173704Y-3216042D01*
X44166237Y-3159295D01*
X44222984Y-3075989D01*
X44399649Y-3054975D01*
X44611649Y-3027207D01*
X44858984Y-2992682D01*
X45201808Y-2927485D01*
X45427693Y-2888367D01*
X45536637Y-2875327D01*
X45573517Y-2939685D01*
X45600957Y-3132757D01*
X45628397Y-3322989D01*
X45665277Y-3386399D01*
X45745747Y-3321095D01*
X46070355Y-3125183D01*
X46288505Y-3009245D01*
X46492461Y-2926431D01*
X46682223Y-2876743D01*
X46857789Y-2860181D01*
X47088246Y-2874377D01*
X47298827Y-2916967D01*
X47489531Y-2987951D01*
X47660360Y-3087327D01*
X47817706Y-3230712D01*
X47930096Y-3399650D01*
X47997530Y-3594141D01*
X48020008Y-3814186D01*
X48020008Y-5021845D01*
X48020482Y-5213233D01*
X48021904Y-5459306D01*
X48024275Y-5760063D01*
X48026645Y-6058717D01*
X48028067Y-6303528D01*
X48028541Y-6494495D01*
X48026451Y-6494495D01*
G36*
X50154045Y-2053813D02*
X50055603Y-3007850D01*
X50146483Y-3083583D01*
X50139016Y-3155477D01*
X50116914Y-3371189D01*
X50098213Y-3596481D01*
X50082912Y-3831353D01*
X50071011Y-4075804D01*
X50062510Y-4329834D01*
X50057410Y-4593444D01*
X50055709Y-4866634D01*
X50055592Y-4866623D01*
X50056848Y-5081151D01*
X50060617Y-5356252D01*
X50066899Y-5691925D01*
X50073180Y-6025067D01*
X50076949Y-6297640D01*
X50078205Y-6509642D01*
X49983592Y-6604255D01*
X49862028Y-6616878D01*
X49668954Y-6624451D01*
X49404371Y-6626975D01*
X49137684Y-6624451D01*
X48943348Y-6616878D01*
X48821363Y-6604255D01*
X48719176Y-6555082D01*
X48711709Y-6441503D01*
X48712966Y-6238335D01*
X48716735Y-5977119D01*
X48723016Y-5657855D01*
X48729298Y-5336067D01*
X48733066Y-5072327D01*
X48734323Y-4866634D01*
X48732623Y-4568411D01*
X48727522Y-4288112D01*
X48719021Y-4025737D01*
X48707121Y-3781286D01*
X48691819Y-3554759D01*
X48673118Y-3346156D01*
X48651016Y-3155477D01*
X48643549Y-3076010D01*
X48745736Y-3000277D01*
X48879197Y-3005957D01*
X49067528Y-3022997D01*
X49259653Y-3040037D01*
X49396883Y-3045717D01*
X49534120Y-3040970D01*
X49726248Y-3026730D01*
X49918373Y-3012570D01*
X50055603Y-3007850D01*
X50154045Y-2053813D01*
X50124365Y-2290952D01*
X50035325Y-2475394D01*
X49886923Y-2607138D01*
X49679162Y-2686184D01*
X49412040Y-2712533D01*
X49212236Y-2694025D01*
X49036829Y-2638501D01*
X48885821Y-2545962D01*
X48759629Y-2410516D01*
X48683913Y-2246466D01*
X48658675Y-2053813D01*
X48684754Y-1868733D01*
X48762990Y-1707208D01*
X48893384Y-1569237D01*
X49046922Y-1472490D01*
X49219808Y-1414442D01*
X49412040Y-1395093D01*
X49600064Y-1414863D01*
X49770421Y-1474173D01*
X49923112Y-1573023D01*
X50051408Y-1710574D01*
X50128386Y-1870837D01*
X50154045Y-2053813D01*
X50154045Y-2053813D01*
G37*
X50154045Y-2053813D02*
X50055603Y-3007850D01*
X50146483Y-3083583D01*
X50139016Y-3155477D01*
X50116914Y-3371189D01*
X50098213Y-3596481D01*
X50082912Y-3831353D01*
X50071011Y-4075804D01*
X50062510Y-4329834D01*
X50057410Y-4593444D01*
X50055709Y-4866634D01*
X50055592Y-4866623D01*
X50056848Y-5081151D01*
X50060617Y-5356252D01*
X50066899Y-5691925D01*
X50073180Y-6025067D01*
X50076949Y-6297640D01*
X50078205Y-6509642D01*
X49983592Y-6604255D01*
X49862028Y-6616878D01*
X49668954Y-6624451D01*
X49404371Y-6626975D01*
X49137684Y-6624451D01*
X48943348Y-6616878D01*
X48821363Y-6604255D01*
X48719176Y-6555082D01*
X48711709Y-6441503D01*
X48712966Y-6238335D01*
X48716735Y-5977119D01*
X48723016Y-5657855D01*
X48729298Y-5336067D01*
X48733066Y-5072327D01*
X48734323Y-4866634D01*
X48732623Y-4568411D01*
X48727522Y-4288112D01*
X48719021Y-4025737D01*
X48707121Y-3781286D01*
X48691819Y-3554759D01*
X48673118Y-3346156D01*
X48651016Y-3155477D01*
X48643549Y-3076010D01*
X48745736Y-3000277D01*
X48879197Y-3005957D01*
X49067528Y-3022997D01*
X49259653Y-3040037D01*
X49396883Y-3045717D01*
X49534120Y-3040970D01*
X49726248Y-3026730D01*
X49918373Y-3012570D01*
X50055603Y-3007850D01*
X50154045Y-2053813D01*
X50124365Y-2290952D01*
X50035325Y-2475394D01*
X49886923Y-2607138D01*
X49679162Y-2686184D01*
X49412040Y-2712533D01*
X49212236Y-2694025D01*
X49036829Y-2638501D01*
X48885821Y-2545962D01*
X48759629Y-2410516D01*
X48683913Y-2246466D01*
X48658675Y-2053813D01*
X48684754Y-1868733D01*
X48762990Y-1707208D01*
X48893384Y-1569237D01*
X49046922Y-1472490D01*
X49219808Y-1414442D01*
X49412040Y-1395093D01*
X49600064Y-1414863D01*
X49770421Y-1474173D01*
X49923112Y-1573023D01*
X50051408Y-1710574D01*
X50128386Y-1870837D01*
X50154045Y-2053813D01*
G36*
X53296211Y-4113269D02*
X53065277Y-4052682D01*
X52862741Y-4007242D01*
X52701853Y-3992095D01*
X52492372Y-4014811D01*
X52313179Y-4082957D01*
X52164275Y-4196533D01*
X52052802Y-4345436D01*
X51985919Y-4524625D01*
X51963624Y-4734101D01*
X51988021Y-4949889D01*
X52061212Y-5132868D01*
X52183197Y-5283039D01*
X52344302Y-5392402D01*
X52534851Y-5458020D01*
X52754845Y-5479893D01*
X52931835Y-5459066D01*
X53129640Y-5396586D01*
X53326493Y-5309546D01*
X53400299Y-5429743D01*
X53493075Y-5790335D01*
X53541430Y-6050290D01*
X53570444Y-6244626D01*
X53580115Y-6373343D01*
X53527955Y-6464623D01*
X53371475Y-6546646D01*
X53110675Y-6619413D01*
X52883955Y-6663561D01*
X52688360Y-6690050D01*
X52523891Y-6698879D01*
X52254367Y-6683316D01*
X52001037Y-6636624D01*
X51763901Y-6558805D01*
X51542960Y-6449858D01*
X51338214Y-6309783D01*
X51149661Y-6138581D01*
X50984244Y-5944141D01*
X50848903Y-5734349D01*
X50743637Y-5509202D01*
X50668448Y-5268702D01*
X50623334Y-5012849D01*
X50608296Y-4741642D01*
X50623334Y-4472644D01*
X50668448Y-4218369D01*
X50743637Y-3978815D01*
X50848903Y-3753985D01*
X50984244Y-3543876D01*
X51149661Y-3348490D01*
X51339266Y-3174977D01*
X51544643Y-3033012D01*
X51765795Y-2922594D01*
X52002720Y-2843725D01*
X52255418Y-2796403D01*
X52523891Y-2780629D01*
X52797410Y-2795771D01*
X53053893Y-2841199D01*
X53293341Y-2916913D01*
X53515752Y-3022911D01*
X53614205Y-3125098D01*
X53585811Y-3261365D01*
X53500627Y-3571818D01*
X53412597Y-3878461D01*
X53360563Y-4033674D01*
X53296243Y-4113141D01*
X53296211Y-4113269D01*
X53296211Y-4113269D01*
G37*
X53296211Y-4113269D02*
X53065277Y-4052682D01*
X52862741Y-4007242D01*
X52701853Y-3992095D01*
X52492372Y-4014811D01*
X52313179Y-4082957D01*
X52164275Y-4196533D01*
X52052802Y-4345436D01*
X51985919Y-4524625D01*
X51963624Y-4734101D01*
X51988021Y-4949889D01*
X52061212Y-5132868D01*
X52183197Y-5283039D01*
X52344302Y-5392402D01*
X52534851Y-5458020D01*
X52754845Y-5479893D01*
X52931835Y-5459066D01*
X53129640Y-5396586D01*
X53326493Y-5309546D01*
X53400299Y-5429743D01*
X53493075Y-5790335D01*
X53541430Y-6050290D01*
X53570444Y-6244626D01*
X53580115Y-6373343D01*
X53527955Y-6464623D01*
X53371475Y-6546646D01*
X53110675Y-6619413D01*
X52883955Y-6663561D01*
X52688360Y-6690050D01*
X52523891Y-6698879D01*
X52254367Y-6683316D01*
X52001037Y-6636624D01*
X51763901Y-6558805D01*
X51542960Y-6449858D01*
X51338214Y-6309783D01*
X51149661Y-6138581D01*
X50984244Y-5944141D01*
X50848903Y-5734349D01*
X50743637Y-5509202D01*
X50668448Y-5268702D01*
X50623334Y-5012849D01*
X50608296Y-4741642D01*
X50623334Y-4472644D01*
X50668448Y-4218369D01*
X50743637Y-3978815D01*
X50848903Y-3753985D01*
X50984244Y-3543876D01*
X51149661Y-3348490D01*
X51339266Y-3174977D01*
X51544643Y-3033012D01*
X51765795Y-2922594D01*
X52002720Y-2843725D01*
X52255418Y-2796403D01*
X52523891Y-2780629D01*
X52797410Y-2795771D01*
X53053893Y-2841199D01*
X53293341Y-2916913D01*
X53515752Y-3022911D01*
X53614205Y-3125098D01*
X53585811Y-3261365D01*
X53500627Y-3571818D01*
X53412597Y-3878461D01*
X53360563Y-4033674D01*
X53296243Y-4113141D01*
X53296211Y-4113269D01*
G36*
X56230163Y-3541621D02*
X56173416Y-3643807D01*
X55961405Y-3617354D01*
X55756029Y-3641967D01*
X55586621Y-3715807D01*
X55450333Y-3853037D01*
X55404904Y-4037589D01*
X55453173Y-4188074D01*
X55597981Y-4374527D01*
X55833640Y-4631010D01*
X55957619Y-4787167D01*
X56064884Y-4983608D01*
X56129243Y-5189301D01*
X56150696Y-5404245D01*
X56131763Y-5602999D01*
X56074963Y-5813109D01*
X55976549Y-6019429D01*
X55855389Y-6161397D01*
X55658108Y-6314507D01*
X55439797Y-6450795D01*
X55200456Y-6570261D01*
X54937556Y-6667007D01*
X54688959Y-6725055D01*
X54454664Y-6744405D01*
X54331616Y-6642189D01*
X54113939Y-6335541D01*
X53968819Y-6096195D01*
X53881747Y-5928359D01*
X53852723Y-5832031D01*
X53894323Y-5790431D01*
X54160272Y-5741231D01*
X54428115Y-5691978D01*
X54613199Y-5606155D01*
X54724250Y-5490056D01*
X54761267Y-5343679D01*
X54712997Y-5163858D01*
X54568189Y-4957535D01*
X54306027Y-4665090D01*
X54208541Y-4552469D01*
X54101282Y-4367387D01*
X54036927Y-4175575D01*
X54015475Y-3977034D01*
X54038492Y-3756704D01*
X54107544Y-3550002D01*
X54222631Y-3356929D01*
X54383753Y-3177485D01*
X54590909Y-3011669D01*
X54799730Y-2884922D01*
X55014304Y-2786341D01*
X55234633Y-2715926D01*
X55460715Y-2673677D01*
X55692552Y-2659594D01*
X55797616Y-2761807D01*
X55991635Y-3068447D01*
X56170507Y-3389293D01*
X56230131Y-3541674D01*
X56230163Y-3541621D01*
X56230163Y-3541621D01*
G37*
X56230163Y-3541621D02*
X56173416Y-3643807D01*
X55961405Y-3617354D01*
X55756029Y-3641967D01*
X55586621Y-3715807D01*
X55450333Y-3853037D01*
X55404904Y-4037589D01*
X55453173Y-4188074D01*
X55597981Y-4374527D01*
X55833640Y-4631010D01*
X55957619Y-4787167D01*
X56064884Y-4983608D01*
X56129243Y-5189301D01*
X56150696Y-5404245D01*
X56131763Y-5602999D01*
X56074963Y-5813109D01*
X55976549Y-6019429D01*
X55855389Y-6161397D01*
X55658108Y-6314507D01*
X55439797Y-6450795D01*
X55200456Y-6570261D01*
X54937556Y-6667007D01*
X54688959Y-6725055D01*
X54454664Y-6744405D01*
X54331616Y-6642189D01*
X54113939Y-6335541D01*
X53968819Y-6096195D01*
X53881747Y-5928359D01*
X53852723Y-5832031D01*
X53894323Y-5790431D01*
X54160272Y-5741231D01*
X54428115Y-5691978D01*
X54613199Y-5606155D01*
X54724250Y-5490056D01*
X54761267Y-5343679D01*
X54712997Y-5163858D01*
X54568189Y-4957535D01*
X54306027Y-4665090D01*
X54208541Y-4552469D01*
X54101282Y-4367387D01*
X54036927Y-4175575D01*
X54015475Y-3977034D01*
X54038492Y-3756704D01*
X54107544Y-3550002D01*
X54222631Y-3356929D01*
X54383753Y-3177485D01*
X54590909Y-3011669D01*
X54799730Y-2884922D01*
X55014304Y-2786341D01*
X55234633Y-2715926D01*
X55460715Y-2673677D01*
X55692552Y-2659594D01*
X55797616Y-2761807D01*
X55991635Y-3068447D01*
X56170507Y-3389293D01*
X56230131Y-3541674D01*
X56230163Y-3541621D01*
M02*
