%TF.GenerationSoftware,KiCad,Pcbnew,4.0.7*%
%TF.CreationDate,2017-12-02T01:49:37+08:00*%
%TF.ProjectId,design1,64657369676E312E6B696361645F7063,rev?*%
%TF.FileFunction,Copper,L2,Bot,Signal*%
%FSLAX46Y46*%
G04 Gerber Fmt 4.6, Leading zero omitted, Abs format (unit mm)*
G04 Created by KiCad (PCBNEW 4.0.7) date 12/02/17 01:49:37*
%MOMM*%
%LPD*%
G01*
G04 APERTURE LIST*
%ADD10C,0.100000*%
%ADD11C,0.002822*%
G04 APERTURE END LIST*
D10*
G36*
X40357939Y-6147061D02*
X40369901Y-5943791D01*
X40384120Y-5767116D01*
X40400596Y-5617038D01*
X40143278Y-5722710D01*
X39902212Y-5786113D01*
X39677397Y-5807248D01*
X39435654Y-5766639D01*
X39269074Y-5649093D01*
X39214223Y-5478117D01*
X39238600Y-5347750D01*
X39360488Y-5183186D01*
X39459578Y-5087962D01*
X39599749Y-4959018D01*
X39781000Y-4796354D01*
X39902888Y-4684687D01*
X39980083Y-4610419D01*
X40087750Y-4495011D01*
X40166978Y-4392427D01*
X40260428Y-4197941D01*
X40288872Y-3992772D01*
X40262464Y-3798288D01*
X40183237Y-3616627D01*
X40049668Y-3459009D01*
X39864298Y-3340930D01*
X39709907Y-3285127D01*
X39531138Y-3251646D01*
X39327992Y-3240485D01*
X39126201Y-3248796D01*
X38908158Y-3273730D01*
X38673863Y-3315285D01*
X38658629Y-3553582D01*
X38633235Y-3823937D01*
X38839090Y-3752697D01*
X39034109Y-3709953D01*
X39218295Y-3695705D01*
X39399603Y-3719748D01*
X39545359Y-3791874D01*
X39639822Y-3893927D01*
X39671310Y-4012005D01*
X39663214Y-4084666D01*
X39638837Y-4157327D01*
X39581958Y-4249228D01*
X39460071Y-4381733D01*
X39321931Y-4503553D01*
X39039559Y-4742918D01*
X38868916Y-4905344D01*
X38740934Y-5057085D01*
X38655610Y-5196002D01*
X38610924Y-5332782D01*
X38594673Y-5478110D01*
X38614479Y-5652826D01*
X38673900Y-5817924D01*
X38770395Y-5962185D01*
X38901424Y-6078661D01*
X39056830Y-6165217D01*
X39226456Y-6219716D01*
X39408272Y-6250172D01*
X39600245Y-6260324D01*
X39740924Y-6254447D01*
X39902932Y-6236816D01*
X40103031Y-6202622D01*
X40357979Y-6147054D01*
X40357939Y-6147061D01*
X40357939Y-6147061D01*
G37*
G36*
X36918680Y-5762367D02*
X36950168Y-5930136D01*
X36995879Y-6198354D01*
X37148239Y-6231481D01*
X37264032Y-6249647D01*
X37446863Y-6260331D01*
X37589573Y-6252850D01*
X37717047Y-6230407D01*
X37912067Y-6125684D01*
X38017702Y-5948297D01*
X38044108Y-5736715D01*
X38042109Y-5661915D01*
X38037047Y-5562538D01*
X38025858Y-5358435D01*
X37979133Y-4469364D01*
X38271663Y-4469364D01*
X38262016Y-4302130D01*
X38253383Y-4056888D01*
X37946632Y-4056888D01*
X37934441Y-3889652D01*
X37922255Y-3635860D01*
X37682544Y-3586707D01*
X37572334Y-3561593D01*
X37392044Y-3516174D01*
X37400167Y-3704485D01*
X37405584Y-3884721D01*
X37408296Y-4056883D01*
X36892304Y-4056883D01*
X36902971Y-4304262D01*
X36906526Y-4469360D01*
X37424548Y-4469360D01*
X37443210Y-4858462D01*
X37456541Y-5155932D01*
X37464539Y-5361770D01*
X37467205Y-5475976D01*
X37440799Y-5681146D01*
X37351417Y-5785868D01*
X37221403Y-5817921D01*
X37115768Y-5809426D01*
X36918716Y-5762401D01*
X36918680Y-5762367D01*
X36918680Y-5762367D01*
G37*
G36*
X34545937Y-6209039D02*
X34703882Y-6205816D01*
X34820184Y-6204742D01*
X34948166Y-6205816D01*
X35092399Y-6209039D01*
X35088302Y-5854267D01*
X35187848Y-5999595D01*
X35299579Y-6106454D01*
X35449907Y-6189810D01*
X35636801Y-6238963D01*
X35858230Y-6260342D01*
X36071025Y-6243246D01*
X36254363Y-6191958D01*
X36405708Y-6103797D01*
X36522516Y-5980376D01*
X36595647Y-5808868D01*
X36620024Y-5576449D01*
X36620024Y-5531573D01*
X36587522Y-4980178D01*
X36557048Y-4253534D01*
X36555049Y-4035541D01*
X36382883Y-4038764D01*
X36252361Y-4039839D01*
X36124380Y-4038764D01*
X35972021Y-4035541D01*
X36039065Y-5010099D01*
X36049220Y-5202446D01*
X36051219Y-5313579D01*
X36040554Y-5454634D01*
X36008562Y-5570042D01*
X35856202Y-5723919D01*
X35622585Y-5777351D01*
X35399124Y-5730336D01*
X35236607Y-5610654D01*
X35120814Y-5403346D01*
X35090346Y-5291142D01*
X35068002Y-5142608D01*
X35054295Y-4982854D01*
X35041597Y-4738680D01*
X35031892Y-4506676D01*
X35024446Y-4272298D01*
X35019258Y-4035545D01*
X34842014Y-4038768D01*
X34712508Y-4039843D01*
X34585034Y-4038768D01*
X34442324Y-4035545D01*
X34458801Y-4256388D01*
X34475729Y-4511426D01*
X34493107Y-4800659D01*
X34508907Y-5087992D01*
X34521097Y-5340181D01*
X34529678Y-5557224D01*
X34535997Y-5761681D01*
X34541414Y-5978962D01*
X34545929Y-6209066D01*
X34545937Y-6209039D01*
X34545937Y-6209039D01*
G37*
G36*
X31941609Y-6209039D02*
X32203666Y-6204742D01*
X32544956Y-5426846D01*
X32499757Y-5267625D01*
X32469786Y-5063524D01*
X32460535Y-4918670D01*
X32451733Y-4706375D01*
X32443380Y-4426641D01*
X32443390Y-4426638D01*
X32592702Y-4394578D01*
X32735920Y-4383891D01*
X32892850Y-4395647D01*
X33042670Y-4430916D01*
X33180809Y-4494496D01*
X33302696Y-4591205D01*
X33401730Y-4720505D01*
X33475370Y-4881863D01*
X33521073Y-5056043D01*
X33536308Y-5223812D01*
X33522595Y-5381430D01*
X33481457Y-5525156D01*
X33409341Y-5647510D01*
X33306751Y-5741012D01*
X33181309Y-5800320D01*
X33040630Y-5820090D01*
X32837485Y-5779482D01*
X32670906Y-5651250D01*
X32544956Y-5426846D01*
X32203666Y-6204742D01*
X32324538Y-6205816D01*
X32484007Y-6209039D01*
X32465727Y-5837169D01*
X32620118Y-6025241D01*
X32778572Y-6149198D01*
X32981717Y-6232554D01*
X33209241Y-6260339D01*
X33398166Y-6241639D01*
X33574902Y-6185539D01*
X33732849Y-6095778D01*
X33865402Y-5976096D01*
X33969514Y-5827027D01*
X34042138Y-5653380D01*
X34084798Y-5461567D01*
X34099018Y-5262274D01*
X34087732Y-5077288D01*
X34053874Y-4895627D01*
X33997444Y-4717290D01*
X33877080Y-4475789D01*
X33719135Y-4285579D01*
X33530717Y-4145059D01*
X33318938Y-4052625D01*
X33087351Y-4001337D01*
X32839514Y-3984241D01*
X32642462Y-3993324D01*
X32421033Y-4020572D01*
X32413137Y-3832262D01*
X32408400Y-3637778D01*
X32406820Y-3437119D01*
X32406820Y-3291791D01*
X32238209Y-3295014D01*
X32114291Y-3296089D01*
X31974119Y-3295014D01*
X31817697Y-3291791D01*
X31832480Y-3483663D01*
X31847038Y-3697382D01*
X31861371Y-3932947D01*
X31875479Y-4190359D01*
X31889363Y-4469619D01*
X31903021Y-4770725D01*
X31914816Y-5070109D01*
X31924465Y-5345629D01*
X31931971Y-5597283D01*
X31937332Y-5825072D01*
X31940549Y-6028995D01*
X31941621Y-6209053D01*
X31941609Y-6209039D01*
X31941609Y-6209039D01*
G37*
G36*
X31695802Y-7192147D02*
X31728817Y-6916449D01*
X31754720Y-6730513D01*
X31565287Y-6802647D01*
X31387027Y-6826692D01*
X31279359Y-6811740D01*
X31177786Y-6773270D01*
X31116849Y-6724116D01*
X31029505Y-6606570D01*
X30934026Y-6437733D01*
X30866982Y-6260346D01*
X31289526Y-4958798D01*
X31598307Y-4035532D01*
X31414968Y-4038755D01*
X31291558Y-4039830D01*
X31167130Y-4038755D01*
X31009184Y-4035532D01*
X30968049Y-4201165D01*
X30929957Y-4343288D01*
X30736969Y-5014365D01*
X30660282Y-5285788D01*
X30608987Y-5480272D01*
X30582578Y-5599421D01*
X30552107Y-5751695D01*
X30495230Y-5575377D01*
X30446472Y-5435391D01*
X30386656Y-5270590D01*
X30312846Y-5072544D01*
X30225043Y-4841252D01*
X30027991Y-4330465D01*
X29974668Y-4188342D01*
X29920323Y-4035532D01*
X29759331Y-4038755D01*
X29642015Y-4039830D01*
X29525206Y-4038755D01*
X29349485Y-4035532D01*
X30131596Y-5879927D01*
X30470850Y-6694195D01*
X30540427Y-6834715D01*
X30606957Y-6939972D01*
X30722750Y-7068203D01*
X30852763Y-7153687D01*
X31041689Y-7222071D01*
X31275306Y-7247717D01*
X31462201Y-7234894D01*
X31695818Y-7192147D01*
X31695802Y-7192147D01*
X31695802Y-7192147D01*
G37*
G36*
X25818794Y-4084674D02*
X26265662Y-4353935D01*
X26436303Y-4332567D01*
X26584092Y-4350732D01*
X26714614Y-4405228D01*
X26821773Y-4494458D01*
X26903539Y-4621085D01*
X26953822Y-4764276D01*
X26970583Y-4907468D01*
X26946206Y-5048523D01*
X26860882Y-5155382D01*
X26726805Y-5195990D01*
X26605934Y-5171413D01*
X26495220Y-5097682D01*
X26405327Y-4981207D01*
X26346923Y-4828397D01*
X26310358Y-4648872D01*
X26265667Y-4353940D01*
X26265662Y-4353935D01*
X25818794Y-4084674D01*
X25851297Y-4249238D01*
X25877703Y-4426624D01*
X25904108Y-4587448D01*
X25930514Y-4732241D01*
X25963017Y-4931001D01*
X25973172Y-5016486D01*
X25975171Y-5059233D01*
X25942668Y-5153273D01*
X25859372Y-5185326D01*
X25746119Y-5157542D01*
X25621693Y-5074192D01*
X25504376Y-4941686D01*
X25412452Y-4770711D01*
X25351509Y-4573021D01*
X25331195Y-4364644D01*
X25348461Y-4181916D01*
X25400258Y-4009872D01*
X25491163Y-3854925D01*
X25625750Y-3727762D01*
X25794361Y-3629452D01*
X25987349Y-3565336D01*
X26195066Y-3528471D01*
X26407862Y-3516182D01*
X26597464Y-3525681D01*
X26781650Y-3554175D01*
X26960419Y-3601667D01*
X27128804Y-3669821D01*
X27284548Y-3763145D01*
X27427653Y-3881638D01*
X27554281Y-4022218D01*
X27660594Y-4181794D01*
X27746593Y-4360368D01*
X27809793Y-4550815D01*
X27847714Y-4746012D01*
X27860354Y-4945958D01*
X27842578Y-5171431D01*
X27789252Y-5381945D01*
X27697329Y-5567346D01*
X27567822Y-5721758D01*
X27401243Y-5841440D01*
X27202160Y-5922653D01*
X26978700Y-5969136D01*
X26743051Y-5984630D01*
X26510449Y-5973411D01*
X26304256Y-5939754D01*
X26109743Y-5873504D01*
X25912184Y-5764505D01*
X25849208Y-6012419D01*
X26051846Y-6123552D01*
X26269720Y-6200491D01*
X26505369Y-6245369D01*
X26765395Y-6260329D01*
X26962898Y-6250831D01*
X27154532Y-6222336D01*
X27340298Y-6174845D01*
X27512972Y-6108593D01*
X27665331Y-6023818D01*
X27797376Y-5920519D01*
X27955322Y-5732981D01*
X28067559Y-5508041D01*
X28116094Y-5341341D01*
X28145215Y-5166091D01*
X28154922Y-4982293D01*
X28139574Y-4739841D01*
X28093527Y-4502612D01*
X28016783Y-4270609D01*
X27913630Y-4052378D01*
X27788357Y-3859319D01*
X27640964Y-3691431D01*
X27472578Y-3549902D01*
X27284330Y-3435919D01*
X27076218Y-3349481D01*
X26854563Y-3288927D01*
X26625686Y-3252595D01*
X26389585Y-3240484D01*
X26206529Y-3248321D01*
X26028438Y-3271832D01*
X25855312Y-3311017D01*
X25617631Y-3399707D01*
X25416517Y-3529010D01*
X25255016Y-3695177D01*
X25136176Y-3898743D01*
X25063045Y-4125820D01*
X25038668Y-4366788D01*
X25053791Y-4559373D01*
X25099160Y-4743883D01*
X25174776Y-4920320D01*
X25275671Y-5081796D01*
X25399590Y-5221426D01*
X25546532Y-5339209D01*
X25705663Y-5427071D01*
X25868857Y-5479788D01*
X26036114Y-5497360D01*
X26200662Y-5471714D01*
X26328644Y-5390497D01*
X26385524Y-5260129D01*
X26495223Y-5369125D01*
X26586634Y-5426835D01*
X26724774Y-5478117D01*
X26875101Y-5497347D01*
X27010193Y-5479714D01*
X27131065Y-5426815D01*
X27229083Y-5343462D01*
X27299676Y-5234467D01*
X27342335Y-5102496D01*
X27356555Y-4950221D01*
X27326591Y-4717802D01*
X27236699Y-4482177D01*
X27092973Y-4276472D01*
X26901507Y-4133815D01*
X26743505Y-4070887D01*
X26559320Y-4033130D01*
X26348951Y-4020544D01*
X26131586Y-4033367D01*
X25995478Y-4052600D01*
X25818741Y-4084650D01*
X25818794Y-4084674D01*
X25818794Y-4084674D01*
G37*
G36*
X22988972Y-6209039D02*
X22944276Y-5584981D01*
X22899590Y-4655303D01*
X22871145Y-3740587D01*
X23013347Y-3740587D01*
X23145392Y-3742785D01*
X23271342Y-3744984D01*
X23740609Y-3759946D01*
X23727913Y-3489057D01*
X23722329Y-3291902D01*
X23486111Y-3293449D01*
X23245505Y-3294652D01*
X23000511Y-3295512D01*
X22751129Y-3296028D01*
X22497359Y-3296200D01*
X21768067Y-3294001D01*
X21378027Y-3291802D01*
X21393266Y-3558416D01*
X21398346Y-3755572D01*
X21640089Y-3744888D01*
X21875061Y-3738478D01*
X22103262Y-3736342D01*
X22259684Y-3736342D01*
X22284061Y-4127447D01*
X22342970Y-5632028D01*
X22347068Y-5884217D01*
X22348567Y-6043437D01*
X22349066Y-6209069D01*
X22657849Y-6204772D01*
X22766027Y-6205846D01*
X22988976Y-6209069D01*
X22988972Y-6209039D01*
X22988972Y-6209039D01*
G37*
G36*
X21550701Y-6209039D02*
X21463267Y-6044305D01*
X20224163Y-4727968D01*
X19446115Y-4727968D01*
X19765053Y-3740587D01*
X19929602Y-4099634D01*
X20224163Y-4727968D01*
X21463267Y-6044305D01*
X21369982Y-5864696D01*
X21270847Y-5670212D01*
X21165861Y-5460853D01*
X21055025Y-5236619D01*
X20520751Y-4157338D01*
X20401149Y-3915702D01*
X20292212Y-3690897D01*
X20193940Y-3482922D01*
X20106333Y-3291777D01*
X19880842Y-3295000D01*
X19732546Y-3296075D01*
X19541589Y-3295000D01*
X19354695Y-3291777D01*
X19064196Y-4165888D01*
X18432412Y-5973949D01*
X18345059Y-6209039D01*
X18649777Y-6204742D01*
X18791472Y-6205816D01*
X19005283Y-6209039D01*
X19044106Y-6067510D01*
X19095569Y-5896535D01*
X19159673Y-5696114D01*
X19225357Y-5494506D01*
X19284270Y-5319969D01*
X19336411Y-5172503D01*
X20404963Y-5172503D01*
X20499547Y-5376733D01*
X20593157Y-5582501D01*
X20685791Y-5789809D01*
X20777451Y-5998655D01*
X20868135Y-6209039D01*
X21199263Y-6204742D01*
X21333848Y-6205816D01*
X21550705Y-6209039D01*
X21550701Y-6209039D01*
X21550701Y-6209039D01*
G37*
G36*
X18050499Y-6209039D02*
X18031033Y-5991462D01*
X18013259Y-5763317D01*
X17997178Y-5524605D01*
X17982789Y-5275326D01*
X17970092Y-5015479D01*
X17959088Y-4745065D01*
X17949777Y-4474948D01*
X17942158Y-4215992D01*
X17936233Y-3968197D01*
X17932000Y-3731563D01*
X17929461Y-3506089D01*
X17928614Y-3291777D01*
X17704647Y-3295000D01*
X17520292Y-3296075D01*
X17345586Y-3294451D01*
X17174944Y-3289578D01*
X16999731Y-3284706D01*
X16815375Y-3283082D01*
X16592423Y-3290028D01*
X16394864Y-3310867D01*
X16218636Y-3356817D01*
X16063737Y-3439098D01*
X15938294Y-3550231D01*
X15850433Y-3682738D01*
X15797107Y-3837684D01*
X15779331Y-4016139D01*
X15805737Y-4244818D01*
X15884965Y-4447852D01*
X16006853Y-4614552D01*
X16149055Y-4727824D01*
X16307508Y-4798356D01*
X16547221Y-4871017D01*
X16409082Y-5153127D01*
X16351070Y-5266635D01*
X16266426Y-5427637D01*
X16155150Y-5636132D01*
X15949972Y-6014413D01*
X15852464Y-6208898D01*
X16058149Y-6205675D01*
X16179529Y-6204601D01*
X16314112Y-6205675D01*
X16522844Y-6208898D01*
X16748337Y-5640406D01*
X16813347Y-5498283D01*
X16890539Y-5332650D01*
X17136345Y-4813314D01*
X17237919Y-4595321D01*
X16990080Y-4620968D01*
X16822993Y-4606008D01*
X16671141Y-4561130D01*
X16543668Y-4485261D01*
X16449712Y-4377332D01*
X16391813Y-4245894D01*
X16372514Y-4103772D01*
X16407045Y-3937071D01*
X16518776Y-3806701D01*
X16707701Y-3738318D01*
X16927099Y-3723366D01*
X17093678Y-3725565D01*
X17353704Y-3727763D01*
X17390275Y-4606148D01*
X17428874Y-6209039D01*
X17743750Y-6204742D01*
X17858022Y-6205816D01*
X18050499Y-6209039D01*
X18050499Y-6209039D01*
G37*
G36*
X14269956Y-3291777D02*
X14072396Y-3295000D01*
X13951017Y-3296075D01*
X13822020Y-3295000D01*
X13642236Y-3291777D01*
X13737715Y-5016488D01*
X13739714Y-5080603D01*
X13720414Y-5333326D01*
X13662515Y-5514453D01*
X13565512Y-5640013D01*
X13432960Y-5726035D01*
X13269936Y-5775726D01*
X13085581Y-5792290D01*
X12849932Y-5762366D01*
X12683352Y-5691833D01*
X12575685Y-5602071D01*
X12484274Y-5458879D01*
X12427394Y-5279355D01*
X12410241Y-5153261D01*
X12393989Y-4977299D01*
X12378640Y-4751469D01*
X12335983Y-4007728D01*
X12327178Y-3783798D01*
X12319729Y-3545145D01*
X12313635Y-3291770D01*
X12113536Y-3294993D01*
X11972350Y-3296068D01*
X11675757Y-3291770D01*
X11738733Y-4321895D01*
X11779372Y-5140439D01*
X11802732Y-5390489D01*
X11836251Y-5567875D01*
X11927663Y-5785868D01*
X12063771Y-5946159D01*
X12173977Y-6031647D01*
X12301451Y-6104310D01*
X12458381Y-6168959D01*
X12624453Y-6213306D01*
X12863656Y-6248575D01*
X13109971Y-6260331D01*
X13357809Y-6248042D01*
X13589395Y-6211177D01*
X13772734Y-6156677D01*
X13940837Y-6078671D01*
X14083040Y-5983566D01*
X14192738Y-5877775D01*
X14312594Y-5653371D01*
X14350689Y-5495219D01*
X14363387Y-5319969D01*
X14359289Y-5155406D01*
X14345077Y-4892532D01*
X14326796Y-4591188D01*
X14316135Y-4417007D01*
X14304458Y-4176573D01*
X14284139Y-3712803D01*
X14276538Y-3512442D01*
X14269927Y-3291777D01*
X14269956Y-3291777D01*
X14269956Y-3291777D01*
G37*
G36*
X8984103Y-5674742D02*
X9025751Y-5926931D01*
X9061302Y-6183394D01*
X9283238Y-6219727D01*
X9485877Y-6243232D01*
X9665153Y-6256058D01*
X9817005Y-6260333D01*
X10017216Y-6250359D01*
X10211558Y-6220439D01*
X10400033Y-6170571D01*
X10578350Y-6099331D01*
X10744929Y-6005295D01*
X10899771Y-5888462D01*
X11033847Y-5749782D01*
X11140838Y-5593055D01*
X11220742Y-5418280D01*
X11276040Y-5228783D01*
X11309219Y-5027887D01*
X11320279Y-4815593D01*
X11306961Y-4585014D01*
X11267009Y-4366309D01*
X11200423Y-4159477D01*
X11109007Y-3969029D01*
X10994568Y-3799479D01*
X10857107Y-3650826D01*
X10697750Y-3524494D01*
X10520336Y-3421909D01*
X10324865Y-3343070D01*
X10117430Y-3286078D01*
X9904127Y-3251884D01*
X9684955Y-3240485D01*
X9458786Y-3249272D01*
X9219074Y-3275631D01*
X8965819Y-3319563D01*
X8959722Y-3481990D01*
X8953626Y-3588848D01*
X8939403Y-3817528D01*
X9149659Y-3763562D01*
X9321317Y-3729895D01*
X9470121Y-3712265D01*
X9611815Y-3706388D01*
X9825118Y-3724021D01*
X10030296Y-3776920D01*
X10218206Y-3866144D01*
X10383770Y-3997050D01*
X10518862Y-4164819D01*
X10619420Y-4364646D01*
X10680362Y-4583174D01*
X10700676Y-4811319D01*
X10675283Y-5074728D01*
X10599103Y-5309284D01*
X10467059Y-5508577D01*
X10274071Y-5666195D01*
X10112005Y-5742184D01*
X9926465Y-5787777D01*
X9717451Y-5802975D01*
X9499633Y-5788727D01*
X9255181Y-5745983D01*
X8984094Y-5674743D01*
X8984103Y-5674742D01*
X8984103Y-5674742D01*
G37*
D11*
G36*
X24430571Y-1408016D02*
X24277672Y-1172864D01*
X24115780Y-1018172D01*
X23949820Y-934981D01*
X23784718Y-914329D01*
X23625398Y-947257D01*
X23476786Y-1024805D01*
X23343808Y-1138012D01*
X23231387Y-1277917D01*
X23144450Y-1435561D01*
X23087922Y-1601984D01*
X23066729Y-1768224D01*
X23175623Y-1981428D01*
X23299895Y-2170942D01*
X23436418Y-2342184D01*
X23582063Y-2500571D01*
X23733701Y-2651518D01*
X23888206Y-2800444D01*
X24042448Y-2952765D01*
X24193300Y-3113897D01*
X24337633Y-3289259D01*
X24472319Y-3484266D01*
X24594230Y-3704336D01*
X24712654Y-3547481D01*
X24807052Y-3398708D01*
X24887930Y-3252861D01*
X24965795Y-3104785D01*
X25051153Y-2949324D01*
X25154511Y-2781321D01*
X25286375Y-2595622D01*
X25457252Y-2387071D01*
X25677649Y-2150512D01*
X25958071Y-1880789D01*
X26017584Y-1734784D01*
X26045349Y-1584830D01*
X26043373Y-1435612D01*
X26013663Y-1291815D01*
X25958227Y-1158126D01*
X25879073Y-1039231D01*
X25778207Y-939814D01*
X25657638Y-864563D01*
X25519372Y-818162D01*
X25365418Y-805297D01*
X25197782Y-830654D01*
X25018471Y-898918D01*
X24829495Y-1014777D01*
X24632859Y-1182914D01*
X24430571Y-1408016D01*
X24430571Y-1408016D01*
G37*
X24430571Y-1408016D02*
X24277672Y-1172864D01*
X24115780Y-1018172D01*
X23949820Y-934981D01*
X23784718Y-914329D01*
X23625398Y-947257D01*
X23476786Y-1024805D01*
X23343808Y-1138012D01*
X23231387Y-1277917D01*
X23144450Y-1435561D01*
X23087922Y-1601984D01*
X23066729Y-1768224D01*
X23175623Y-1981428D01*
X23299895Y-2170942D01*
X23436418Y-2342184D01*
X23582063Y-2500571D01*
X23733701Y-2651518D01*
X23888206Y-2800444D01*
X24042448Y-2952765D01*
X24193300Y-3113897D01*
X24337633Y-3289259D01*
X24472319Y-3484266D01*
X24594230Y-3704336D01*
X24712654Y-3547481D01*
X24807052Y-3398708D01*
X24887930Y-3252861D01*
X24965795Y-3104785D01*
X25051153Y-2949324D01*
X25154511Y-2781321D01*
X25286375Y-2595622D01*
X25457252Y-2387071D01*
X25677649Y-2150512D01*
X25958071Y-1880789D01*
X26017584Y-1734784D01*
X26045349Y-1584830D01*
X26043373Y-1435612D01*
X26013663Y-1291815D01*
X25958227Y-1158126D01*
X25879073Y-1039231D01*
X25778207Y-939814D01*
X25657638Y-864563D01*
X25519372Y-818162D01*
X25365418Y-805297D01*
X25197782Y-830654D01*
X25018471Y-898918D01*
X24829495Y-1014777D01*
X24632859Y-1182914D01*
X24430571Y-1408016D01*
M02*
